Ubuntu-CondensedItalic.ufo
<glyph name="exclam" format="2">
  <advance width="231"/>
  <unicode hex="0021"/>
  <outline>
    <contour>
      <point x="139" y="202" type="curve"/>
      <point x="185" y="202" type="line"/>
      <point x="222" y="295"/>
      <point x="258" y="412"/>
      <point x="281" y="505" type="curve" smooth="yes"/>
      <point x="326" y="693" type="line"/>
      <point x="234" y="693" type="line"/>
      <point x="189" y="505" type="line" smooth="yes"/>
      <point x="167" y="412"/>
      <point x="147" y="295"/>
    </contour>
    <contour>
      <point x="122" y="-9" type="curve" smooth="yes"/>
      <point x="155" y="-9"/>
      <point x="186" y="21"/>
      <point x="186" y="62" type="curve" smooth="yes"/>
      <point x="186" y="92"/>
      <point x="165" y="113"/>
      <point x="133" y="113" type="curve" smooth="yes"/>
      <point x="99" y="113"/>
      <point x="68" y="80"/>
      <point x="68" y="41" type="curve" smooth="yes"/>
      <point x="68" y="12"/>
      <point x="91" y="-9"/>
    </contour>
  </outline>
</glyph>
<glyph name="numbersign" format="2">
  <advance width="512"/>
  <unicode hex="0023"/>
  <outline>
    <contour>
      <point x="87" y="0" type="line"/>
      <point x="145" y="0" type="line"/>
      <point x="216" y="188" type="line"/>
      <point x="345" y="188" type="line"/>
      <point x="274" y="0" type="line"/>
      <point x="333" y="0" type="line"/>
      <point x="404" y="188" type="line"/>
      <point x="523" y="188" type="line"/>
      <point x="535" y="240" type="line"/>
      <point x="424" y="240" type="line"/>
      <point x="503" y="452" type="line"/>
      <point x="586" y="452" type="line"/>
      <point x="598" y="506" type="line"/>
      <point x="523" y="506" type="line"/>
      <point x="595" y="693" type="line"/>
      <point x="536" y="693" type="line"/>
      <point x="464" y="506" type="line"/>
      <point x="336" y="506" type="line"/>
      <point x="407" y="693" type="line"/>
      <point x="348" y="693" type="line"/>
      <point x="277" y="506" type="line"/>
      <point x="156" y="506" type="line"/>
      <point x="143" y="452" type="line"/>
      <point x="257" y="452" type="line"/>
      <point x="178" y="240" type="line"/>
      <point x="92" y="240" type="line"/>
      <point x="80" y="188" type="line"/>
      <point x="157" y="188" type="line"/>
    </contour>
    <contour>
      <point x="236" y="240" type="line"/>
      <point x="316" y="452" type="line"/>
      <point x="444" y="452" type="line"/>
      <point x="365" y="240" type="line"/>
    </contour>
  </outline>
</glyph>
<glyph name="dollar" format="2">
  <advance width="423"/>
  <unicode hex="0024"/>
  <outline>
    <contour>
      <point x="148" y="-109" type="line"/>
      <point x="227" y="-109" type="line"/>
      <point x="257" y="19" type="line"/>
      <point x="357" y="39"/>
      <point x="423" y="116"/>
      <point x="423" y="216" type="curve" smooth="yes"/>
      <point x="423" y="287"/>
      <point x="394" y="325"/>
      <point x="341" y="371" type="curve" smooth="yes"/>
      <point x="291" y="415"/>
      <point x="261" y="443"/>
      <point x="261" y="489" type="curve" smooth="yes"/>
      <point x="261" y="553"/>
      <point x="307" y="591"/>
      <point x="376" y="591" type="curve" smooth="yes"/>
      <point x="410" y="591"/>
      <point x="448" y="583"/>
      <point x="475" y="570" type="curve"/>
      <point x="501" y="638" type="line"/>
      <point x="476" y="651"/>
      <point x="450" y="659"/>
      <point x="418" y="662" type="curve"/>
      <point x="445" y="776" type="line"/>
      <point x="366" y="776" type="line"/>
      <point x="337" y="657" type="line"/>
      <point x="243" y="640"/>
      <point x="177" y="570"/>
      <point x="177" y="476" type="curve" smooth="yes"/>
      <point x="177" y="405"/>
      <point x="211" y="369"/>
      <point x="264" y="324" type="curve" smooth="yes"/>
      <point x="312" y="283"/>
      <point x="337" y="254"/>
      <point x="337" y="204" type="curve" smooth="yes"/>
      <point x="337" y="134"/>
      <point x="290" y="87"/>
      <point x="215" y="87" type="curve" smooth="yes"/>
      <point x="178" y="87"/>
      <point x="127" y="98"/>
      <point x="92" y="119" type="curve"/>
      <point x="64" y="47" type="line"/>
      <point x="98" y="30"/>
      <point x="141" y="19"/>
      <point x="178" y="16" type="curve"/>
    </contour>
  </outline>
</glyph>
<glyph name="percent" format="2">
  <advance width="660"/>
  <unicode hex="0025"/>
  <outline>
    <contour>
      <point x="158" y="0" type="line"/>
      <point x="234" y="0" type="line"/>
      <point x="666" y="693" type="line"/>
      <point x="591" y="693" type="line"/>
    </contour>
    <contour>
      <point x="241" y="343" type="curve" smooth="yes"/>
      <point x="342" y="343"/>
      <point x="412" y="481"/>
      <point x="412" y="610" type="curve" smooth="yes"/>
      <point x="412" y="673"/>
      <point x="379" y="708"/>
      <point x="322" y="708" type="curve" smooth="yes"/>
      <point x="220" y="708"/>
      <point x="152" y="572"/>
      <point x="152" y="442" type="curve" smooth="yes"/>
      <point x="152" y="378"/>
      <point x="183" y="343"/>
    </contour>
    <contour>
      <point x="246" y="401" type="curve" smooth="yes"/>
      <point x="228" y="401"/>
      <point x="220" y="415"/>
      <point x="220" y="445" type="curve" smooth="yes"/>
      <point x="220" y="524"/>
      <point x="265" y="650"/>
      <point x="316" y="650" type="curve" smooth="yes"/>
      <point x="336" y="650"/>
      <point x="344" y="636"/>
      <point x="344" y="606" type="curve" smooth="yes"/>
      <point x="344" y="528"/>
      <point x="298" y="401"/>
    </contour>
    <contour>
      <point x="504" y="-13" type="curve" smooth="yes"/>
      <point x="606" y="-13"/>
      <point x="675" y="126"/>
      <point x="675" y="254" type="curve" smooth="yes"/>
      <point x="675" y="317"/>
      <point x="643" y="352"/>
      <point x="585" y="352" type="curve" smooth="yes"/>
      <point x="484" y="352"/>
      <point x="415" y="216"/>
      <point x="415" y="87" type="curve" smooth="yes"/>
      <point x="415" y="22"/>
      <point x="447" y="-13"/>
    </contour>
    <contour>
      <point x="510" y="45" type="curve" smooth="yes"/>
      <point x="491" y="45"/>
      <point x="483" y="60"/>
      <point x="483" y="90" type="curve" smooth="yes"/>
      <point x="483" y="169"/>
      <point x="529" y="294"/>
      <point x="579" y="294" type="curve" smooth="yes"/>
      <point x="600" y="294"/>
      <point x="608" y="280"/>
      <point x="608" y="250" type="curve" smooth="yes"/>
      <point x="608" y="172"/>
      <point x="561" y="45"/>
    </contour>
  </outline>
</glyph>
<glyph name="ampersand" format="2">
  <advance width="495"/>
  <unicode hex="0026"/>
  <outline>
    <contour>
      <point x="211" y="-11" type="curve" smooth="yes"/>
      <point x="273" y="-11"/>
      <point x="333" y="22"/>
      <point x="384" y="76" type="curve"/>
      <point x="396" y="52"/>
      <point x="407" y="25"/>
      <point x="415" y="0" type="curve"/>
      <point x="497" y="0" type="line"/>
      <point x="484" y="48"/>
      <point x="466" y="96"/>
      <point x="445" y="136" type="curve"/>
      <point x="485" y="197"/>
      <point x="521" y="273"/>
      <point x="536" y="353" type="curve"/>
      <point x="465" y="363" type="line"/>
      <point x="453" y="303"/>
      <point x="431" y="248"/>
      <point x="408" y="203" type="curve"/>
      <point x="331" y="362" type="line"/>
      <point x="345" y="370" type="line"/>
      <point x="440" y="431"/>
      <point x="491" y="511"/>
      <point x="491" y="588" type="curve" smooth="yes"/>
      <point x="491" y="658"/>
      <point x="453" y="706"/>
      <point x="370" y="706" type="curve" smooth="yes"/>
      <point x="269" y="706"/>
      <point x="198" y="622"/>
      <point x="198" y="512" type="curve" smooth="yes"/>
      <point x="198" y="467"/>
      <point x="210" y="428"/>
      <point x="230" y="386" type="curve"/>
      <point x="222" y="381" type="line"/>
      <point x="127" y="324"/>
      <point x="71" y="245"/>
      <point x="71" y="138" type="curve" smooth="yes"/>
      <point x="71" y="54"/>
      <point x="120" y="-11"/>
    </contour>
    <contour>
      <point x="229" y="61" type="curve" smooth="yes"/>
      <point x="182" y="61"/>
      <point x="150" y="97"/>
      <point x="150" y="156" type="curve" smooth="yes"/>
      <point x="150" y="219"/>
      <point x="181" y="277"/>
      <point x="247" y="322" type="curve"/>
      <point x="258" y="331" type="line"/>
      <point x="355" y="132" type="line"/>
      <point x="319" y="89"/>
      <point x="275" y="61"/>
    </contour>
    <contour>
      <point x="303" y="417" type="line"/>
      <point x="286" y="453"/>
      <point x="276" y="487"/>
      <point x="276" y="520" type="curve" smooth="yes"/>
      <point x="276" y="589"/>
      <point x="311" y="640"/>
      <point x="360" y="640" type="curve" smooth="yes"/>
      <point x="394" y="640"/>
      <point x="414" y="619"/>
      <point x="414" y="577" type="curve" smooth="yes"/>
      <point x="414" y="522"/>
      <point x="378" y="467"/>
      <point x="313" y="423" type="curve"/>
    </contour>
  </outline>
</glyph>
<glyph name="quotesingle" format="2">
  <advance width="181"/>
  <unicode hex="0027"/>
  <outline>
    <contour>
      <point x="192" y="510" type="curve"/>
      <point x="232" y="510" type="line"/>
      <point x="255" y="575"/>
      <point x="278" y="641"/>
      <point x="293" y="702" type="curve" smooth="yes"/>
      <point x="306" y="760" type="line"/>
      <point x="238" y="760" type="line"/>
      <point x="224" y="702" type="line" smooth="yes"/>
      <point x="211" y="642"/>
      <point x="200" y="575"/>
    </contour>
  </outline>
</glyph>
<glyph name="parenleft" format="2">
  <advance width="261"/>
  <unicode hex="0028"/>
  <outline>
    <contour>
      <point x="164" y="-187" type="curve"/>
      <point x="216" y="-162" type="line"/>
      <point x="191" y="-76"/>
      <point x="181" y="4"/>
      <point x="181" y="87" type="curve" smooth="yes"/>
      <point x="181" y="315"/>
      <point x="266" y="542"/>
      <point x="435" y="756" type="curve"/>
      <point x="388" y="785" type="line"/>
      <point x="215" y="579"/>
      <point x="112" y="329"/>
      <point x="112" y="90" type="curve" smooth="yes"/>
      <point x="112" y="-7"/>
      <point x="131" y="-98"/>
    </contour>
  </outline>
</glyph>
<glyph name="parenright" format="2">
  <advance width="260"/>
  <unicode hex="0029"/>
  <outline>
    <contour>
      <point x="-46" y="-187" type="line"/>
      <point x="127" y="19"/>
      <point x="229" y="269"/>
      <point x="229" y="508" type="curve" smooth="yes"/>
      <point x="229" y="605"/>
      <point x="211" y="696"/>
      <point x="178" y="785" type="curve"/>
      <point x="126" y="760" type="line"/>
      <point x="150" y="674"/>
      <point x="161" y="594"/>
      <point x="161" y="511" type="curve" smooth="yes"/>
      <point x="161" y="283"/>
      <point x="76" y="56"/>
      <point x="-93" y="-158" type="curve"/>
    </contour>
  </outline>
</glyph>
<glyph name="asterisk" format="2">
  <advance width="399"/>
  <unicode hex="002A"/>
  <outline>
    <contour>
      <point x="203" y="407" type="line"/>
      <point x="229" y="443"/>
      <point x="246" y="474"/>
      <point x="265" y="524" type="curve"/>
      <point x="284" y="474"/>
      <point x="301" y="444"/>
      <point x="326" y="407" type="curve"/>
      <point x="378" y="445" type="line"/>
      <point x="354" y="483"/>
      <point x="331" y="510"/>
      <point x="289" y="544" type="curve"/>
      <point x="341" y="547"/>
      <point x="376" y="553"/>
      <point x="417" y="569" type="curve"/>
      <point x="396" y="630" type="line"/>
      <point x="356" y="616"/>
      <point x="324" y="602"/>
      <point x="280" y="573" type="curve"/>
      <point x="294" y="624"/>
      <point x="299" y="660"/>
      <point x="297" y="707" type="curve"/>
      <point x="233" y="707" type="line"/>
      <point x="232" y="661"/>
      <point x="236" y="624"/>
      <point x="250" y="572" type="curve"/>
      <point x="206" y="601"/>
      <point x="175" y="616"/>
      <point x="133" y="629" type="curve"/>
      <point x="113" y="568" type="line"/>
      <point x="153" y="553"/>
      <point x="187" y="545"/>
      <point x="240" y="543" type="curve"/>
      <point x="199" y="510"/>
      <point x="175" y="483"/>
      <point x="151" y="445" type="curve"/>
    </contour>
  </outline>
</glyph>
<glyph name="plus" format="2">
  <advance width="438"/>
  <unicode hex="002B"/>
  <outline>
    <contour>
      <point x="217" y="120" type="line"/>
      <point x="280" y="120" type="line"/>
      <point x="315" y="271" type="line"/>
      <point x="452" y="271" type="line"/>
      <point x="466" y="329" type="line"/>
      <point x="329" y="329" type="line"/>
      <point x="366" y="480" type="line"/>
      <point x="303" y="480" type="line"/>
      <point x="268" y="329" type="line"/>
      <point x="129" y="329" type="line"/>
      <point x="115" y="271" type="line"/>
      <point x="253" y="271" type="line"/>
    </contour>
  </outline>
</glyph>
<glyph name="comma" format="2">
  <advance width="207"/>
  <unicode hex="002C"/>
  <outline>
    <contour>
      <point x="60" y="-141" type="line"/>
      <point x="117" y="-73"/>
      <point x="160" y="5"/>
      <point x="168" y="97" type="curve"/>
      <point x="97" y="97" type="line"/>
      <point x="90" y="28"/>
      <point x="58" y="-56"/>
      <point x="16" y="-125" type="curve"/>
    </contour>
  </outline>
</glyph>
<glyph name="hyphen" format="2">
  <advance width="246"/>
  <unicode hex="002D"/>
  <outline>
    <contour>
      <point x="89" y="254" type="line"/>
      <point x="277" y="254" type="line"/>
      <point x="294" y="318" type="line"/>
      <point x="106" y="318" type="line"/>
    </contour>
  </outline>
</glyph>
<glyph name="period" format="2">
  <advance width="207"/>
  <unicode hex="002E"/>
  <outline>
    <contour>
      <point x="109" y="-8" type="curve" smooth="yes"/>
      <point x="136" y="-8"/>
      <point x="162" y="18"/>
      <point x="162" y="51" type="curve" smooth="yes"/>
      <point x="162" y="76"/>
      <point x="144" y="93"/>
      <point x="119" y="93" type="curve" smooth="yes"/>
      <point x="90" y="93"/>
      <point x="65" y="65"/>
      <point x="65" y="35" type="curve" smooth="yes"/>
      <point x="65" y="10"/>
      <point x="84" y="-8"/>
    </contour>
  </outline>
</glyph>
<glyph name="slash" format="2">
  <advance width="278"/>
  <unicode hex="002F"/>
  <outline>
    <contour>
      <point x="-66" y="-185" type="line"/>
      <point x="-1" y="-185" type="line"/>
      <point x="465" y="783" type="line"/>
      <point x="400" y="783" type="line"/>
    </contour>
  </outline>
</glyph>
<glyph name="zero" format="2">
  <advance width="438"/>
  <unicode hex="0030"/>
  <outline>
    <contour>
      <point x="228" y="-11" type="curve" smooth="yes"/>
      <point x="374" y="-11"/>
      <point x="489" y="274"/>
      <point x="489" y="549" type="curve" smooth="yes"/>
      <point x="489" y="653"/>
      <point x="451" y="707"/>
      <point x="379" y="707" type="curve" smooth="yes"/>
      <point x="231" y="707"/>
      <point x="117" y="428"/>
      <point x="117" y="151" type="curve" smooth="yes"/>
      <point x="117" y="45"/>
      <point x="156" y="-11"/>
    </contour>
    <contour>
      <point x="238" y="50" type="curve" smooth="yes"/>
      <point x="202" y="50"/>
      <point x="186" y="83"/>
      <point x="186" y="157" type="curve" smooth="yes"/>
      <point x="186" y="361"/>
      <point x="279" y="646"/>
      <point x="370" y="646" type="curve" smooth="yes"/>
      <point x="405" y="646"/>
      <point x="420" y="613"/>
      <point x="420" y="542" type="curve" smooth="yes"/>
      <point x="420" y="338"/>
      <point x="327" y="50"/>
    </contour>
  </outline>
</glyph>
<glyph name="one" format="2">
  <advance width="429"/>
  <unicode hex="0031"/>
  <outline>
    <contour>
      <point x="212" y="0" type="line"/>
      <point x="298" y="0" type="line"/>
      <point x="464" y="693" type="line"/>
      <point x="400" y="693" type="line"/>
      <point x="349" y="630"/>
      <point x="278" y="586"/>
      <point x="214" y="557" type="curve"/>
      <point x="242" y="492" type="line"/>
      <point x="272" y="505"/>
      <point x="314" y="529"/>
      <point x="346" y="560" type="curve"/>
    </contour>
  </outline>
</glyph>
<glyph name="two" format="2">
  <advance width="420"/>
  <unicode hex="0032"/>
  <outline>
    <contour>
      <point x="25" y="0" type="curve"/>
      <point x="327" y="0" type="line"/>
      <point x="342" y="62" type="line"/>
      <point x="109" y="62" type="line"/>
      <point x="130" y="140"/>
      <point x="186" y="223"/>
      <point x="262" y="299" type="curve" smooth="yes"/>
      <point x="361" y="396"/>
      <point x="415" y="478"/>
      <point x="415" y="567" type="curve" smooth="yes"/>
      <point x="415" y="656"/>
      <point x="369" y="707"/>
      <point x="288" y="707" type="curve" smooth="yes"/>
      <point x="230" y="707"/>
      <point x="176" y="688"/>
      <point x="133" y="651" type="curve"/>
      <point x="157" y="603" type="line"/>
      <point x="193" y="631"/>
      <point x="229" y="646"/>
      <point x="268" y="646" type="curve" smooth="yes"/>
      <point x="314" y="646"/>
      <point x="343" y="617"/>
      <point x="343" y="556" type="curve" smooth="yes"/>
      <point x="343" y="481"/>
      <point x="295" y="410"/>
      <point x="197" y="315" type="curve" smooth="yes"/>
      <point x="110" y="231"/>
      <point x="41" y="119"/>
    </contour>
  </outline>
</glyph>
<glyph name="three" format="2">
  <advance width="438"/>
  <unicode hex="0033"/>
  <outline>
    <contour>
      <point x="194" y="-15" type="curve" smooth="yes"/>
      <point x="322" y="-15"/>
      <point x="418" y="94"/>
      <point x="418" y="229" type="curve" smooth="yes"/>
      <point x="418" y="293"/>
      <point x="396" y="339"/>
      <point x="341" y="369" type="curve"/>
      <point x="443" y="411"/>
      <point x="480" y="496"/>
      <point x="480" y="574" type="curve" smooth="yes"/>
      <point x="480" y="657"/>
      <point x="434" y="706"/>
      <point x="350" y="706" type="curve" smooth="yes"/>
      <point x="300" y="706"/>
      <point x="244" y="690"/>
      <point x="207" y="662" type="curve"/>
      <point x="229" y="612" type="line"/>
      <point x="261" y="633"/>
      <point x="297" y="646"/>
      <point x="329" y="646" type="curve" smooth="yes"/>
      <point x="382" y="646"/>
      <point x="408" y="612"/>
      <point x="408" y="558" type="curve" smooth="yes"/>
      <point x="408" y="490"/>
      <point x="362" y="399"/>
      <point x="254" y="399" type="curve" smooth="yes"/>
      <point x="222" y="399" type="line"/>
      <point x="209" y="337" type="line"/>
      <point x="241" y="337" type="line" smooth="yes"/>
      <point x="309" y="337"/>
      <point x="348" y="299"/>
      <point x="348" y="226" type="curve" smooth="yes"/>
      <point x="348" y="121"/>
      <point x="276" y="47"/>
      <point x="199" y="47" type="curve" smooth="yes"/>
      <point x="161" y="47"/>
      <point x="128" y="56"/>
      <point x="98" y="74" type="curve"/>
      <point x="68" y="17" type="line"/>
      <point x="101" y="-4"/>
      <point x="145" y="-15"/>
    </contour>
  </outline>
</glyph>
<glyph name="four" format="2">
  <advance width="438"/>
  <unicode hex="0034"/>
  <outline>
    <contour>
      <point x="269" y="0" type="line"/>
      <point x="337" y="0" type="line"/>
      <point x="378" y="169" type="line"/>
      <point x="446" y="169" type="line"/>
      <point x="459" y="226" type="line"/>
      <point x="392" y="226" type="line"/>
      <point x="503" y="693" type="line"/>
      <point x="430" y="693" type="line"/>
      <point x="329" y="574"/>
      <point x="197" y="394"/>
      <point x="104" y="219" type="curve"/>
      <point x="92" y="169" type="line"/>
      <point x="310" y="169" type="line"/>
    </contour>
    <contour>
      <point x="168" y="226" type="line"/>
      <point x="239" y="357"/>
      <point x="316" y="471"/>
      <point x="411" y="591" type="curve"/>
      <point x="324" y="226" type="line"/>
    </contour>
  </outline>
</glyph>
<glyph name="five" format="2">
  <advance width="438"/>
  <unicode hex="0035"/>
  <outline>
    <contour>
      <point x="194" y="-15" type="curve" smooth="yes"/>
      <point x="321" y="-15"/>
      <point x="421" y="104"/>
      <point x="421" y="246" type="curve" smooth="yes"/>
      <point x="421" y="334"/>
      <point x="374" y="392"/>
      <point x="261" y="415" type="curve"/>
      <point x="286" y="490"/>
      <point x="305" y="554"/>
      <point x="324" y="632" type="curve"/>
      <point x="501" y="632" type="line"/>
      <point x="517" y="693" type="line"/>
      <point x="277" y="693" type="line"/>
      <point x="258" y="609"/>
      <point x="218" y="471"/>
      <point x="182" y="363" type="curve"/>
      <point x="297" y="357"/>
      <point x="349" y="312"/>
      <point x="349" y="235" type="curve" smooth="yes"/>
      <point x="349" y="134"/>
      <point x="282" y="47"/>
      <point x="200" y="47" type="curve" smooth="yes"/>
      <point x="166" y="47"/>
      <point x="127" y="55"/>
      <point x="99" y="74" type="curve"/>
      <point x="70" y="17" type="line"/>
      <point x="107" y="-5"/>
      <point x="147" y="-15"/>
    </contour>
  </outline>
</glyph>
<glyph name="six" format="2">
  <advance width="438"/>
  <unicode hex="0036"/>
  <outline>
    <contour>
      <point x="239" y="-11" type="curve" smooth="yes"/>
      <point x="355" y="-11"/>
      <point x="442" y="133"/>
      <point x="442" y="287" type="curve" smooth="yes"/>
      <point x="442" y="374"/>
      <point x="400" y="424"/>
      <point x="332" y="424" type="curve" smooth="yes"/>
      <point x="298" y="424"/>
      <point x="266" y="416"/>
      <point x="232" y="399" type="curve"/>
      <point x="279" y="524"/>
      <point x="363" y="633"/>
      <point x="500" y="642" type="curve"/>
      <point x="508" y="699" type="line"/>
      <point x="224" y="687"/>
      <point x="121" y="351"/>
      <point x="121" y="160" type="curve" smooth="yes"/>
      <point x="121" y="47"/>
      <point x="166" y="-11"/>
    </contour>
    <contour>
      <point x="248" y="50" type="curve" smooth="yes"/>
      <point x="208" y="50"/>
      <point x="187" y="83"/>
      <point x="187" y="153" type="curve" smooth="yes"/>
      <point x="187" y="208"/>
      <point x="195" y="272"/>
      <point x="212" y="334" type="curve"/>
      <point x="240" y="355"/>
      <point x="271" y="367"/>
      <point x="304" y="367" type="curve" smooth="yes"/>
      <point x="346" y="367"/>
      <point x="371" y="336"/>
      <point x="371" y="275" type="curve" smooth="yes"/>
      <point x="371" y="158"/>
      <point x="316" y="50"/>
    </contour>
  </outline>
</glyph>
<glyph name="seven" format="2">
  <advance width="429"/>
  <unicode hex="0037"/>
  <outline>
    <contour>
      <point x="124" y="0" type="curve"/>
      <point x="213" y="0" type="line"/>
      <point x="272" y="203"/>
      <point x="400" y="467"/>
      <point x="536" y="633" type="curve"/>
      <point x="549" y="693" type="line"/>
      <point x="229" y="693" type="line"/>
      <point x="210" y="617" type="line"/>
      <point x="439" y="617" type="line"/>
      <point x="307" y="445"/>
      <point x="172" y="175"/>
    </contour>
  </outline>
</glyph>
<glyph name="eight" format="2">
  <advance width="438"/>
  <unicode hex="0038"/>
  <outline>
    <contour>
      <point x="227" y="-11" type="curve" smooth="yes"/>
      <point x="336" y="-11"/>
      <point x="426" y="78"/>
      <point x="426" y="205" type="curve" smooth="yes"/>
      <point x="426" y="265"/>
      <point x="397" y="305"/>
      <point x="357" y="348" type="curve"/>
      <point x="438" y="406"/>
      <point x="496" y="489"/>
      <point x="496" y="580" type="curve" smooth="yes"/>
      <point x="496" y="664"/>
      <point x="445" y="706"/>
      <point x="373" y="706" type="curve" smooth="yes"/>
      <point x="283" y="706"/>
      <point x="192" y="634"/>
      <point x="192" y="502" type="curve" smooth="yes"/>
      <point x="192" y="447"/>
      <point x="214" y="407"/>
      <point x="246" y="369" type="curve"/>
      <point x="153" y="314"/>
      <point x="95" y="240"/>
      <point x="95" y="133" type="curve" smooth="yes"/>
      <point x="95" y="49"/>
      <point x="143" y="-11"/>
    </contour>
    <contour>
      <point x="243" y="45" type="curve" smooth="yes"/>
      <point x="194" y="45"/>
      <point x="166" y="82"/>
      <point x="166" y="138" type="curve" smooth="yes"/>
      <point x="166" y="224"/>
      <point x="207" y="280"/>
      <point x="279" y="334" type="curve"/>
      <point x="320" y="290"/>
      <point x="354" y="250"/>
      <point x="354" y="191" type="curve" smooth="yes"/>
      <point x="354" y="100"/>
      <point x="297" y="45"/>
    </contour>
    <contour>
      <point x="325" y="382" type="curve"/>
      <point x="289" y="422"/>
      <point x="261" y="460"/>
      <point x="261" y="516" type="curve" smooth="yes"/>
      <point x="261" y="611"/>
      <point x="318" y="650"/>
      <point x="363" y="650" type="curve" smooth="yes"/>
      <point x="401" y="650"/>
      <point x="427" y="627"/>
      <point x="427" y="572" type="curve" smooth="yes"/>
      <point x="427" y="495"/>
      <point x="389" y="434"/>
    </contour>
  </outline>
</glyph>
<glyph name="nine" format="2">
  <advance width="429"/>
  <unicode hex="0039"/>
  <outline>
    <contour>
      <point x="79" y="-5" type="curve" smooth="yes"/>
      <point x="364" y="-3"/>
      <point x="487" y="319"/>
      <point x="487" y="530" type="curve" smooth="yes"/>
      <point x="487" y="647"/>
      <point x="438" y="706"/>
      <point x="362" y="706" type="curve" smooth="yes"/>
      <point x="239" y="706"/>
      <point x="152" y="555"/>
      <point x="152" y="403" type="curve" smooth="yes"/>
      <point x="152" y="314"/>
      <point x="196" y="263"/>
      <point x="263" y="263" type="curve" smooth="yes"/>
      <point x="294" y="263"/>
      <point x="323" y="269"/>
      <point x="351" y="284" type="curve"/>
      <point x="303" y="164"/>
      <point x="218" y="68"/>
      <point x="81" y="66" type="curve"/>
      <point x="70" y="-5" type="line"/>
      <point x="73" y="-5"/>
      <point x="76" y="-5"/>
    </contour>
    <contour>
      <point x="301" y="335" type="curve" smooth="yes"/>
      <point x="264" y="335"/>
      <point x="241" y="361"/>
      <point x="241" y="418" type="curve" smooth="yes"/>
      <point x="241" y="525"/>
      <point x="289" y="630"/>
      <point x="351" y="630" type="curve" smooth="yes"/>
      <point x="386" y="630"/>
      <point x="404" y="602"/>
      <point x="404" y="541" type="curve" smooth="yes"/>
      <point x="404" y="486"/>
      <point x="396" y="424"/>
      <point x="379" y="362" type="curve"/>
      <point x="353" y="343"/>
      <point x="328" y="335"/>
    </contour>
  </outline>
</glyph>
<glyph name="less" format="2">
  <advance width="438"/>
  <unicode hex="003C"/>
  <outline>
    <contour>
      <point x="375" y="92" type="line"/>
      <point x="407" y="145" type="line"/>
      <point x="193" y="293" type="line"/>
      <point x="481" y="444" type="line"/>
      <point x="477" y="505" type="line"/>
      <point x="134" y="327" type="line"/>
      <point x="118" y="269" type="line"/>
    </contour>
  </outline>
</glyph>
<glyph name="equal" format="2">
  <advance width="429"/>
  <unicode hex="003D"/>
  <outline>
    <contour>
      <point x="132" y="362" type="line"/>
      <point x="472" y="362" type="line"/>
      <point x="489" y="434" type="line"/>
      <point x="149" y="434" type="line"/>
    </contour>
    <contour>
      <point x="85" y="164" type="line"/>
      <point x="425" y="164" type="line"/>
      <point x="442" y="236" type="line"/>
      <point x="102" y="236" type="line"/>
    </contour>
  </outline>
</glyph>
<glyph name="greater" format="2">
  <advance width="438"/>
  <unicode hex="003E"/>
  <outline>
    <contour>
      <point x="93" y="92" type="line"/>
      <point x="436" y="268" type="line"/>
      <point x="451" y="327" type="line"/>
      <point x="195" y="505" type="line"/>
      <point x="162" y="451" type="line"/>
      <point x="376" y="303" type="line"/>
      <point x="88" y="151" type="line"/>
    </contour>
  </outline>
</glyph>
<glyph name="question" format="2">
  <advance width="322"/>
  <unicode hex="003F"/>
  <outline>
    <contour>
      <point x="144" y="202" type="curve"/>
      <point x="223" y="202" type="line"/>
      <point x="223" y="298"/>
      <point x="278" y="346"/>
      <point x="333" y="397" type="curve" smooth="yes"/>
      <point x="383" y="444"/>
      <point x="432" y="499"/>
      <point x="432" y="584" type="curve" smooth="yes"/>
      <point x="432" y="652"/>
      <point x="388" y="706"/>
      <point x="304" y="706" type="curve" smooth="yes"/>
      <point x="252" y="706"/>
      <point x="208" y="695"/>
      <point x="169" y="671" type="curve"/>
      <point x="188" y="604" type="line"/>
      <point x="218" y="621"/>
      <point x="246" y="630"/>
      <point x="277" y="630" type="curve" smooth="yes"/>
      <point x="317" y="630"/>
      <point x="342" y="608"/>
      <point x="342" y="567" type="curve" smooth="yes"/>
      <point x="342" y="510"/>
      <point x="302" y="466"/>
      <point x="259" y="424" type="curve" smooth="yes"/>
      <point x="210" y="377"/>
      <point x="144" y="317"/>
    </contour>
    <contour>
      <point x="151" y="-9" type="curve" smooth="yes"/>
      <point x="184" y="-9"/>
      <point x="216" y="21"/>
      <point x="216" y="62" type="curve" smooth="yes"/>
      <point x="216" y="92"/>
      <point x="194" y="113"/>
      <point x="163" y="113" type="curve" smooth="yes"/>
      <point x="128" y="113"/>
      <point x="97" y="80"/>
      <point x="97" y="41" type="curve" smooth="yes"/>
      <point x="97" y="12"/>
      <point x="120" y="-9"/>
    </contour>
  </outline>
</glyph>
<glyph name="at" format="2">
  <advance width="805"/>
  <unicode hex="0040"/>
  <outline>
    <contour>
      <point x="396" y="-154" type="curve" smooth="yes"/>
      <point x="452" y="-154"/>
      <point x="509" y="-147"/>
      <point x="539" y="-133" type="curve"/>
      <point x="541" y="-71" type="line"/>
      <point x="506" y="-82"/>
      <point x="457" y="-91"/>
      <point x="409" y="-91" type="curve" smooth="yes"/>
      <point x="265" y="-91"/>
      <point x="191" y="2"/>
      <point x="191" y="172" type="curve" smooth="yes"/>
      <point x="191" y="439"/>
      <point x="361" y="645"/>
      <point x="544" y="645" type="curve" smooth="yes"/>
      <point x="688" y="645"/>
      <point x="754" y="564"/>
      <point x="754" y="417" type="curve" smooth="yes"/>
      <point x="754" y="233"/>
      <point x="681" y="113"/>
      <point x="627" y="113" type="curve" smooth="yes"/>
      <point x="604" y="113"/>
      <point x="585" y="127"/>
      <point x="585" y="164" type="curve" smooth="yes"/>
      <point x="585" y="178"/>
      <point x="588" y="196"/>
      <point x="594" y="219" type="curve" smooth="yes"/>
      <point x="657" y="483" type="line"/>
      <point x="628" y="497"/>
      <point x="576" y="506"/>
      <point x="544" y="506" type="curve" smooth="yes"/>
      <point x="408" y="506"/>
      <point x="302" y="359"/>
      <point x="302" y="181" type="curve" smooth="yes"/>
      <point x="302" y="100"/>
      <point x="341" y="48"/>
      <point x="414" y="48" type="curve" smooth="yes"/>
      <point x="454" y="48"/>
      <point x="490" y="66"/>
      <point x="521" y="95" type="curve"/>
      <point x="542" y="61"/>
      <point x="577" y="49"/>
      <point x="612" y="49" type="curve" smooth="yes"/>
      <point x="734" y="49"/>
      <point x="827" y="221"/>
      <point x="827" y="427" type="curve" smooth="yes"/>
      <point x="827" y="609"/>
      <point x="729" y="709"/>
      <point x="556" y="709" type="curve" smooth="yes"/>
      <point x="317" y="709"/>
      <point x="116" y="474"/>
      <point x="116" y="157" type="curve" smooth="yes"/>
      <point x="116" y="-52"/>
      <point x="228" y="-154"/>
    </contour>
    <contour>
      <point x="438" y="115" type="curve" smooth="yes"/>
      <point x="399" y="115"/>
      <point x="380" y="137"/>
      <point x="380" y="186" type="curve" smooth="yes"/>
      <point x="380" y="319"/>
      <point x="451" y="440"/>
      <point x="524" y="440" type="curve" smooth="yes"/>
      <point x="538" y="440"/>
      <point x="549" y="439"/>
      <point x="567" y="433" type="curve"/>
      <point x="517" y="224" type="line" smooth="yes"/>
      <point x="510" y="195"/>
      <point x="508" y="172"/>
      <point x="509" y="151" type="curve"/>
      <point x="488" y="127"/>
      <point x="461" y="115"/>
    </contour>
  </outline>
</glyph>
<glyph name="A" format="2">
  <advance width="477"/>
  <unicode hex="0041"/>
  <outline>
    <contour>
      <point x="24" y="0" type="curve"/>
      <point x="95" y="0" type="line"/>
      <point x="114" y="54"/>
      <point x="140" y="116"/>
      <point x="169" y="181" type="curve"/>
      <point x="390" y="181" type="line"/>
      <point x="389" y="116"/>
      <point x="386" y="56"/>
      <point x="383" y="0" type="curve"/>
      <point x="456" y="0" type="line"/>
      <point x="467" y="235"/>
      <point x="457" y="469"/>
      <point x="437" y="693" type="curve"/>
      <point x="361" y="693" type="line"/>
      <point x="244" y="491"/>
      <point x="114" y="234"/>
    </contour>
    <contour>
      <point x="196" y="242" type="line"/>
      <point x="249" y="361"/>
      <point x="314" y="490"/>
      <point x="379" y="608" type="curve"/>
      <point x="388" y="477"/>
      <point x="390" y="355"/>
      <point x="391" y="242" type="curve"/>
    </contour>
  </outline>
</glyph>
<glyph name="B" format="2">
  <advance width="506"/>
  <unicode hex="0042"/>
  <outline>
    <contour>
      <point x="224" y="-6" type="curve" smooth="yes"/>
      <point x="414" y="-6"/>
      <point x="508" y="94"/>
      <point x="508" y="226" type="curve" smooth="yes"/>
      <point x="508" y="284"/>
      <point x="480" y="332"/>
      <point x="418" y="360" type="curve"/>
      <point x="532" y="398"/>
      <point x="567" y="485"/>
      <point x="567" y="562" type="curve" smooth="yes"/>
      <point x="567" y="652"/>
      <point x="505" y="700"/>
      <point x="384" y="700" type="curve" smooth="yes"/>
      <point x="341" y="700"/>
      <point x="293" y="694"/>
      <point x="240" y="683" type="curve"/>
      <point x="79" y="10" type="line"/>
      <point x="125" y="-1"/>
      <point x="176" y="-6"/>
    </contour>
    <contour>
      <point x="245" y="68" type="curve" smooth="yes"/>
      <point x="227" y="68"/>
      <point x="203" y="71"/>
      <point x="183" y="74" type="curve"/>
      <point x="243" y="323" type="line"/>
      <point x="304" y="323" type="line" smooth="yes"/>
      <point x="377" y="323"/>
      <point x="416" y="288"/>
      <point x="416" y="222" type="curve" smooth="yes"/>
      <point x="416" y="123"/>
      <point x="357" y="68"/>
    </contour>
    <contour>
      <point x="261" y="396" type="line"/>
      <point x="314" y="621" type="line"/>
      <point x="332" y="624"/>
      <point x="354" y="625"/>
      <point x="373" y="625" type="curve" smooth="yes"/>
      <point x="443" y="625"/>
      <point x="475" y="602"/>
      <point x="475" y="546" type="curve" smooth="yes"/>
      <point x="475" y="476"/>
      <point x="439" y="396"/>
      <point x="320" y="396" type="curve" smooth="yes"/>
    </contour>
  </outline>
</glyph>
<glyph name="C" format="2">
  <advance width="463"/>
  <unicode hex="0043"/>
  <outline>
    <contour>
      <point x="307" y="-11" type="curve" smooth="yes"/>
      <point x="362" y="-11"/>
      <point x="411" y="2"/>
      <point x="454" y="28" type="curve"/>
      <point x="448" y="105" type="line"/>
      <point x="410" y="79"/>
      <point x="370" y="67"/>
      <point x="333" y="67" type="curve" smooth="yes"/>
      <point x="261" y="67"/>
      <point x="217" y="110"/>
      <point x="217" y="209" type="curve" smooth="yes"/>
      <point x="217" y="465"/>
      <point x="333" y="628"/>
      <point x="464" y="628" type="curve" smooth="yes"/>
      <point x="494" y="628"/>
      <point x="527" y="621"/>
      <point x="552" y="607" type="curve"/>
      <point x="583" y="682" type="line"/>
      <point x="554" y="697"/>
      <point x="513" y="705"/>
      <point x="467" y="705" type="curve" smooth="yes"/>
      <point x="267" y="705"/>
      <point x="125" y="484"/>
      <point x="125" y="212" type="curve" smooth="yes"/>
      <point x="125" y="70"/>
      <point x="184" y="-11"/>
    </contour>
  </outline>
</glyph>
<glyph name="D" format="2">
  <advance width="556"/>
  <unicode hex="0044"/>
  <outline>
    <contour>
      <point x="225" y="-5" type="curve" smooth="yes"/>
      <point x="455" y="-5"/>
      <point x="591" y="230"/>
      <point x="591" y="478" type="curve" smooth="yes"/>
      <point x="591" y="622"/>
      <point x="526" y="699"/>
      <point x="390" y="699" type="curve" smooth="yes"/>
      <point x="341" y="699"/>
      <point x="296" y="695"/>
      <point x="247" y="683" type="curve"/>
      <point x="87" y="12" type="line"/>
      <point x="121" y="2"/>
      <point x="178" y="-5"/>
    </contour>
    <contour>
      <point x="242" y="58" type="curve" smooth="yes"/>
      <point x="226" y="58"/>
      <point x="199" y="61"/>
      <point x="171" y="66" type="curve"/>
      <point x="306" y="630" type="line"/>
      <point x="332" y="634"/>
      <point x="358" y="636"/>
      <point x="381" y="636" type="curve" smooth="yes"/>
      <point x="476" y="636"/>
      <point x="517" y="583"/>
      <point x="517" y="469" type="curve" smooth="yes"/>
      <point x="517" y="253"/>
      <point x="402" y="58"/>
    </contour>
  </outline>
</glyph>
<glyph name="E" format="2">
  <advance width="434"/>
  <unicode hex="0045"/>
  <anchor x="162" y="0" name="bottom"/>
  <anchor x="268" y="10" name="ogonek"/>
  <anchor x="323" y="677" name="top"/>
  <anchor x="61" y="693" name="topleft"/>
  <outline>
    <contour>
      <point x="20" y="0" type="line"/>
      <point x="336" y="0" type="line"/>
      <point x="351" y="61" type="line"/>
      <point x="106" y="61" type="line"/>
      <point x="172" y="334" type="line"/>
      <point x="374" y="334" type="line"/>
      <point x="389" y="395" type="line"/>
      <point x="186" y="395" type="line"/>
      <point x="243" y="632" type="line"/>
      <point x="469" y="632" type="line"/>
      <point x="483" y="693" type="line"/>
      <point x="186" y="693" type="line"/>
    </contour>
  </outline>
</glyph>
<glyph name="F" format="2">
  <advance width="407"/>
  <unicode hex="0046"/>
  <outline>
    <contour>
      <point x="83" y="0" type="line"/>
      <point x="155" y="0" type="line"/>
      <point x="234" y="332" type="line"/>
      <point x="433" y="332" type="line"/>
      <point x="448" y="392" type="line"/>
      <point x="249" y="392" type="line"/>
      <point x="306" y="632" type="line"/>
      <point x="528" y="632" type="line"/>
      <point x="542" y="693" type="line"/>
      <point x="249" y="693" type="line"/>
    </contour>
  </outline>
</glyph>
<glyph name="G" format="2">
  <advance width="515"/>
  <unicode hex="0047"/>
  <outline>
    <contour>
      <point x="317" y="-10" type="curve" smooth="yes"/>
      <point x="381" y="-10"/>
      <point x="428" y="4"/>
      <point x="460" y="19" type="curve"/>
      <point x="536" y="336" type="line"/>
      <point x="464" y="336" type="line"/>
      <point x="399" y="66" type="line"/>
      <point x="375" y="56"/>
      <point x="355" y="52"/>
      <point x="326" y="52" type="curve" smooth="yes"/>
      <point x="242" y="52"/>
      <point x="206" y="102"/>
      <point x="206" y="209" type="curve" smooth="yes"/>
      <point x="206" y="450"/>
      <point x="328" y="642"/>
      <point x="474" y="642" type="curve" smooth="yes"/>
      <point x="514" y="642"/>
      <point x="551" y="632"/>
      <point x="578" y="616" type="curve"/>
      <point x="605" y="678" type="line"/>
      <point x="575" y="693"/>
      <point x="536" y="704"/>
      <point x="487" y="704" type="curve" smooth="yes"/>
      <point x="283" y="704"/>
      <point x="132" y="485"/>
      <point x="132" y="204" type="curve" smooth="yes"/>
      <point x="132" y="64"/>
      <point x="193" y="-10"/>
    </contour>
  </outline>
</glyph>
<glyph name="H" format="2">
  <advance width="553"/>
  <unicode hex="0048"/>
  <outline>
    <contour>
      <point x="83" y="0" type="line"/>
      <point x="155" y="0" type="line"/>
      <point x="234" y="330" type="line"/>
      <point x="477" y="330" type="line"/>
      <point x="398" y="0" type="line"/>
      <point x="470" y="0" type="line"/>
      <point x="636" y="693" type="line"/>
      <point x="564" y="693" type="line"/>
      <point x="493" y="393" type="line"/>
      <point x="249" y="393" type="line"/>
      <point x="321" y="693" type="line"/>
      <point x="249" y="693" type="line"/>
    </contour>
  </outline>
</glyph>
<glyph name="I" format="2">
  <advance width="241"/>
  <unicode hex="0049"/>
  <outline>
    <contour>
      <point x="77" y="0" type="line"/>
      <point x="165" y="0" type="line"/>
      <point x="331" y="693" type="line"/>
      <point x="243" y="693" type="line"/>
    </contour>
  </outline>
</glyph>
<glyph name="J" format="2">
  <advance width="366"/>
  <unicode hex="004A"/>
  <outline>
    <contour>
      <point x="135" y="-10" type="curve" smooth="yes"/>
      <point x="240" y="-10"/>
      <point x="299" y="37"/>
      <point x="334" y="183" type="curve" smooth="yes"/>
      <point x="457" y="693" type="line"/>
      <point x="385" y="693" type="line"/>
      <point x="262" y="183" type="line" smooth="yes"/>
      <point x="241" y="93"/>
      <point x="208" y="53"/>
      <point x="146" y="53" type="curve" smooth="yes"/>
      <point x="114" y="53"/>
      <point x="83" y="63"/>
      <point x="58" y="81" type="curve"/>
      <point x="24" y="24" type="line"/>
      <point x="58" y="3"/>
      <point x="98" y="-10"/>
    </contour>
  </outline>
</glyph>
<glyph name="K" format="2">
  <advance width="473"/>
  <unicode hex="004B"/>
  <outline>
    <contour>
      <point x="75" y="0" type="line"/>
      <point x="165" y="0" type="line"/>
      <point x="242" y="322" type="line"/>
      <point x="309" y="239"/>
      <point x="354" y="112"/>
      <point x="371" y="0" type="curve"/>
      <point x="463" y="0" type="line"/>
      <point x="445" y="118"/>
      <point x="396" y="247"/>
      <point x="327" y="352" type="curve"/>
      <point x="440" y="471"/>
      <point x="528" y="586"/>
      <point x="612" y="693" type="curve"/>
      <point x="519" y="693" type="line"/>
      <point x="445" y="599"/>
      <point x="359" y="486"/>
      <point x="255" y="377" type="curve"/>
      <point x="331" y="693" type="line"/>
      <point x="241" y="693" type="line"/>
    </contour>
  </outline>
</glyph>
<glyph name="L" format="2">
  <advance width="397"/>
  <unicode hex="004C"/>
  <anchor x="248" y="0" name="bottom"/>
  <anchor x="220" y="347" name="center"/>
  <anchor x="290" y="677" name="top"/>
  <anchor x="333" y="693" name="topright"/>
  <outline>
    <contour>
      <point x="83" y="0" type="line"/>
      <point x="376" y="0" type="line"/>
      <point x="391" y="62" type="line"/>
      <point x="169" y="62" type="line"/>
      <point x="321" y="693" type="line"/>
      <point x="249" y="693" type="line"/>
    </contour>
  </outline>
</glyph>
<glyph name="M" format="2">
  <advance width="688"/>
  <unicode hex="004D"/>
  <outline>
    <contour>
      <point x="63" y="0" type="curve"/>
      <point x="149" y="0" type="line"/>
      <point x="189" y="161"/>
      <point x="241" y="354"/>
      <point x="301" y="555" type="curve"/>
      <point x="322" y="385"/>
      <point x="324" y="239"/>
      <point x="329" y="96" type="curve"/>
      <point x="406" y="96" type="line"/>
      <point x="479" y="234"/>
      <point x="553" y="380"/>
      <point x="652" y="544" type="curve"/>
      <point x="616" y="348"/>
      <point x="576" y="158"/>
      <point x="540" y="0" type="curve"/>
      <point x="626" y="0" type="line"/>
      <point x="676" y="233"/>
      <point x="725" y="493"/>
      <point x="756" y="693" type="curve"/>
      <point x="666" y="693" type="line"/>
      <point x="586" y="571"/>
      <point x="492" y="401"/>
      <point x="395" y="214" type="curve"/>
      <point x="388" y="397"/>
      <point x="376" y="571"/>
      <point x="355" y="693" type="curve"/>
      <point x="265" y="693" type="line"/>
      <point x="200" y="493"/>
      <point x="124" y="233"/>
    </contour>
  </outline>
</glyph>
<glyph name="N" format="2">
  <advance width="561"/>
  <unicode hex="004E"/>
  <outline>
    <contour>
      <point x="83" y="0" type="line"/>
      <point x="152" y="0" type="line"/>
      <point x="287" y="564" type="line"/>
      <point x="343" y="376"/>
      <point x="386" y="180"/>
      <point x="417" y="0" type="curve"/>
      <point x="478" y="0" type="line"/>
      <point x="644" y="693" type="line"/>
      <point x="575" y="693" type="line"/>
      <point x="447" y="161" type="line"/>
      <point x="409" y="356"/>
      <point x="361" y="544"/>
      <point x="313" y="693" type="curve"/>
      <point x="249" y="693" type="line"/>
    </contour>
  </outline>
</glyph>
<glyph name="O" format="2">
  <advance width="584"/>
  <unicode hex="004F"/>
  <anchor x="292" y="0" name="bottom"/>
  <anchor x="376" y="347" name="center"/>
  <anchor x="466" y="10" name="ogonek"/>
  <anchor x="453" y="677" name="top"/>
  <anchor x="124" y="693" name="topleft"/>
  <anchor x="668" y="693" name="topright"/>
  <outline>
    <contour>
      <point x="302" y="-10" type="curve" smooth="yes"/>
      <point x="482" y="-10"/>
      <point x="619" y="230"/>
      <point x="619" y="488" type="curve" smooth="yes"/>
      <point x="619" y="626"/>
      <point x="564" y="704"/>
      <point x="450" y="704" type="curve" smooth="yes"/>
      <point x="270" y="704"/>
      <point x="133" y="467"/>
      <point x="133" y="209" type="curve" smooth="yes"/>
      <point x="133" y="69"/>
      <point x="188" y="-10"/>
    </contour>
    <contour>
      <point x="310" y="52" type="curve" smooth="yes"/>
      <point x="235" y="52"/>
      <point x="207" y="104"/>
      <point x="207" y="212" type="curve" smooth="yes"/>
      <point x="207" y="408"/>
      <point x="309" y="642"/>
      <point x="442" y="642" type="curve" smooth="yes"/>
      <point x="512" y="642"/>
      <point x="545" y="590"/>
      <point x="545" y="485" type="curve" smooth="yes"/>
      <point x="545" y="286"/>
      <point x="441" y="52"/>
    </contour>
  </outline>
</glyph>
<glyph name="P" format="2">
  <advance width="470"/>
  <unicode hex="0050"/>
  <outline>
    <contour>
      <point x="76" y="0" type="line"/>
      <point x="165" y="0" type="line"/>
      <point x="227" y="258" type="line"/>
      <point x="269" y="258" type="line" smooth="yes"/>
      <point x="446" y="258"/>
      <point x="566" y="375"/>
      <point x="566" y="537" type="curve" smooth="yes"/>
      <point x="566" y="645"/>
      <point x="502" y="700"/>
      <point x="387" y="700" type="curve" smooth="yes"/>
      <point x="341" y="700"/>
      <point x="291" y="696"/>
      <point x="240" y="683" type="curve"/>
    </contour>
    <contour>
      <point x="246" y="334" type="line"/>
      <point x="314" y="617" type="line"/>
      <point x="334" y="622"/>
      <point x="358" y="623"/>
      <point x="374" y="623" type="curve" smooth="yes"/>
      <point x="440" y="623"/>
      <point x="475" y="595"/>
      <point x="475" y="526" type="curve" smooth="yes"/>
      <point x="475" y="411"/>
      <point x="408" y="334"/>
      <point x="284" y="334" type="curve" smooth="yes"/>
    </contour>
  </outline>
</glyph>
<glyph name="Q" format="2">
  <advance width="580"/>
  <unicode hex="0051"/>
  <outline>
    <contour>
      <point x="472" y="-175" type="curve"/>
      <point x="500" y="-105" type="line"/>
      <point x="411" y="-98"/>
      <point x="356" y="-61"/>
      <point x="352" y="-9" type="curve" smooth="yes"/>
      <point x="352" y="-8"/>
      <point x="352" y="-6"/>
      <point x="352" y="-5" type="curve"/>
      <point x="510" y="32"/>
      <point x="621" y="254"/>
      <point x="621" y="483" type="curve" smooth="yes"/>
      <point x="621" y="623"/>
      <point x="565" y="705"/>
      <point x="445" y="705" type="curve" smooth="yes"/>
      <point x="258" y="705"/>
      <point x="126" y="463"/>
      <point x="126" y="213" type="curve" smooth="yes"/>
      <point x="126" y="83"/>
      <point x="173" y="5"/>
      <point x="271" y="-7" type="curve"/>
      <point x="271" y="-9"/>
      <point x="271" y="-11"/>
      <point x="271" y="-12" type="curve" smooth="yes"/>
      <point x="275" y="-108"/>
      <point x="340" y="-158"/>
    </contour>
    <contour>
      <point x="312" y="67" type="curve" smooth="yes"/>
      <point x="243" y="67"/>
      <point x="218" y="116"/>
      <point x="218" y="215" type="curve" smooth="yes"/>
      <point x="218" y="386"/>
      <point x="307" y="628"/>
      <point x="435" y="628" type="curve" smooth="yes"/>
      <point x="500" y="628"/>
      <point x="529" y="578"/>
      <point x="529" y="482" type="curve" smooth="yes"/>
      <point x="529" y="307"/>
      <point x="437" y="67"/>
    </contour>
  </outline>
</glyph>
<glyph name="R" format="2">
  <advance width="493"/>
  <unicode hex="0052"/>
  <outline>
    <contour>
      <point x="76" y="0" type="line"/>
      <point x="165" y="0" type="line"/>
      <point x="230" y="270" type="line"/>
      <point x="284" y="270" type="line" smooth="yes"/>
      <point x="294" y="270"/>
      <point x="304" y="270"/>
      <point x="320" y="272" type="curve"/>
      <point x="350" y="191"/>
      <point x="373" y="89"/>
      <point x="385" y="0" type="curve"/>
      <point x="476" y="0" type="line"/>
      <point x="459" y="113"/>
      <point x="436" y="210"/>
      <point x="403" y="298" type="curve"/>
      <point x="515" y="353"/>
      <point x="561" y="443"/>
      <point x="561" y="544" type="curve" smooth="yes"/>
      <point x="561" y="645"/>
      <point x="500" y="700"/>
      <point x="385" y="700" type="curve" smooth="yes"/>
      <point x="334" y="700"/>
      <point x="284" y="693"/>
      <point x="240" y="683" type="curve"/>
    </contour>
    <contour>
      <point x="248" y="343" type="line"/>
      <point x="314" y="617" type="line"/>
      <point x="335" y="622"/>
      <point x="356" y="624"/>
      <point x="372" y="624" type="curve" smooth="yes"/>
      <point x="435" y="624"/>
      <point x="469" y="593"/>
      <point x="469" y="530" type="curve" smooth="yes"/>
      <point x="469" y="422"/>
      <point x="401" y="343"/>
      <point x="289" y="343" type="curve" smooth="yes"/>
    </contour>
  </outline>
</glyph>
<glyph name="S" format="2">
  <advance width="386"/>
  <unicode hex="0053"/>
  <outline>
    <contour>
      <point x="182" y="-12" type="curve" smooth="yes"/>
      <point x="318" y="-12"/>
      <point x="410" y="83"/>
      <point x="410" y="214" type="curve" smooth="yes"/>
      <point x="410" y="290"/>
      <point x="380" y="334"/>
      <point x="326" y="381" type="curve" smooth="yes"/>
      <point x="273" y="427"/>
      <point x="247" y="459"/>
      <point x="247" y="507" type="curve" smooth="yes"/>
      <point x="247" y="583"/>
      <point x="293" y="628"/>
      <point x="363" y="628" type="curve" smooth="yes"/>
      <point x="397" y="628"/>
      <point x="436" y="619"/>
      <point x="463" y="606" type="curve"/>
      <point x="491" y="678" type="line"/>
      <point x="457" y="695"/>
      <point x="421" y="705"/>
      <point x="372" y="705" type="curve" smooth="yes"/>
      <point x="250" y="705"/>
      <point x="157" y="616"/>
      <point x="157" y="492" type="curve" smooth="yes"/>
      <point x="157" y="421"/>
      <point x="188" y="382"/>
      <point x="247" y="331" type="curve" smooth="yes"/>
      <point x="294" y="291"/>
      <point x="319" y="257"/>
      <point x="319" y="201" type="curve" smooth="yes"/>
      <point x="319" y="119"/>
      <point x="270" y="65"/>
      <point x="195" y="65" type="curve" smooth="yes"/>
      <point x="157" y="65"/>
      <point x="107" y="76"/>
      <point x="70" y="99" type="curve"/>
      <point x="40" y="22" type="line"/>
      <point x="81" y="2"/>
      <point x="132" y="-12"/>
    </contour>
  </outline>
</glyph>
<glyph name="T" format="2">
  <advance width="421"/>
  <unicode hex="0054"/>
  <outline>
    <contour>
      <point x="166" y="0" type="line"/>
      <point x="255" y="0" type="line"/>
      <point x="403" y="617" type="line"/>
      <point x="551" y="617" type="line"/>
      <point x="569" y="693" type="line"/>
      <point x="184" y="693" type="line"/>
      <point x="166" y="617" type="line"/>
      <point x="314" y="617" type="line"/>
    </contour>
  </outline>
</glyph>
<glyph name="U" format="2">
  <advance width="532"/>
  <unicode hex="0055"/>
  <anchor x="203" y="0" name="bottom"/>
  <anchor x="419" y="10" name="ogonek"/>
  <anchor x="419" y="677" name="top"/>
  <anchor x="616" y="693" name="topright"/>
  <outline>
    <contour>
      <point x="278" y="-10" type="curve" smooth="yes"/>
      <point x="405" y="-10"/>
      <point x="472" y="66"/>
      <point x="507" y="214" type="curve" smooth="yes"/>
      <point x="621" y="693" type="line"/>
      <point x="549" y="693" type="line"/>
      <point x="434" y="213" type="line" smooth="yes"/>
      <point x="408" y="105"/>
      <point x="367" y="54"/>
      <point x="288" y="54" type="curve" smooth="yes"/>
      <point x="225" y="54"/>
      <point x="191" y="84"/>
      <point x="191" y="148" type="curve" smooth="yes"/>
      <point x="191" y="167"/>
      <point x="194" y="189"/>
      <point x="200" y="214" type="curve" smooth="yes"/>
      <point x="316" y="693" type="line"/>
      <point x="244" y="693" type="line"/>
      <point x="129" y="218" type="line" smooth="yes"/>
      <point x="122" y="188"/>
      <point x="119" y="161"/>
      <point x="119" y="137" type="curve" smooth="yes"/>
      <point x="119" y="38"/>
      <point x="177" y="-10"/>
    </contour>
  </outline>
</glyph>
<glyph name="V" format="2">
  <advance width="464"/>
  <unicode hex="0056"/>
  <outline>
    <contour>
      <point x="190" y="0" type="curve"/>
      <point x="283" y="0" type="line"/>
      <point x="405" y="217"/>
      <point x="518" y="450"/>
      <point x="614" y="693" type="curve"/>
      <point x="525" y="693" type="line"/>
      <point x="468" y="538"/>
      <point x="381" y="341"/>
      <point x="263" y="108" type="curve"/>
      <point x="253" y="345"/>
      <point x="258" y="539"/>
      <point x="270" y="693" type="curve"/>
      <point x="179" y="693" type="line"/>
      <point x="166" y="449"/>
      <point x="173" y="219"/>
    </contour>
  </outline>
</glyph>
<glyph name="W" format="2">
  <advance width="697"/>
  <unicode hex="0057"/>
  <anchor x="346" y="0" name="bottom"/>
  <anchor x="499" y="677" name="top"/>
  <outline>
    <contour>
      <point x="153" y="0" type="curve"/>
      <point x="232" y="0" type="line"/>
      <point x="315" y="149"/>
      <point x="390" y="318"/>
      <point x="472" y="508" type="curve"/>
      <point x="468" y="316"/>
      <point x="470" y="150"/>
      <point x="484" y="0" type="curve"/>
      <point x="560" y="0" type="line"/>
      <point x="667" y="208"/>
      <point x="765" y="478"/>
      <point x="832" y="693" type="curve"/>
      <point x="759" y="693" type="line"/>
      <point x="709" y="516"/>
      <point x="640" y="320"/>
      <point x="539" y="90" type="curve"/>
      <point x="527" y="287"/>
      <point x="527" y="457"/>
      <point x="533" y="609" type="curve"/>
      <point x="457" y="609" type="line"/>
      <point x="393" y="458"/>
      <point x="321" y="288"/>
      <point x="220" y="96" type="curve"/>
      <point x="223" y="325"/>
      <point x="241" y="519"/>
      <point x="270" y="693" type="curve"/>
      <point x="196" y="693" type="line"/>
      <point x="165" y="478"/>
      <point x="147" y="210"/>
    </contour>
  </outline>
</glyph>
<glyph name="X" format="2">
  <advance width="438"/>
  <unicode hex="0058"/>
  <outline>
    <contour>
      <point x="16" y="0" type="line"/>
      <point x="93" y="0" type="line"/>
      <point x="291" y="303" type="line"/>
      <point x="320" y="193"/>
      <point x="337" y="106"/>
      <point x="350" y="0" type="curve"/>
      <point x="424" y="0" type="line"/>
      <point x="409" y="115"/>
      <point x="389" y="218"/>
      <point x="350" y="361" type="curve"/>
      <point x="423" y="464"/>
      <point x="523" y="616"/>
      <point x="570" y="693" type="curve"/>
      <point x="494" y="693" type="line"/>
      <point x="452" y="623"/>
      <point x="378" y="501"/>
      <point x="321" y="421" type="curve"/>
      <point x="263" y="693" type="line"/>
      <point x="188" y="693" type="line"/>
      <point x="262" y="367" type="line"/>
    </contour>
  </outline>
</glyph>
<glyph name="Y" format="2">
  <advance width="450"/>
  <unicode hex="0059"/>
  <outline>
    <contour>
      <point x="190" y="0" type="line"/>
      <point x="261" y="0" type="line"/>
      <point x="327" y="270" type="line"/>
      <point x="417" y="393"/>
      <point x="519" y="554"/>
      <point x="595" y="693" type="curve"/>
      <point x="520" y="693" type="line"/>
      <point x="467" y="589"/>
      <point x="399" y="473"/>
      <point x="305" y="341" type="curve"/>
      <point x="280" y="474"/>
      <point x="266" y="588"/>
      <point x="261" y="693" type="curve"/>
      <point x="186" y="693" type="line"/>
      <point x="197" y="552"/>
      <point x="225" y="392"/>
      <point x="254" y="268" type="curve"/>
    </contour>
  </outline>
</glyph>
<glyph name="Z" format="2">
  <advance width="426"/>
  <unicode hex="005A"/>
  <anchor x="153" y="0" name="bottom"/>
  <anchor x="171" y="347" name="center"/>
  <anchor x="317" y="677" name="top"/>
  <outline>
    <contour>
      <point x="-14" y="0" type="line"/>
      <point x="328" y="0" type="line"/>
      <point x="343" y="62" type="line"/>
      <point x="85" y="62" type="line"/>
      <point x="211" y="271"/>
      <point x="337" y="460"/>
      <point x="476" y="633" type="curve"/>
      <point x="490" y="693" type="line"/>
      <point x="166" y="693" type="line"/>
      <point x="152" y="631" type="line"/>
      <point x="394" y="631" type="line"/>
      <point x="233" y="422"/>
      <point x="109" y="235"/>
      <point x="-2" y="49" type="curve"/>
    </contour>
  </outline>
</glyph>
<glyph name="bracketleft" format="2">
  <advance width="270"/>
  <unicode hex="005B"/>
  <outline>
    <contour>
      <point x="31" y="-185" type="line"/>
      <point x="207" y="-185" type="line"/>
      <point x="222" y="-119" type="line"/>
      <point x="126" y="-119" type="line"/>
      <point x="327" y="716" type="line"/>
      <point x="423" y="716" type="line"/>
      <point x="439" y="783" type="line"/>
      <point x="263" y="783" type="line"/>
    </contour>
  </outline>
</glyph>
<glyph name="backslash" format="2">
  <advance width="276"/>
  <unicode hex="005C"/>
  <outline>
    <contour>
      <point x="202" y="-186" type="line"/>
      <point x="279" y="-186" type="line"/>
      <point x="243" y="782" type="line"/>
      <point x="166" y="782" type="line"/>
    </contour>
  </outline>
</glyph>
<glyph name="bracketright" format="2">
  <advance width="264"/>
  <unicode hex="005D"/>
  <outline>
    <contour>
      <point x="-22" y="-185" type="line"/>
      <point x="138" y="-185" type="line"/>
      <point x="370" y="783" type="line"/>
      <point x="210" y="783" type="line"/>
      <point x="197" y="729" type="line"/>
      <point x="293" y="729" type="line"/>
      <point x="87" y="-130" type="line"/>
      <point x="-9" y="-130" type="line"/>
    </contour>
  </outline>
</glyph>
<glyph name="asciicircum" format="2">
  <advance width="429"/>
  <unicode hex="005E"/>
  <outline>
    <contour>
      <point x="393" y="312" type="line"/>
      <point x="471" y="331" type="line"/>
      <point x="414" y="688" type="line"/>
      <point x="341" y="688" type="line"/>
      <point x="120" y="342" type="line"/>
      <point x="187" y="312" type="line"/>
      <point x="354" y="584" type="line"/>
    </contour>
  </outline>
</glyph>
<glyph name="underscore" format="2">
  <advance width="340"/>
  <unicode hex="005F"/>
  <outline>
    <contour>
      <point x="-43" y="-183" type="line"/>
      <point x="294" y="-183" type="line"/>
      <point x="309" y="-125" type="line"/>
      <point x="-28" y="-125" type="line"/>
    </contour>
  </outline>
</glyph>
<glyph name="grave" format="2">
  <advance width="285"/>
  <unicode hex="0060"/>
  <outline>
    <contour>
      <point x="355" y="590" type="line"/>
      <point x="388" y="618" type="line"/>
      <point x="264" y="778" type="line"/>
      <point x="215" y="737" type="line"/>
    </contour>
  </outline>
</glyph>
<glyph name="a" format="2">
  <advance width="451"/>
  <unicode hex="0061"/>
  <outline>
    <contour>
      <point x="212" y="-10" type="curve" smooth="yes"/>
      <point x="256" y="-10"/>
      <point x="299" y="11"/>
      <point x="331" y="37" type="curve"/>
      <point x="335" y="22"/>
      <point x="340" y="9"/>
      <point x="345" y="-8" type="curve"/>
      <point x="423" y="5" type="line"/>
      <point x="408" y="57"/>
      <point x="400" y="107"/>
      <point x="421" y="194" type="curve" smooth="yes"/>
      <point x="496" y="508" type="line"/>
      <point x="461" y="526"/>
      <point x="406" y="536"/>
      <point x="369" y="536" type="curve" smooth="yes"/>
      <point x="213" y="536"/>
      <point x="92" y="361"/>
      <point x="92" y="148" type="curve" smooth="yes"/>
      <point x="92" y="52"/>
      <point x="127" y="-10"/>
    </contour>
    <contour>
      <point x="241" y="64" type="curve" smooth="yes"/>
      <point x="195" y="64"/>
      <point x="179" y="92"/>
      <point x="179" y="155" type="curve" smooth="yes"/>
      <point x="179" y="315"/>
      <point x="261" y="464"/>
      <point x="346" y="464" type="curve" smooth="yes"/>
      <point x="365" y="464"/>
      <point x="382" y="461"/>
      <point x="397" y="454" type="curve"/>
      <point x="337" y="206" type="line" smooth="yes"/>
      <point x="327" y="163"/>
      <point x="321" y="131"/>
      <point x="320" y="106" type="curve"/>
      <point x="297" y="81"/>
      <point x="267" y="64"/>
    </contour>
  </outline>
</glyph>
<glyph name="b" format="2">
  <advance width="448"/>
  <unicode hex="0062"/>
  <outline>
    <contour>
      <point x="201" y="-10" type="curve" smooth="yes"/>
      <point x="359" y="-10"/>
      <point x="482" y="164"/>
      <point x="484" y="375" type="curve" smooth="yes"/>
      <point x="485" y="474"/>
      <point x="447" y="536"/>
      <point x="361" y="536" type="curve" smooth="yes"/>
      <point x="335" y="536"/>
      <point x="305" y="527"/>
      <point x="276" y="506" type="curve"/>
      <point x="342" y="776" type="line"/>
      <point x="252" y="761" type="line"/>
      <point x="73" y="18" type="line"/>
      <point x="108" y="1"/>
      <point x="163" y="-10"/>
    </contour>
    <contour>
      <point x="223" y="62" type="curve" smooth="yes"/>
      <point x="205" y="62"/>
      <point x="187" y="65"/>
      <point x="173" y="72" type="curve"/>
      <point x="257" y="425" type="line"/>
      <point x="283" y="450"/>
      <point x="311" y="462"/>
      <point x="336" y="462" type="curve" smooth="yes"/>
      <point x="381" y="462"/>
      <point x="396" y="432"/>
      <point x="396" y="370" type="curve" smooth="yes"/>
      <point x="396" y="211"/>
      <point x="311" y="62"/>
    </contour>
  </outline>
</glyph>
<glyph name="c" format="2">
  <advance width="354"/>
  <unicode hex="0063"/>
  <anchor x="135" y="0" name="bottom"/>
  <anchor x="261" y="522" name="top"/>
  <outline>
    <contour>
      <point x="169" y="-11" type="curve" smooth="yes"/>
      <point x="208" y="-11"/>
      <point x="241" y="-2"/>
      <point x="273" y="17" type="curve"/>
      <point x="267" y="73" type="line"/>
      <point x="245" y="59"/>
      <point x="217" y="49"/>
      <point x="191" y="49" type="curve" smooth="yes"/>
      <point x="132" y="49"/>
      <point x="110" y="82"/>
      <point x="110" y="165" type="curve" smooth="yes"/>
      <point x="110" y="340"/>
      <point x="185" y="474"/>
      <point x="285" y="474" type="curve" smooth="yes"/>
      <point x="308" y="474"/>
      <point x="330" y="470"/>
      <point x="351" y="459" type="curve"/>
      <point x="374" y="519" type="line"/>
      <point x="348" y="530"/>
      <point x="318" y="535"/>
      <point x="288" y="535" type="curve" smooth="yes"/>
      <point x="146" y="535"/>
      <point x="40" y="371"/>
      <point x="40" y="156" type="curve" smooth="yes"/>
      <point x="40" y="44"/>
      <point x="81" y="-11"/>
    </contour>
  </outline>
</glyph>
<glyph name="d" format="2">
  <advance width="453"/>
  <unicode hex="0064"/>
  <anchor x="164" y="0" name="bottom"/>
  <anchor x="227" y="261" name="center"/>
  <anchor x="351" y="776" name="top"/>
  <anchor x="555" y="776" name="topright"/>
  <outline>
    <contour>
      <point x="213" y="-10" type="curve" smooth="yes"/>
      <point x="257" y="-10"/>
      <point x="303" y="11"/>
      <point x="337" y="40" type="curve"/>
      <point x="341" y="23"/>
      <point x="346" y="10"/>
      <point x="351" y="-7" type="curve"/>
      <point x="415" y="4" type="line"/>
      <point x="401" y="52"/>
      <point x="391" y="94"/>
      <point x="413" y="184" type="curve" smooth="yes"/>
      <point x="555" y="776" type="line"/>
      <point x="484" y="764" type="line"/>
      <point x="426" y="523" type="line"/>
      <point x="408" y="529"/>
      <point x="385" y="534"/>
      <point x="365" y="534" type="curve" smooth="yes"/>
      <point x="222" y="534"/>
      <point x="97" y="360"/>
      <point x="97" y="147" type="curve" smooth="yes"/>
      <point x="97" y="49"/>
      <point x="135" y="-10"/>
    </contour>
    <contour>
      <point x="233" y="50" type="curve" smooth="yes"/>
      <point x="189" y="50"/>
      <point x="167" y="82"/>
      <point x="167" y="151" type="curve" smooth="yes"/>
      <point x="167" y="321"/>
      <point x="258" y="474"/>
      <point x="355" y="474" type="curve" smooth="yes"/>
      <point x="375" y="474"/>
      <point x="395" y="471"/>
      <point x="412" y="466" type="curve"/>
      <point x="348" y="201" type="line" smooth="yes"/>
      <point x="337" y="156"/>
      <point x="332" y="123"/>
      <point x="331" y="98" type="curve"/>
      <point x="301" y="68"/>
      <point x="266" y="50"/>
    </contour>
  </outline>
</glyph>
<glyph name="e" format="2">
  <advance width="400"/>
  <unicode hex="0065"/>
  <outline>
    <contour>
      <point x="238" y="-11" type="curve" smooth="yes"/>
      <point x="288" y="-11"/>
      <point x="333" y="5"/>
      <point x="366" y="28" type="curve"/>
      <point x="359" y="83" type="line"/>
      <point x="331" y="62"/>
      <point x="292" y="48"/>
      <point x="258" y="48" type="curve" smooth="yes"/>
      <point x="196" y="48"/>
      <point x="170" y="73"/>
      <point x="170" y="162" type="curve" smooth="yes"/>
      <point x="170" y="179"/>
      <point x="171" y="197"/>
      <point x="173" y="213" type="curve"/>
      <point x="340" y="221"/>
      <point x="449" y="289"/>
      <point x="452" y="420" type="curve" smooth="yes"/>
      <point x="453" y="490"/>
      <point x="411" y="535"/>
      <point x="344" y="535" type="curve" smooth="yes"/>
      <point x="203" y="535"/>
      <point x="101" y="356"/>
      <point x="101" y="156" type="curve" smooth="yes"/>
      <point x="101" y="48"/>
      <point x="139" y="-11"/>
    </contour>
    <contour>
      <point x="179" y="266" type="curve"/>
      <point x="201" y="389"/>
      <point x="264" y="477"/>
      <point x="332" y="477" type="curve" smooth="yes"/>
      <point x="366" y="477"/>
      <point x="387" y="453"/>
      <point x="387" y="415" type="curve" smooth="yes"/>
      <point x="387" y="336"/>
      <point x="316" y="273"/>
    </contour>
  </outline>
</glyph>
<glyph name="f" format="2">
  <advance width="310"/>
  <unicode hex="0066"/>
  <outline>
    <contour>
      <point x="59" y="-189" type="line"/>
      <point x="112" y="-124"/>
      <point x="144" y="-55"/>
      <point x="173" y="66" type="curve" smooth="yes"/>
      <point x="265" y="452" type="line"/>
      <point x="395" y="452" type="line"/>
      <point x="413" y="525" type="line"/>
      <point x="282" y="525" type="line"/>
      <point x="295" y="579" type="line" smooth="yes"/>
      <point x="316" y="667"/>
      <point x="348" y="702"/>
      <point x="404" y="702" type="curve" smooth="yes"/>
      <point x="429" y="702"/>
      <point x="447" y="696"/>
      <point x="465" y="688" type="curve"/>
      <point x="495" y="759" type="line"/>
      <point x="474" y="769"/>
      <point x="447" y="776"/>
      <point x="412" y="776" type="curve" smooth="yes"/>
      <point x="313" y="776"/>
      <point x="245" y="725"/>
      <point x="211" y="581" type="curve" smooth="yes"/>
      <point x="80" y="40" type="line" smooth="yes"/>
      <point x="61" y="-40"/>
      <point x="30" y="-117"/>
      <point x="-19" y="-176" type="curve"/>
    </contour>
  </outline>
</glyph>
<glyph name="g" format="2">
  <advance width="447"/>
  <unicode hex="0067"/>
  <anchor x="79" y="-200" name="bottom"/>
  <anchor x="294" y="522" name="top"/>
  <outline>
    <contour>
      <point x="82" y="-188" type="curve" smooth="yes"/>
      <point x="202" y="-188"/>
      <point x="277" y="-122"/>
      <point x="315" y="38" type="curve" smooth="yes"/>
      <point x="426" y="505" type="line"/>
      <point x="393" y="522"/>
      <point x="344" y="532"/>
      <point x="309" y="532" type="curve" smooth="yes"/>
      <point x="155" y="532"/>
      <point x="34" y="369"/>
      <point x="33" y="170" type="curve" smooth="yes"/>
      <point x="32" y="74"/>
      <point x="69" y="18"/>
      <point x="151" y="18" type="curve" smooth="yes"/>
      <point x="184" y="18"/>
      <point x="218" y="31"/>
      <point x="248" y="51" type="curve"/>
      <point x="243" y="30" type="line" smooth="yes"/>
      <point x="217" y="-81"/>
      <point x="171" y="-130"/>
      <point x="88" y="-130" type="curve" smooth="yes"/>
      <point x="50" y="-130"/>
      <point x="14" y="-118"/>
      <point x="-14" y="-99" type="curve"/>
      <point x="-41" y="-157" type="line"/>
      <point x="-11" y="-176"/>
      <point x="38" y="-188"/>
    </contour>
    <contour>
      <point x="170" y="78" type="curve" smooth="yes"/>
      <point x="122" y="78"/>
      <point x="104" y="108"/>
      <point x="104" y="175" type="curve" smooth="yes"/>
      <point x="104" y="331"/>
      <point x="193" y="473"/>
      <point x="291" y="473" type="curve" smooth="yes"/>
      <point x="311" y="473"/>
      <point x="330" y="469"/>
      <point x="346" y="462" type="curve"/>
      <point x="265" y="120" type="line"/>
      <point x="234" y="92"/>
      <point x="200" y="78"/>
    </contour>
  </outline>
</glyph>
<glyph name="h" format="2">
  <advance width="463"/>
  <unicode hex="0068"/>
  <outline>
    <contour>
      <point x="70" y="0" type="line"/>
      <point x="156" y="0" type="line"/>
      <point x="265" y="451" type="line"/>
      <point x="286" y="458"/>
      <point x="310" y="463"/>
      <point x="328" y="463" type="curve" smooth="yes"/>
      <point x="374" y="463"/>
      <point x="397" y="441"/>
      <point x="397" y="388" type="curve" smooth="yes"/>
      <point x="397" y="367"/>
      <point x="394" y="341"/>
      <point x="385" y="309" type="curve" smooth="yes"/>
      <point x="311" y="0" type="line"/>
      <point x="397" y="0" type="line"/>
      <point x="473" y="316" type="line" smooth="yes"/>
      <point x="481" y="348"/>
      <point x="485" y="376"/>
      <point x="485" y="401" type="curve" smooth="yes"/>
      <point x="485" y="489"/>
      <point x="438" y="535"/>
      <point x="356" y="535" type="curve" smooth="yes"/>
      <point x="334" y="535"/>
      <point x="307" y="530"/>
      <point x="281" y="521" type="curve"/>
      <point x="342" y="776" type="line"/>
      <point x="253" y="761" type="line"/>
    </contour>
  </outline>
</glyph>
<glyph name="i" format="2">
  <advance width="224"/>
  <unicode hex="0069"/>
  <outline>
    <contour>
      <point x="78" y="0" type="line"/>
      <point x="147" y="0" type="line"/>
      <point x="272" y="522" type="line"/>
      <point x="203" y="522" type="line"/>
    </contour>
    <contour>
      <point x="268" y="622" type="curve" smooth="yes"/>
      <point x="296" y="622"/>
      <point x="322" y="647"/>
      <point x="322" y="680" type="curve" smooth="yes"/>
      <point x="322" y="704"/>
      <point x="303" y="721"/>
      <point x="280" y="721" type="curve" smooth="yes"/>
      <point x="250" y="721"/>
      <point x="226" y="694"/>
      <point x="226" y="663" type="curve" smooth="yes"/>
      <point x="226" y="639"/>
      <point x="243" y="622"/>
    </contour>
  </outline>
</glyph>
<glyph name="j" format="2">
  <advance width="230"/>
  <unicode hex="006A"/>
  <outline>
    <contour>
      <point x="-7" y="-189" type="curve" smooth="yes"/>
      <point x="79" y="-189"/>
      <point x="122" y="-130"/>
      <point x="151" y="-8" type="curve" smooth="yes"/>
      <point x="278" y="522" type="line"/>
      <point x="209" y="522" type="line"/>
      <point x="80" y="-15" type="line" smooth="yes"/>
      <point x="64" y="-82"/>
      <point x="40" y="-131"/>
      <point x="-4" y="-131" type="curve" smooth="yes"/>
      <point x="-21" y="-131"/>
      <point x="-38" y="-126"/>
      <point x="-52" y="-118" type="curve"/>
      <point x="-71" y="-173" type="line"/>
      <point x="-52" y="-183"/>
      <point x="-30" y="-189"/>
    </contour>
    <contour>
      <point x="273" y="622" type="curve" smooth="yes"/>
      <point x="301" y="622"/>
      <point x="327" y="647"/>
      <point x="327" y="680" type="curve" smooth="yes"/>
      <point x="327" y="704"/>
      <point x="309" y="721"/>
      <point x="286" y="721" type="curve" smooth="yes"/>
      <point x="255" y="721"/>
      <point x="231" y="694"/>
      <point x="231" y="663" type="curve" smooth="yes"/>
      <point x="231" y="639"/>
      <point x="249" y="622"/>
    </contour>
  </outline>
</glyph>
<glyph name="k" format="2">
  <advance width="412"/>
  <unicode hex="006B"/>
  <anchor x="151" y="0" name="bottom"/>
  <anchor x="230" y="776" name="top"/>
  <outline>
    <contour>
      <point x="15" y="0" type="line"/>
      <point x="84" y="0" type="line"/>
      <point x="145" y="254" type="line"/>
      <point x="188" y="201"/>
      <point x="234" y="115"/>
      <point x="268" y="0" type="curve"/>
      <point x="339" y="0" type="line"/>
      <point x="318" y="84"/>
      <point x="273" y="194"/>
      <point x="210" y="278" type="curve"/>
      <point x="279" y="343"/>
      <point x="390" y="461"/>
      <point x="427" y="522" type="curve"/>
      <point x="353" y="522" type="line"/>
      <point x="322" y="472"/>
      <point x="227" y="365"/>
      <point x="155" y="299" type="curve"/>
      <point x="270" y="776" type="line"/>
      <point x="198" y="764" type="line"/>
    </contour>
  </outline>
</glyph>
<glyph name="l" format="2">
  <advance width="245"/>
  <unicode hex="006C"/>
  <outline>
    <contour>
      <point x="221" y="-12" type="curve"/>
      <point x="238" y="59" type="line"/>
      <point x="171" y="70"/>
      <point x="179" y="131"/>
      <point x="193" y="186" type="curve" smooth="yes"/>
      <point x="334" y="776" type="line"/>
      <point x="245" y="761" type="line"/>
      <point x="104" y="178" type="line" smooth="yes"/>
      <point x="81" y="83"/>
      <point x="96" y="1"/>
    </contour>
  </outline>
</glyph>
<glyph name="m" format="2">
  <advance width="677"/>
  <unicode hex="006D"/>
  <outline>
    <contour>
      <point x="78" y="0" type="line"/>
      <point x="147" y="0" type="line"/>
      <point x="257" y="462" type="line"/>
      <point x="278" y="469"/>
      <point x="302" y="474"/>
      <point x="321" y="474" type="curve" smooth="yes"/>
      <point x="374" y="474"/>
      <point x="396" y="449"/>
      <point x="396" y="401" type="curve" smooth="yes"/>
      <point x="396" y="381"/>
      <point x="393" y="358"/>
      <point x="386" y="332" type="curve" smooth="yes"/>
      <point x="306" y="0" type="line"/>
      <point x="375" y="0" type="line"/>
      <point x="457" y="338" type="line" smooth="yes"/>
      <point x="463" y="363"/>
      <point x="466" y="384"/>
      <point x="466" y="404" type="curve" smooth="yes"/>
      <point x="466" y="414"/>
      <point x="465" y="424"/>
      <point x="464" y="432" type="curve"/>
      <point x="491" y="458"/>
      <point x="522" y="474"/>
      <point x="557" y="474" type="curve" smooth="yes"/>
      <point x="599" y="474"/>
      <point x="622" y="449"/>
      <point x="622" y="396" type="curve" smooth="yes"/>
      <point x="622" y="374"/>
      <point x="619" y="348"/>
      <point x="611" y="317" type="curve" smooth="yes"/>
      <point x="535" y="0" type="line"/>
      <point x="604" y="0" type="line"/>
      <point x="682" y="324" type="line" smooth="yes"/>
      <point x="690" y="357"/>
      <point x="693" y="385"/>
      <point x="693" y="408" type="curve" smooth="yes"/>
      <point x="693" y="493"/>
      <point x="649" y="532"/>
      <point x="571" y="532" type="curve" smooth="yes"/>
      <point x="530" y="532"/>
      <point x="481" y="515"/>
      <point x="442" y="485" type="curve"/>
      <point x="421" y="515"/>
      <point x="385" y="532"/>
      <point x="332" y="532" type="curve" smooth="yes"/>
      <point x="291" y="532"/>
      <point x="243" y="522"/>
      <point x="200" y="507" type="curve"/>
    </contour>
  </outline>
</glyph>
<glyph name="n" format="2">
  <advance width="465"/>
  <unicode hex="006E"/>
  <anchor x="239" y="0" name="bottom"/>
  <anchor x="344" y="522" name="top"/>
  <outline>
    <contour>
      <point x="78" y="0" type="line"/>
      <point x="147" y="0" type="line"/>
      <point x="257" y="462" type="line"/>
      <point x="280" y="469"/>
      <point x="306" y="474"/>
      <point x="328" y="474" type="curve" smooth="yes"/>
      <point x="406" y="474"/>
      <point x="424" y="425"/>
      <point x="397" y="310" type="curve" smooth="yes"/>
      <point x="323" y="0" type="line"/>
      <point x="392" y="0" type="line"/>
      <point x="467" y="317" type="line" smooth="yes"/>
      <point x="502" y="463"/>
      <point x="461" y="532"/>
      <point x="339" y="532" type="curve" smooth="yes"/>
      <point x="296" y="532"/>
      <point x="245" y="522"/>
      <point x="200" y="507" type="curve"/>
    </contour>
  </outline>
</glyph>
<glyph name="o" format="2">
  <advance width="437"/>
  <unicode hex="006F"/>
  <anchor x="216" y="0" name="bottom"/>
  <anchor x="279" y="261" name="center"/>
  <anchor x="333" y="10" name="ogonek"/>
  <anchor x="342" y="522" name="top"/>
  <anchor x="480" y="522" name="topright"/>
  <outline>
    <contour>
      <point x="228" y="-10" type="curve" smooth="yes"/>
      <point x="363" y="-10"/>
      <point x="462" y="177"/>
      <point x="462" y="378" type="curve" smooth="yes"/>
      <point x="462" y="477"/>
      <point x="418" y="534"/>
      <point x="336" y="534" type="curve" smooth="yes"/>
      <point x="200" y="534"/>
      <point x="101" y="349"/>
      <point x="101" y="149" type="curve" smooth="yes"/>
      <point x="101" y="47"/>
      <point x="144" y="-10"/>
    </contour>
    <contour>
      <point x="235" y="49" type="curve" smooth="yes"/>
      <point x="189" y="49"/>
      <point x="172" y="80"/>
      <point x="172" y="148" type="curve" smooth="yes"/>
      <point x="172" y="296"/>
      <point x="239" y="474"/>
      <point x="328" y="474" type="curve" smooth="yes"/>
      <point x="373" y="474"/>
      <point x="391" y="444"/>
      <point x="391" y="379" type="curve" smooth="yes"/>
      <point x="391" y="227"/>
      <point x="324" y="49"/>
    </contour>
  </outline>
</glyph>
<glyph name="p" format="2">
  <advance width="451"/>
  <unicode hex="0070"/>
  <outline>
    <contour>
      <point x="-29" y="-185" type="line"/>
      <point x="40" y="-185" type="line"/>
      <point x="85" y="0" type="line"/>
      <point x="106" y="-7"/>
      <point x="130" y="-11"/>
      <point x="149" y="-11" type="curve" smooth="yes"/>
      <point x="289" y="-11"/>
      <point x="414" y="162"/>
      <point x="414" y="375" type="curve" smooth="yes"/>
      <point x="414" y="478"/>
      <point x="371" y="533"/>
      <point x="271" y="533" type="curve"/>
      <point x="238" y="533"/>
      <point x="182" y="525"/>
      <point x="137" y="507" type="curve"/>
    </contour>
    <contour>
      <point x="158" y="49" type="curve" smooth="yes"/>
      <point x="138" y="49"/>
      <point x="117" y="51"/>
      <point x="99" y="59" type="curve"/>
      <point x="195" y="460" type="line"/>
      <point x="215" y="469"/>
      <point x="242" y="474"/>
      <point x="266" y="474" type="curve" smooth="yes"/>
      <point x="319" y="474"/>
      <point x="343" y="441"/>
      <point x="343" y="370" type="curve" smooth="yes"/>
      <point x="343" y="200"/>
      <point x="253" y="49"/>
    </contour>
  </outline>
</glyph>
<glyph name="q" format="2">
  <advance width="446"/>
  <unicode hex="0071"/>
  <outline>
    <contour>
      <point x="255" y="-185" type="line"/>
      <point x="325" y="-185" type="line"/>
      <point x="491" y="508" type="line"/>
      <point x="458" y="523"/>
      <point x="406" y="533"/>
      <point x="371" y="533" type="curve" smooth="yes"/>
      <point x="218" y="533"/>
      <point x="99" y="360"/>
      <point x="97" y="148" type="curve" smooth="yes"/>
      <point x="96" y="48"/>
      <point x="133" y="-11"/>
      <point x="215" y="-11" type="curve" smooth="yes"/>
      <point x="245" y="-11"/>
      <point x="277" y="2"/>
      <point x="305" y="20" type="curve"/>
    </contour>
    <contour>
      <point x="233" y="50" type="curve" smooth="yes"/>
      <point x="185" y="50"/>
      <point x="167" y="82"/>
      <point x="167" y="153" type="curve" smooth="yes"/>
      <point x="167" y="321"/>
      <point x="257" y="474"/>
      <point x="352" y="474" type="curve" smooth="yes"/>
      <point x="374" y="474"/>
      <point x="394" y="471"/>
      <point x="411" y="463" type="curve"/>
      <point x="321" y="86" type="line"/>
      <point x="293" y="63"/>
      <point x="261" y="50"/>
    </contour>
  </outline>
</glyph>
<glyph name="r" format="2">
  <advance width="307"/>
  <unicode hex="0072"/>
  <outline>
    <contour>
      <point x="70" y="0" type="line"/>
      <point x="156" y="0" type="line"/>
      <point x="264" y="448" type="line"/>
      <point x="287" y="456"/>
      <point x="309" y="461"/>
      <point x="332" y="461" type="curve" smooth="yes"/>
      <point x="355" y="461"/>
      <point x="375" y="458"/>
      <point x="392" y="452" type="curve"/>
      <point x="417" y="524" type="line"/>
      <point x="396" y="531"/>
      <point x="369" y="535"/>
      <point x="339" y="535" type="curve" smooth="yes"/>
      <point x="291" y="535"/>
      <point x="242" y="523"/>
      <point x="190" y="500" type="curve"/>
    </contour>
  </outline>
</glyph>
<glyph name="s" format="2">
  <advance width="337"/>
  <unicode hex="0073"/>
  <outline>
    <contour>
      <point x="154" y="-12" type="curve" smooth="yes"/>
      <point x="264" y="-12"/>
      <point x="345" y="61"/>
      <point x="345" y="164" type="curve" smooth="yes"/>
      <point x="345" y="219"/>
      <point x="329" y="247"/>
      <point x="277" y="290" type="curve" smooth="yes"/>
      <point x="232" y="328"/>
      <point x="215" y="347"/>
      <point x="215" y="380" type="curve" smooth="yes"/>
      <point x="215" y="431"/>
      <point x="250" y="466"/>
      <point x="304" y="466" type="curve" smooth="yes"/>
      <point x="327" y="466"/>
      <point x="352" y="461"/>
      <point x="376" y="450" type="curve"/>
      <point x="404" y="519" type="line"/>
      <point x="385" y="528"/>
      <point x="352" y="538"/>
      <point x="312" y="538" type="curve" smooth="yes"/>
      <point x="205" y="538"/>
      <point x="129" y="462"/>
      <point x="129" y="363" type="curve" smooth="yes"/>
      <point x="129" y="309"/>
      <point x="149" y="281"/>
      <point x="198" y="243" type="curve" smooth="yes"/>
      <point x="243" y="207"/>
      <point x="258" y="187"/>
      <point x="258" y="152" type="curve" smooth="yes"/>
      <point x="258" y="99"/>
      <point x="223" y="59"/>
      <point x="162" y="59" type="curve" smooth="yes"/>
      <point x="134" y="59"/>
      <point x="100" y="68"/>
      <point x="71" y="83" type="curve"/>
      <point x="41" y="14" type="line"/>
      <point x="69" y="-1"/>
      <point x="111" y="-12"/>
    </contour>
  </outline>
</glyph>
<glyph name="t" format="2">
  <advance width="313"/>
  <unicode hex="0074"/>
  <outline>
    <contour>
      <point x="216" y="-13" type="curve" smooth="yes"/>
      <point x="250" y="-13"/>
      <point x="286" y="-5"/>
      <point x="313" y="7" type="curve"/>
      <point x="307" y="76" type="line"/>
      <point x="285" y="68"/>
      <point x="261" y="63"/>
      <point x="239" y="63" type="curve" smooth="yes"/>
      <point x="186" y="63"/>
      <point x="171" y="97"/>
      <point x="189" y="172" type="curve" smooth="yes"/>
      <point x="257" y="453" type="line"/>
      <point x="389" y="453" type="line"/>
      <point x="406" y="525" type="line"/>
      <point x="274" y="525" type="line"/>
      <point x="311" y="681" type="line"/>
      <point x="222" y="666" type="line"/>
      <point x="105" y="176" type="line" smooth="yes"/>
      <point x="75" y="53"/>
      <point x="105" y="-13"/>
    </contour>
  </outline>
</glyph>
<glyph name="u" format="2">
  <advance width="463"/>
  <unicode hex="0075"/>
  <anchor x="153" y="0" name="bottom"/>
  <anchor x="294" y="10" name="ogonek"/>
  <anchor x="279" y="522" name="top"/>
  <anchor x="443" y="522" name="topright"/>
  <outline>
    <contour>
      <point x="164" y="-10" type="curve" smooth="yes"/>
      <point x="207" y="-10"/>
      <point x="250" y="12"/>
      <point x="286" y="40" type="curve"/>
      <point x="288" y="23"/>
      <point x="293" y="9"/>
      <point x="298" y="-7" type="curve"/>
      <point x="362" y="4" type="line"/>
      <point x="348" y="52"/>
      <point x="340" y="97"/>
      <point x="361" y="184" type="curve" smooth="yes"/>
      <point x="442" y="522" type="line"/>
      <point x="373" y="522" type="line"/>
      <point x="295" y="201" type="line" smooth="yes"/>
      <point x="284" y="157"/>
      <point x="279" y="125"/>
      <point x="278" y="98" type="curve"/>
      <point x="248" y="69"/>
      <point x="216" y="49"/>
      <point x="185" y="49" type="curve" smooth="yes"/>
      <point x="115" y="49"/>
      <point x="99" y="100"/>
      <point x="126" y="213" type="curve" smooth="yes"/>
      <point x="201" y="522" type="line"/>
      <point x="131" y="522" type="line"/>
      <point x="55" y="206" type="line" smooth="yes"/>
      <point x="21" y="63"/>
      <point x="65" y="-10"/>
    </contour>
  </outline>
</glyph>
<glyph name="v" format="2">
  <advance width="379"/>
  <unicode hex="0076"/>
  <outline>
    <contour>
      <point x="156" y="0" type="curve"/>
      <point x="228" y="0" type="line"/>
      <point x="318" y="134"/>
      <point x="419" y="333"/>
      <point x="477" y="522" type="curve"/>
      <point x="407" y="522" type="line"/>
      <point x="368" y="381"/>
      <point x="301" y="225"/>
      <point x="209" y="69" type="curve"/>
      <point x="196" y="226"/>
      <point x="195" y="385"/>
      <point x="207" y="522" type="curve"/>
      <point x="140" y="522" type="line"/>
      <point x="125" y="336"/>
      <point x="135" y="149"/>
    </contour>
  </outline>
</glyph>
<glyph name="w" format="2">
  <advance width="593"/>
  <unicode hex="0077"/>
  <outline>
    <contour>
      <point x="154" y="0" type="curve"/>
      <point x="225" y="0" type="line"/>
      <point x="275" y="81"/>
      <point x="331" y="213"/>
      <point x="389" y="379" type="curve"/>
      <point x="386" y="214"/>
      <point x="391" y="95"/>
      <point x="405" y="0" type="curve"/>
      <point x="475" y="0" type="line"/>
      <point x="548" y="126"/>
      <point x="648" y="359"/>
      <point x="689" y="522" type="curve"/>
      <point x="623" y="522" type="line"/>
      <point x="592" y="404"/>
      <point x="537" y="251"/>
      <point x="449" y="71" type="curve"/>
      <point x="437" y="259"/>
      <point x="439" y="396"/>
      <point x="451" y="522" type="curve"/>
      <point x="383" y="522" type="line"/>
      <point x="351" y="404"/>
      <point x="296" y="256"/>
      <point x="208" y="74" type="curve"/>
      <point x="197" y="259"/>
      <point x="197" y="396"/>
      <point x="210" y="522" type="curve"/>
      <point x="142" y="522" type="line"/>
      <point x="127" y="343"/>
      <point x="134" y="136"/>
    </contour>
  </outline>
</glyph>
<glyph name="x" format="2">
  <advance width="372"/>
  <unicode hex="0078"/>
  <outline>
    <contour>
      <point x="8" y="0" type="line"/>
      <point x="99" y="0" type="line"/>
      <point x="238" y="208" type="line"/>
      <point x="260" y="137"/>
      <point x="277" y="65"/>
      <point x="286" y="0" type="curve"/>
      <point x="372" y="0" type="line"/>
      <point x="360" y="78"/>
      <point x="334" y="167"/>
      <point x="299" y="268" type="curve"/>
      <point x="375" y="365"/>
      <point x="429" y="451"/>
      <point x="471" y="525" type="curve"/>
      <point x="383" y="525" type="line"/>
      <point x="355" y="471"/>
      <point x="313" y="403"/>
      <point x="267" y="335" type="curve"/>
      <point x="217" y="525" type="line"/>
      <point x="128" y="525" type="line"/>
      <point x="204" y="278" type="line"/>
    </contour>
  </outline>
</glyph>
<glyph name="y" format="2">
  <advance width="384"/>
  <unicode hex="0079"/>
  <outline>
    <contour>
      <point x="34" y="-188" type="curve" smooth="yes"/>
      <point x="114" y="-188"/>
      <point x="169" y="-135"/>
      <point x="254" y="5" type="curve" smooth="yes"/>
      <point x="343" y="150"/>
      <point x="429" y="342"/>
      <point x="479" y="522" type="curve"/>
      <point x="408" y="522" type="line"/>
      <point x="378" y="400"/>
      <point x="316" y="234"/>
      <point x="231" y="73" type="curve"/>
      <point x="208" y="230"/>
      <point x="201" y="395"/>
      <point x="211" y="522" type="curve"/>
      <point x="143" y="522" type="line"/>
      <point x="134" y="347"/>
      <point x="145" y="186"/>
      <point x="178" y="-4" type="curve"/>
      <point x="123" y="-93"/>
      <point x="76" y="-128"/>
      <point x="35" y="-128" type="curve" smooth="yes"/>
      <point x="23" y="-128"/>
      <point x="7" y="-125"/>
      <point x="-5" y="-119" type="curve"/>
      <point x="-26" y="-175" type="line"/>
      <point x="-10" y="-184"/>
      <point x="12" y="-188"/>
    </contour>
  </outline>
</glyph>
<glyph name="z" format="2">
  <advance width="333"/>
  <unicode hex="007A"/>
  <outline>
    <contour>
      <point x="32" y="0" type="line"/>
      <point x="320" y="0" type="line"/>
      <point x="337" y="72" type="line"/>
      <point x="142" y="72" type="line"/>
      <point x="220" y="202"/>
      <point x="329" y="354"/>
      <point x="415" y="457" type="curve"/>
      <point x="430" y="525" type="line"/>
      <point x="160" y="525" type="line"/>
      <point x="143" y="452" type="line"/>
      <point x="318" y="452" type="line"/>
      <point x="216" y="325"/>
      <point x="119" y="184"/>
      <point x="46" y="61" type="curve"/>
    </contour>
  </outline>
</glyph>
<glyph name="braceleft" format="2">
  <advance width="273"/>
  <unicode hex="007B"/>
  <outline>
    <contour>
      <point x="205" y="-185" type="curve"/>
      <point x="222" y="-116" type="line"/>
      <point x="174" y="-116"/>
      <point x="157" y="-94"/>
      <point x="172" y="-34" type="curve" smooth="yes"/>
      <point x="217" y="156" type="line" smooth="yes"/>
      <point x="233" y="224"/>
      <point x="226" y="268"/>
      <point x="184" y="298" type="curve"/>
      <point x="240" y="325"/>
      <point x="269" y="372"/>
      <point x="286" y="443" type="curve" smooth="yes"/>
      <point x="333" y="637" type="line" smooth="yes"/>
      <point x="346" y="691"/>
      <point x="370" y="713"/>
      <point x="421" y="713" type="curve"/>
      <point x="437" y="783" type="line"/>
      <point x="327" y="783"/>
      <point x="278" y="740"/>
      <point x="253" y="637" type="curve" smooth="yes"/>
      <point x="209" y="454" type="line" smooth="yes"/>
      <point x="190" y="377"/>
      <point x="163" y="338"/>
      <point x="118" y="334" type="curve"/>
      <point x="101" y="265" type="line"/>
      <point x="141" y="260"/>
      <point x="154" y="221"/>
      <point x="135" y="143" type="curve" smooth="yes"/>
      <point x="92" y="-35" type="line" smooth="yes"/>
      <point x="66" y="-142"/>
      <point x="116" y="-185"/>
    </contour>
  </outline>
</glyph>
<glyph name="bar" format="2">
  <advance width="250"/>
  <unicode hex="007C"/>
  <outline>
    <contour>
      <point x="41" y="-185" type="line"/>
      <point x="121" y="-185" type="line"/>
      <point x="353" y="783" type="line"/>
      <point x="273" y="783" type="line"/>
    </contour>
  </outline>
</glyph>
<glyph name="braceright" format="2">
  <advance width="273"/>
  <unicode hex="007D"/>
  <outline>
    <contour>
      <point x="-20" y="-185" type="line"/>
      <point x="90" y="-185"/>
      <point x="140" y="-142"/>
      <point x="165" y="-39" type="curve" smooth="yes"/>
      <point x="208" y="144" type="line" smooth="yes"/>
      <point x="227" y="222"/>
      <point x="255" y="261"/>
      <point x="299" y="265" type="curve"/>
      <point x="316" y="334" type="line"/>
      <point x="276" y="338"/>
      <point x="263" y="378"/>
      <point x="282" y="455" type="curve" smooth="yes"/>
      <point x="326" y="633" type="line" smooth="yes"/>
      <point x="352" y="741"/>
      <point x="302" y="783"/>
      <point x="212" y="783" type="curve"/>
      <point x="196" y="714" type="line"/>
      <point x="244" y="714"/>
      <point x="260" y="693"/>
      <point x="246" y="633" type="curve" smooth="yes"/>
      <point x="201" y="443" type="line" smooth="yes"/>
      <point x="184" y="374"/>
      <point x="192" y="331"/>
      <point x="233" y="301" type="curve"/>
      <point x="178" y="273"/>
      <point x="149" y="227"/>
      <point x="131" y="156" type="curve" smooth="yes"/>
      <point x="85" y="-38" type="line" smooth="yes"/>
      <point x="72" y="-92"/>
      <point x="47" y="-115"/>
      <point x="-3" y="-115" type="curve"/>
    </contour>
  </outline>
</glyph>
<glyph name="asciitilde" format="2">
  <advance width="429"/>
  <unicode hex="007E"/>
  <outline>
    <contour>
      <point x="346" y="222" type="curve" smooth="yes"/>
      <point x="405" y="222"/>
      <point x="455" y="270"/>
      <point x="486" y="359" type="curve"/>
      <point x="427" y="377" type="line"/>
      <point x="402" y="310"/>
      <point x="375" y="301"/>
      <point x="358" y="301" type="curve" smooth="yes"/>
      <point x="316" y="301"/>
      <point x="290" y="379"/>
      <point x="227" y="379" type="curve" smooth="yes"/>
      <point x="168" y="379"/>
      <point x="118" y="331"/>
      <point x="88" y="241" type="curve"/>
      <point x="145" y="224" type="line"/>
      <point x="170" y="290"/>
      <point x="197" y="299"/>
      <point x="215" y="299" type="curve" smooth="yes"/>
      <point x="256" y="299"/>
      <point x="283" y="222"/>
    </contour>
  </outline>
</glyph>
<glyph name="exclamdown" format="2">
  <advance width="234"/>
  <unicode hex="00A1"/>
  <outline>
    <contour>
      <point x="32" y="-181" type="line"/>
      <point x="121" y="-181" type="line"/>
      <point x="167" y="7" type="line" smooth="yes"/>
      <point x="190" y="105"/>
      <point x="206" y="215"/>
      <point x="210" y="296" type="curve"/>
      <point x="171" y="296" type="line"/>
      <point x="139" y="229"/>
      <point x="90" y="58"/>
      <point x="77" y="7" type="curve"/>
    </contour>
    <contour>
      <point x="222" y="395" type="curve" smooth="yes"/>
      <point x="258" y="395"/>
      <point x="289" y="433"/>
      <point x="289" y="470" type="curve" smooth="yes"/>
      <point x="289" y="499"/>
      <point x="270" y="524"/>
      <point x="234" y="524" type="curve" smooth="yes"/>
      <point x="198" y="524"/>
      <point x="167" y="488"/>
      <point x="167" y="449" type="curve" smooth="yes"/>
      <point x="167" y="420"/>
      <point x="186" y="395"/>
    </contour>
  </outline>
</glyph>
<glyph name="cent" format="2">
  <advance width="423"/>
  <unicode hex="00A2"/>
  <outline>
    <contour>
      <point x="168" y="-100" type="line"/>
      <point x="247" y="-100" type="line"/>
      <point x="278" y="31" type="line"/>
      <point x="310" y="32"/>
      <point x="339" y="41"/>
      <point x="368" y="58" type="curve"/>
      <point x="362" y="126" type="line"/>
      <point x="341" y="114"/>
      <point x="315" y="105"/>
      <point x="292" y="105" type="curve" smooth="yes"/>
      <point x="232" y="105"/>
      <point x="204" y="139"/>
      <point x="204" y="216" type="curve" smooth="yes"/>
      <point x="204" y="378"/>
      <point x="280" y="486"/>
      <point x="376" y="486" type="curve" smooth="yes"/>
      <point x="398" y="486"/>
      <point x="421" y="482"/>
      <point x="443" y="471" type="curve"/>
      <point x="470" y="543" type="line"/>
      <point x="450" y="552"/>
      <point x="428" y="557"/>
      <point x="405" y="559" type="curve"/>
      <point x="435" y="685" type="line"/>
      <point x="356" y="685" type="line"/>
      <point x="325" y="553" type="line"/>
      <point x="205" y="524"/>
      <point x="117" y="389"/>
      <point x="117" y="204" type="curve" smooth="yes"/>
      <point x="117" y="118"/>
      <point x="146" y="64"/>
      <point x="202" y="43" type="curve"/>
    </contour>
  </outline>
</glyph>
<glyph name="sterling" format="2">
  <advance width="430"/>
  <unicode hex="00A3"/>
  <outline>
    <contour>
      <point x="84" y="0" type="curve"/>
      <point x="384" y="0" type="line"/>
      <point x="400" y="61" type="line"/>
      <point x="179" y="61" type="line"/>
      <point x="211" y="137"/>
      <point x="240" y="238"/>
      <point x="256" y="308" type="curve"/>
      <point x="398" y="308" type="line"/>
      <point x="412" y="367" type="line"/>
      <point x="270" y="367" type="line"/>
      <point x="303" y="505" type="line" smooth="yes"/>
      <point x="328" y="606"/>
      <point x="367" y="643"/>
      <point x="425" y="643" type="curve" smooth="yes"/>
      <point x="458" y="643"/>
      <point x="482" y="636"/>
      <point x="502" y="623" type="curve"/>
      <point x="531" y="681" type="line"/>
      <point x="507" y="694"/>
      <point x="477" y="704"/>
      <point x="436" y="704" type="curve" smooth="yes"/>
      <point x="346" y="704"/>
      <point x="269" y="654"/>
      <point x="232" y="505" type="curve" smooth="yes"/>
      <point x="198" y="367" type="line"/>
      <point x="129" y="367" type="line"/>
      <point x="116" y="308" type="line"/>
      <point x="185" y="308" type="line"/>
      <point x="155" y="186"/>
      <point x="119" y="81"/>
    </contour>
  </outline>
</glyph>
<glyph name="currency" format="2">
  <advance width="430"/>
  <unicode hex="00A4"/>
  <outline>
    <contour>
      <point x="167" y="115" type="line"/>
      <point x="220" y="185" type="line"/>
      <point x="241" y="168"/>
      <point x="269" y="158"/>
      <point x="299" y="158" type="curve" smooth="yes"/>
      <point x="329" y="158"/>
      <point x="356" y="168"/>
      <point x="378" y="184" type="curve"/>
      <point x="430" y="115" type="line"/>
      <point x="477" y="153" type="line"/>
      <point x="420" y="228" type="line"/>
      <point x="439" y="259"/>
      <point x="450" y="298"/>
      <point x="450" y="347" type="curve" smooth="yes"/>
      <point x="450" y="396"/>
      <point x="438" y="437"/>
      <point x="419" y="468" type="curve"/>
      <point x="477" y="544" type="line"/>
      <point x="430" y="582" type="line"/>
      <point x="377" y="511" type="line"/>
      <point x="355" y="527"/>
      <point x="329" y="536"/>
      <point x="299" y="536" type="curve" smooth="yes"/>
      <point x="270" y="536"/>
      <point x="242" y="527"/>
      <point x="221" y="511" type="curve"/>
      <point x="167" y="582" type="line"/>
      <point x="121" y="544" type="line"/>
      <point x="179" y="467" type="line"/>
      <point x="160" y="436"/>
      <point x="149" y="396"/>
      <point x="149" y="347" type="curve" smooth="yes"/>
      <point x="149" y="299"/>
      <point x="160" y="259"/>
      <point x="178" y="229" type="curve"/>
      <point x="121" y="153" type="line"/>
    </contour>
    <contour>
      <point x="299" y="215" type="curve" smooth="yes"/>
      <point x="247" y="215"/>
      <point x="210" y="258"/>
      <point x="210" y="347" type="curve" smooth="yes"/>
      <point x="210" y="438"/>
      <point x="247" y="480"/>
      <point x="299" y="480" type="curve" smooth="yes"/>
      <point x="352" y="480"/>
      <point x="388" y="438"/>
      <point x="388" y="347" type="curve" smooth="yes"/>
      <point x="388" y="258"/>
      <point x="352" y="215"/>
    </contour>
  </outline>
</glyph>
<glyph name="yen" format="2">
  <advance width="430"/>
  <unicode hex="00A5"/>
  <outline>
    <contour>
      <point x="180" y="0" type="line"/>
      <point x="251" y="0" type="line"/>
      <point x="282" y="130" type="line"/>
      <point x="401" y="130" type="line"/>
      <point x="414" y="183" type="line"/>
      <point x="294" y="183" type="line"/>
      <point x="321" y="291" type="line"/>
      <point x="440" y="291" type="line"/>
      <point x="452" y="343" type="line"/>
      <point x="355" y="343" type="line"/>
      <point x="431" y="450"/>
      <point x="510" y="567"/>
      <point x="580" y="693" type="curve"/>
      <point x="507" y="693" type="line"/>
      <point x="455" y="595"/>
      <point x="387" y="488"/>
      <point x="300" y="362" type="curve"/>
      <point x="274" y="490"/>
      <point x="259" y="596"/>
      <point x="253" y="693" type="curve"/>
      <point x="182" y="693" type="line"/>
      <point x="193" y="567"/>
      <point x="214" y="450"/>
      <point x="239" y="343" type="curve"/>
      <point x="143" y="343" type="line"/>
      <point x="131" y="291" type="line"/>
      <point x="250" y="291" type="line"/>
      <point x="224" y="183" type="line"/>
      <point x="105" y="183" type="line"/>
      <point x="92" y="130" type="line"/>
      <point x="211" y="130" type="line"/>
    </contour>
  </outline>
</glyph>
<glyph name="brokenbar" format="2">
  <advance width="248"/>
  <unicode hex="00A6"/>
  <outline>
    <contour>
      <point x="188" y="404" type="line"/>
      <point x="254" y="404" type="line"/>
      <point x="345" y="783" type="line"/>
      <point x="279" y="783" type="line"/>
    </contour>
    <contour>
      <point x="47" y="-185" type="line"/>
      <point x="113" y="-185" type="line"/>
      <point x="204" y="194" type="line"/>
      <point x="137" y="194" type="line"/>
    </contour>
  </outline>
</glyph>
<glyph name="section" format="2">
  <advance width="386"/>
  <unicode hex="00A7"/>
  <outline>
    <contour>
      <point x="153" y="-108" type="curve" smooth="yes"/>
      <point x="271" y="-108"/>
      <point x="351" y="-28"/>
      <point x="351" y="61" type="curve" smooth="yes"/>
      <point x="351" y="95"/>
      <point x="336" y="124"/>
      <point x="306" y="152" type="curve"/>
      <point x="380" y="189"/>
      <point x="427" y="264"/>
      <point x="427" y="337" type="curve" smooth="yes"/>
      <point x="427" y="384"/>
      <point x="403" y="417"/>
      <point x="352" y="452" type="curve" smooth="yes"/>
      <point x="300" y="489"/>
      <point x="269" y="516"/>
      <point x="269" y="553" type="curve" smooth="yes"/>
      <point x="269" y="601"/>
      <point x="306" y="632"/>
      <point x="364" y="632" type="curve" smooth="yes"/>
      <point x="398" y="632"/>
      <point x="434" y="624"/>
      <point x="464" y="608" type="curve"/>
      <point x="500" y="678" type="line"/>
      <point x="468" y="695"/>
      <point x="423" y="707"/>
      <point x="378" y="707" type="curve" smooth="yes"/>
      <point x="274" y="707"/>
      <point x="185" y="638"/>
      <point x="185" y="540" type="curve" smooth="yes"/>
      <point x="185" y="510"/>
      <point x="197" y="482"/>
      <point x="221" y="454" type="curve"/>
      <point x="149" y="413"/>
      <point x="104" y="346"/>
      <point x="104" y="270" type="curve" smooth="yes"/>
      <point x="104" y="220"/>
      <point x="127" y="181"/>
      <point x="183" y="146" type="curve" smooth="yes"/>
      <point x="237" y="113"/>
      <point x="266" y="87"/>
      <point x="266" y="53" type="curve" smooth="yes"/>
      <point x="266" y="1"/>
      <point x="227" y="-35"/>
      <point x="169" y="-35" type="curve" smooth="yes"/>
      <point x="134" y="-35"/>
      <point x="94" y="-25"/>
      <point x="55" y="-6" type="curve"/>
      <point x="21" y="-77" type="line"/>
      <point x="55" y="-96"/>
      <point x="105" y="-108"/>
    </contour>
    <contour>
      <point x="258" y="191" type="curve"/>
      <point x="253" y="195"/>
      <point x="250" y="196"/>
      <point x="247" y="199" type="curve" smooth="yes"/>
      <point x="201" y="229"/>
      <point x="184" y="256"/>
      <point x="184" y="289" type="curve" smooth="yes"/>
      <point x="184" y="344"/>
      <point x="224" y="392"/>
      <point x="267" y="414" type="curve"/>
      <point x="273" y="410"/>
      <point x="278" y="406"/>
      <point x="285" y="402" type="curve" smooth="yes"/>
      <point x="331" y="373"/>
      <point x="345" y="347"/>
      <point x="345" y="317" type="curve" smooth="yes"/>
      <point x="345" y="263"/>
      <point x="309" y="216"/>
    </contour>
  </outline>
</glyph>
<glyph name="dieresis" format="2">
  <advance width="339"/>
  <unicode hex="00A8"/>
  <outline>
    <contour>
      <point x="402" y="622" type="curve" smooth="yes"/>
      <point x="432" y="622"/>
      <point x="458" y="649"/>
      <point x="458" y="682" type="curve" smooth="yes"/>
      <point x="458" y="708"/>
      <point x="439" y="726"/>
      <point x="413" y="726" type="curve" smooth="yes"/>
      <point x="382" y="726"/>
      <point x="357" y="699"/>
      <point x="357" y="665" type="curve" smooth="yes"/>
      <point x="357" y="639"/>
      <point x="376" y="622"/>
    </contour>
    <contour>
      <point x="248" y="622" type="curve" smooth="yes"/>
      <point x="278" y="622"/>
      <point x="304" y="649"/>
      <point x="304" y="682" type="curve" smooth="yes"/>
      <point x="304" y="708"/>
      <point x="285" y="726"/>
      <point x="259" y="726" type="curve" smooth="yes"/>
      <point x="228" y="726"/>
      <point x="203" y="699"/>
      <point x="203" y="665" type="curve" smooth="yes"/>
      <point x="203" y="639"/>
      <point x="222" y="622"/>
    </contour>
  </outline>
</glyph>
<glyph name="copyright" format="2">
  <advance width="702"/>
  <unicode hex="00A9"/>
  <outline>
    <contour>
      <point x="372" y="-15" type="curve" smooth="yes"/>
      <point x="554" y="-15"/>
      <point x="664" y="135"/>
      <point x="664" y="346" type="curve" smooth="yes"/>
      <point x="664" y="557"/>
      <point x="554" y="707"/>
      <point x="372" y="707" type="curve" smooth="yes"/>
      <point x="189" y="707"/>
      <point x="78" y="557"/>
      <point x="78" y="346" type="curve" smooth="yes"/>
      <point x="78" y="135"/>
      <point x="189" y="-15"/>
    </contour>
    <contour>
      <point x="386" y="148" type="curve" smooth="yes"/>
      <point x="416" y="148"/>
      <point x="448" y="154"/>
      <point x="471" y="169" type="curve"/>
      <point x="458" y="216" type="line"/>
      <point x="435" y="204"/>
      <point x="415" y="198"/>
      <point x="392" y="198" type="curve" smooth="yes"/>
      <point x="326" y="198"/>
      <point x="293" y="251"/>
      <point x="293" y="347" type="curve" smooth="yes"/>
      <point x="293" y="447"/>
      <point x="324" y="498"/>
      <point x="389" y="498" type="curve" smooth="yes"/>
      <point x="413" y="498"/>
      <point x="437" y="491"/>
      <point x="453" y="482" type="curve"/>
      <point x="467" y="529" type="line"/>
      <point x="445" y="541"/>
      <point x="413" y="548"/>
      <point x="384" y="548" type="curve" smooth="yes"/>
      <point x="289" y="548"/>
      <point x="236" y="474"/>
      <point x="236" y="345" type="curve" smooth="yes"/>
      <point x="236" y="223"/>
      <point x="290" y="148"/>
    </contour>
    <contour>
      <point x="372" y="34" type="curve" smooth="yes"/>
      <point x="225" y="34"/>
      <point x="130" y="157"/>
      <point x="130" y="346" type="curve" smooth="yes"/>
      <point x="130" y="534"/>
      <point x="224" y="658"/>
      <point x="372" y="658" type="curve" smooth="yes"/>
      <point x="515" y="658"/>
      <point x="612" y="535"/>
      <point x="612" y="346" type="curve" smooth="yes"/>
      <point x="612" y="158"/>
      <point x="516" y="34"/>
    </contour>
  </outline>
</glyph>
<glyph name="ordfeminine" format="2">
  <advance width="338"/>
  <unicode hex="00AA"/>
  <outline>
    <contour>
      <point x="244" y="324" type="curve" smooth="yes"/>
      <point x="272" y="324"/>
      <point x="302" y="339"/>
      <point x="325" y="357" type="curve"/>
      <point x="326" y="345"/>
      <point x="329" y="337"/>
      <point x="332" y="325" type="curve"/>
      <point x="386" y="333" type="line"/>
      <point x="377" y="366"/>
      <point x="371" y="397"/>
      <point x="387" y="458" type="curve" smooth="yes"/>
      <point x="441" y="681" type="line"/>
      <point x="417" y="694"/>
      <point x="378" y="700"/>
      <point x="351" y="700" type="curve" smooth="yes"/>
      <point x="244" y="700"/>
      <point x="160" y="580"/>
      <point x="160" y="434" type="curve" smooth="yes"/>
      <point x="160" y="365"/>
      <point x="184" y="324"/>
    </contour>
    <contour>
      <point x="259" y="373" type="curve" smooth="yes"/>
      <point x="230" y="373"/>
      <point x="218" y="394"/>
      <point x="218" y="438" type="curve" smooth="yes"/>
      <point x="218" y="550"/>
      <point x="277" y="651"/>
      <point x="337" y="651" type="curve" smooth="yes"/>
      <point x="350" y="651"/>
      <point x="363" y="649"/>
      <point x="373" y="644" type="curve"/>
      <point x="331" y="472" type="line" smooth="yes"/>
      <point x="325" y="441"/>
      <point x="321" y="420"/>
      <point x="320" y="404" type="curve"/>
      <point x="300" y="384"/>
      <point x="279" y="373"/>
    </contour>
  </outline>
</glyph>
<glyph name="logicalnot" format="2">
  <advance width="438"/>
  <unicode hex="00AC"/>
  <outline>
    <contour>
      <point x="351" y="135" type="line"/>
      <point x="413" y="135" type="line"/>
      <point x="474" y="392" type="line"/>
      <point x="139" y="392" type="line"/>
      <point x="125" y="333" type="line"/>
      <point x="399" y="333" type="line"/>
    </contour>
  </outline>
</glyph>
<glyph name="registered" format="2">
  <advance width="691"/>
  <unicode hex="00AE"/>
  <outline>
    <contour>
      <point x="429" y="-15" type="curve" smooth="yes"/>
      <point x="612" y="-15"/>
      <point x="724" y="133"/>
      <point x="724" y="347" type="curve" smooth="yes"/>
      <point x="724" y="560"/>
      <point x="612" y="708"/>
      <point x="429" y="708" type="curve" smooth="yes"/>
      <point x="246" y="708"/>
      <point x="133" y="560"/>
      <point x="133" y="347" type="curve" smooth="yes"/>
      <point x="133" y="133"/>
      <point x="246" y="-15"/>
    </contour>
    <contour>
      <point x="429" y="44" type="curve" smooth="yes"/>
      <point x="287" y="44"/>
      <point x="196" y="163"/>
      <point x="196" y="347" type="curve" smooth="yes"/>
      <point x="196" y="529"/>
      <point x="287" y="649"/>
      <point x="429" y="649" type="curve" smooth="yes"/>
      <point x="568" y="649"/>
      <point x="662" y="530"/>
      <point x="662" y="347" type="curve" smooth="yes"/>
      <point x="662" y="163"/>
      <point x="570" y="44"/>
    </contour>
    <contour>
      <point x="324" y="158" type="line"/>
      <point x="385" y="158" type="line"/>
      <point x="385" y="304" type="line"/>
      <point x="406" y="304" type="line" smooth="yes"/>
      <point x="413" y="304"/>
      <point x="419" y="304"/>
      <point x="425" y="304" type="curve"/>
      <point x="451" y="263"/>
      <point x="474" y="214"/>
      <point x="496" y="158" type="curve"/>
      <point x="561" y="158" type="line"/>
      <point x="533" y="226"/>
      <point x="511" y="273"/>
      <point x="482" y="321" type="curve"/>
      <point x="521" y="340"/>
      <point x="544" y="374"/>
      <point x="544" y="422" type="curve" smooth="yes"/>
      <point x="544" y="501"/>
      <point x="503" y="543"/>
      <point x="415" y="543" type="curve" smooth="yes"/>
      <point x="389" y="543"/>
      <point x="356" y="538"/>
      <point x="324" y="529" type="curve"/>
    </contour>
    <contour>
      <point x="385" y="355" type="line"/>
      <point x="385" y="486" type="line"/>
      <point x="397" y="487"/>
      <point x="408" y="489"/>
      <point x="419" y="489" type="curve" smooth="yes"/>
      <point x="461" y="489"/>
      <point x="482" y="468"/>
      <point x="482" y="422" type="curve"/>
      <point x="482" y="374"/>
      <point x="458" y="355"/>
      <point x="414" y="355" type="curve" smooth="yes"/>
    </contour>
  </outline>
</glyph>
<glyph name="macron" format="2">
  <advance width="303"/>
  <unicode hex="00AF"/>
  <outline>
    <contour>
      <point x="206" y="650" type="line"/>
      <point x="410" y="650" type="line"/>
      <point x="423" y="705" type="line"/>
      <point x="218" y="705" type="line"/>
    </contour>
  </outline>
</glyph>
<glyph name="degree" format="2">
  <advance width="277"/>
  <unicode hex="00B0"/>
  <outline>
    <contour>
      <point x="291" y="517" type="curve" smooth="yes"/>
      <point x="353" y="517"/>
      <point x="411" y="562"/>
      <point x="411" y="637" type="curve" smooth="yes"/>
      <point x="411" y="711"/>
      <point x="353" y="756"/>
      <point x="291" y="756" type="curve" smooth="yes"/>
      <point x="229" y="756"/>
      <point x="171" y="711"/>
      <point x="171" y="637" type="curve" smooth="yes"/>
      <point x="171" y="563"/>
      <point x="228" y="517"/>
    </contour>
    <contour>
      <point x="291" y="575" type="curve" smooth="yes"/>
      <point x="259" y="575"/>
      <point x="232" y="598"/>
      <point x="232" y="637" type="curve" smooth="yes"/>
      <point x="232" y="675"/>
      <point x="259" y="699"/>
      <point x="291" y="699" type="curve" smooth="yes"/>
      <point x="323" y="699"/>
      <point x="350" y="675"/>
      <point x="350" y="637" type="curve" smooth="yes"/>
      <point x="350" y="598"/>
      <point x="323" y="575"/>
    </contour>
  </outline>
</glyph>
<glyph name="plusminus" format="2">
  <advance width="429"/>
  <unicode hex="00B1"/>
  <outline>
    <contour>
      <point x="213" y="146" type="line"/>
      <point x="288" y="146" type="line"/>
      <point x="323" y="290" type="line"/>
      <point x="455" y="290" type="line"/>
      <point x="472" y="361" type="line"/>
      <point x="340" y="361" type="line"/>
      <point x="374" y="506" type="line"/>
      <point x="299" y="506" type="line"/>
      <point x="265" y="361" type="line"/>
      <point x="131" y="361" type="line"/>
      <point x="115" y="290" type="line"/>
      <point x="247" y="290" type="line"/>
    </contour>
    <contour>
      <point x="46" y="5" type="line"/>
      <point x="386" y="5" type="line"/>
      <point x="404" y="76" type="line"/>
      <point x="64" y="76" type="line"/>
    </contour>
  </outline>
</glyph>
<glyph name="twosuperior" format="2">
  <advance width="281"/>
  <unicode hex="00B2"/>
  <outline>
    <contour>
      <point x="122" y="303" type="curve"/>
      <point x="318" y="303" type="line"/>
      <point x="331" y="361" type="line"/>
      <point x="210" y="361" type="line"/>
      <point x="227" y="406"/>
      <point x="261" y="439"/>
      <point x="295" y="471" type="curve" smooth="yes"/>
      <point x="341" y="517"/>
      <point x="375" y="560"/>
      <point x="375" y="614" type="curve" smooth="yes"/>
      <point x="375" y="667"/>
      <point x="342" y="699"/>
      <point x="283" y="699" type="curve" smooth="yes"/>
      <point x="245" y="699"/>
      <point x="210" y="687"/>
      <point x="182" y="665" type="curve"/>
      <point x="205" y="617" type="line"/>
      <point x="223" y="632"/>
      <point x="245" y="640"/>
      <point x="266" y="640" type="curve" smooth="yes"/>
      <point x="290" y="640"/>
      <point x="305" y="628"/>
      <point x="305" y="605" type="curve" smooth="yes"/>
      <point x="305" y="568"/>
      <point x="274" y="531"/>
      <point x="229" y="487" type="curve" smooth="yes"/>
      <point x="181" y="439"/>
      <point x="134" y="379"/>
    </contour>
  </outline>
</glyph>
<glyph name="threesuperior" format="2">
  <advance width="281"/>
  <unicode hex="00B3"/>
  <outline>
    <contour>
      <point x="197" y="295" type="curve" smooth="yes"/>
      <point x="279" y="295"/>
      <point x="342" y="358"/>
      <point x="342" y="433" type="curve" smooth="yes"/>
      <point x="342" y="467"/>
      <point x="328" y="495"/>
      <point x="297" y="509" type="curve"/>
      <point x="352" y="533"/>
      <point x="375" y="576"/>
      <point x="375" y="619" type="curve" smooth="yes"/>
      <point x="375" y="671"/>
      <point x="339" y="698"/>
      <point x="283" y="698" type="curve" smooth="yes"/>
      <point x="254" y="698"/>
      <point x="219" y="690"/>
      <point x="189" y="672" type="curve"/>
      <point x="202" y="620" type="line"/>
      <point x="223" y="633"/>
      <point x="245" y="641"/>
      <point x="263" y="641" type="curve" smooth="yes"/>
      <point x="291" y="641"/>
      <point x="305" y="626"/>
      <point x="305" y="603" type="curve" smooth="yes"/>
      <point x="305" y="573"/>
      <point x="284" y="534"/>
      <point x="226" y="534" type="curve" smooth="yes"/>
      <point x="207" y="534" type="line"/>
      <point x="194" y="480" type="line"/>
      <point x="217" y="480" type="line" smooth="yes"/>
      <point x="256" y="480"/>
      <point x="276" y="461"/>
      <point x="276" y="429" type="curve" smooth="yes"/>
      <point x="276" y="384"/>
      <point x="242" y="353"/>
      <point x="200" y="353" type="curve" smooth="yes"/>
      <point x="177" y="353"/>
      <point x="155" y="358"/>
      <point x="136" y="370" type="curve"/>
      <point x="113" y="317" type="line"/>
      <point x="135" y="302"/>
      <point x="164" y="295"/>
    </contour>
  </outline>
</glyph>
<glyph name="acute" format="2">
  <advance width="293"/>
  <unicode hex="00B4"/>
  <outline>
    <contour>
      <point x="244" y="587" type="line"/>
      <point x="407" y="729" type="line"/>
      <point x="356" y="780" type="line"/>
      <point x="208" y="624" type="line"/>
    </contour>
  </outline>
</glyph>
<glyph name="mu" format="2">
  <advance width="467"/>
  <unicode hex="00B5"/>
  <outline>
    <contour>
      <point x="21" y="-185" type="line"/>
      <point x="104" y="-185" type="line"/>
      <point x="133" y="-62" type="line" smooth="yes"/>
      <point x="141" y="-27"/>
      <point x="146" y="6"/>
      <point x="149" y="32" type="curve"/>
      <point x="163" y="3"/>
      <point x="195" y="-10"/>
      <point x="238" y="-10" type="curve" smooth="yes"/>
      <point x="278" y="-9"/>
      <point x="318" y="11"/>
      <point x="348" y="35" type="curve"/>
      <point x="351" y="20"/>
      <point x="356" y="6"/>
      <point x="361" y="-8" type="curve"/>
      <point x="438" y="5" type="line"/>
      <point x="422" y="57"/>
      <point x="416" y="111"/>
      <point x="436" y="194" type="curve" smooth="yes"/>
      <point x="515" y="525" type="line"/>
      <point x="429" y="525" type="line"/>
      <point x="352" y="206" type="line" smooth="yes"/>
      <point x="342" y="165"/>
      <point x="337" y="133"/>
      <point x="335" y="107" type="curve"/>
      <point x="311" y="81"/>
      <point x="282" y="63"/>
      <point x="255" y="63" type="curve" smooth="yes"/>
      <point x="192" y="63"/>
      <point x="178" y="112"/>
      <point x="201" y="210" type="curve" smooth="yes"/>
      <point x="277" y="525" type="line"/>
      <point x="191" y="525" type="line"/>
    </contour>
  </outline>
</glyph>
<glyph name="paragraph" format="2">
  <advance width="484"/>
  <unicode hex="00B6"/>
  <outline>
    <contour>
      <point x="162" y="-185" type="line"/>
      <point x="226" y="-185" type="line"/>
      <point x="424" y="640" type="line"/>
      <point x="447" y="642"/>
      <point x="473" y="640"/>
      <point x="490" y="637" type="curve"/>
      <point x="294" y="-185" type="line"/>
      <point x="357" y="-185" type="line"/>
      <point x="565" y="682" type="line"/>
      <point x="539" y="692"/>
      <point x="490" y="698"/>
      <point x="448" y="698" type="curve" smooth="yes"/>
      <point x="270" y="698"/>
      <point x="138" y="579"/>
      <point x="138" y="415" type="curve" smooth="yes"/>
      <point x="138" y="329"/>
      <point x="182" y="273"/>
      <point x="270" y="264" type="curve"/>
    </contour>
  </outline>
</glyph>
<glyph name="cedilla" format="2">
  <advance width="280"/>
  <unicode hex="00B8"/>
  <outline>
    <contour>
      <point x="75" y="-198" type="curve" smooth="yes"/>
      <point x="145" y="-198"/>
      <point x="195" y="-159"/>
      <point x="195" y="-102" type="curve" smooth="yes"/>
      <point x="195" y="-78"/>
      <point x="184" y="-56"/>
      <point x="153" y="-39" type="curve"/>
      <point x="171" y="-12"/>
      <point x="181" y="5"/>
      <point x="190" y="19" type="curve"/>
      <point x="131" y="19" type="line"/>
      <point x="119" y="2"/>
      <point x="97" y="-33"/>
      <point x="80" y="-62" type="curve"/>
      <point x="113" y="-70"/>
      <point x="127" y="-84"/>
      <point x="127" y="-103" type="curve" smooth="yes"/>
      <point x="127" y="-127"/>
      <point x="109" y="-141"/>
      <point x="80" y="-141" type="curve" smooth="yes"/>
      <point x="64" y="-141"/>
      <point x="45" y="-138"/>
      <point x="31" y="-133" type="curve"/>
      <point x="11" y="-187" type="line"/>
      <point x="31" y="-194"/>
      <point x="53" y="-198"/>
    </contour>
  </outline>
</glyph>
<glyph name="onesuperior" format="2">
  <advance width="281"/>
  <unicode hex="00B9"/>
  <outline>
    <contour>
      <point x="199" y="303" type="line"/>
      <point x="265" y="303" type="line"/>
      <point x="359" y="692" type="line"/>
      <point x="306" y="692" type="line"/>
      <point x="274" y="661"/>
      <point x="232" y="637"/>
      <point x="189" y="619" type="curve"/>
      <point x="212" y="567" type="line"/>
      <point x="233" y="575"/>
      <point x="254" y="588"/>
      <point x="271" y="602" type="curve"/>
    </contour>
  </outline>
</glyph>
<glyph name="ordmasculine" format="2">
  <advance width="333"/>
  <unicode hex="00BA"/>
  <outline>
    <contour>
      <point x="251" y="319" type="curve" smooth="yes"/>
      <point x="353" y="319"/>
      <point x="425" y="451"/>
      <point x="425" y="587" type="curve" smooth="yes"/>
      <point x="425" y="658"/>
      <point x="390" y="699"/>
      <point x="326" y="699" type="curve" smooth="yes"/>
      <point x="224" y="699"/>
      <point x="154" y="568"/>
      <point x="154" y="433" type="curve" smooth="yes"/>
      <point x="154" y="361"/>
      <point x="188" y="319"/>
    </contour>
    <contour>
      <point x="259" y="374" type="curve" smooth="yes"/>
      <point x="233" y="374"/>
      <point x="224" y="392"/>
      <point x="224" y="430" type="curve" smooth="yes"/>
      <point x="224" y="518"/>
      <point x="263" y="644"/>
      <point x="320" y="644" type="curve" smooth="yes"/>
      <point x="344" y="644"/>
      <point x="354" y="627"/>
      <point x="354" y="589" type="curve" smooth="yes"/>
      <point x="354" y="499"/>
      <point x="314" y="374"/>
    </contour>
  </outline>
</glyph>
<glyph name="Aring" format="2">
  <advance width="477"/>
  <unicode hex="00C5"/>
  <outline>
    <contour>
      <point x="17" y="0" type="curve"/>
      <point x="105" y="0" type="line"/>
      <point x="124" y="51"/>
      <point x="148" y="110"/>
      <point x="175" y="173" type="curve"/>
      <point x="380" y="173" type="line"/>
      <point x="379" y="109"/>
      <point x="377" y="52"/>
      <point x="373" y="0" type="curve"/>
      <point x="464" y="0" type="line"/>
      <point x="474" y="234"/>
      <point x="465" y="460"/>
      <point x="449" y="669" type="curve"/>
      <point x="475" y="680"/>
      <point x="495" y="706"/>
      <point x="495" y="744" type="curve" smooth="yes"/>
      <point x="495" y="794"/>
      <point x="458" y="832"/>
      <point x="408" y="832" type="curve" smooth="yes"/>
      <point x="358" y="832"/>
      <point x="320" y="794"/>
      <point x="320" y="744" type="curve" smooth="yes"/>
      <point x="320" y="717"/>
      <point x="332" y="696"/>
      <point x="348" y="683" type="curve"/>
      <point x="236" y="487"/>
      <point x="110" y="239"/>
    </contour>
    <contour>
      <point x="207" y="247" type="line"/>
      <point x="256" y="355"/>
      <point x="314" y="474"/>
      <point x="374" y="586" type="curve"/>
      <point x="381" y="464"/>
      <point x="382" y="351"/>
      <point x="382" y="247" type="curve"/>
    </contour>
    <contour>
      <point x="409" y="698" type="curve" smooth="yes"/>
      <point x="381" y="698"/>
      <point x="365" y="717"/>
      <point x="365" y="744" type="curve" smooth="yes"/>
      <point x="365" y="771"/>
      <point x="383" y="789"/>
      <point x="409" y="789" type="curve" smooth="yes"/>
      <point x="434" y="789"/>
      <point x="452" y="771"/>
      <point x="452" y="744" type="curve" smooth="yes"/>
      <point x="452" y="717"/>
      <point x="434" y="698"/>
    </contour>
  </outline>
</glyph>
<glyph name="AE" format="2">
  <advance width="713"/>
  <unicode hex="00C6"/>
  <anchor x="294" y="0" name="bottom"/>
  <anchor x="618" y="677" name="top"/>
  <outline>
    <contour>
      <point x="13" y="0" type="curve"/>
      <point x="85" y="0" type="line"/>
      <point x="114" y="54"/>
      <point x="153" y="117"/>
      <point x="196" y="183" type="curve"/>
      <point x="407" y="183" type="line"/>
      <point x="364" y="0" type="line"/>
      <point x="680" y="0" type="line"/>
      <point x="695" y="61" type="line"/>
      <point x="450" y="61" type="line"/>
      <point x="515" y="334" type="line"/>
      <point x="718" y="334" type="line"/>
      <point x="733" y="395" type="line"/>
      <point x="530" y="395" type="line"/>
      <point x="587" y="632" type="line"/>
      <point x="812" y="632" type="line"/>
      <point x="827" y="693" type="line"/>
      <point x="510" y="693" type="line"/>
      <point x="345" y="506"/>
      <point x="148" y="240"/>
    </contour>
    <contour>
      <point x="237" y="244" type="line"/>
      <point x="323" y="370"/>
      <point x="420" y="499"/>
      <point x="508" y="605" type="curve"/>
      <point x="422" y="244" type="line"/>
    </contour>
  </outline>
</glyph>
<glyph name="Ccedilla" format="2">
  <advance width="463"/>
  <unicode hex="00C7"/>
  <outline>
    <contour>
      <point x="219" y="-198" type="curve" smooth="yes"/>
      <point x="290" y="-198"/>
      <point x="339" y="-159"/>
      <point x="339" y="-102" type="curve" smooth="yes"/>
      <point x="339" y="-78"/>
      <point x="328" y="-56"/>
      <point x="297" y="-39" type="curve"/>
      <point x="304" y="-29"/>
      <point x="309" y="-20"/>
      <point x="315" y="-11" type="curve"/>
      <point x="368" y="-10"/>
      <point x="412" y="2"/>
      <point x="454" y="28" type="curve"/>
      <point x="448" y="105" type="line"/>
      <point x="410" y="79"/>
      <point x="370" y="67"/>
      <point x="333" y="67" type="curve" smooth="yes"/>
      <point x="261" y="67"/>
      <point x="217" y="110"/>
      <point x="217" y="209" type="curve" smooth="yes"/>
      <point x="217" y="465"/>
      <point x="335" y="628"/>
      <point x="464" y="628" type="curve" smooth="yes"/>
      <point x="494" y="628"/>
      <point x="527" y="621"/>
      <point x="552" y="607" type="curve"/>
      <point x="583" y="682" type="line"/>
      <point x="554" y="697"/>
      <point x="513" y="705"/>
      <point x="467" y="705" type="curve" smooth="yes"/>
      <point x="267" y="705"/>
      <point x="125" y="484"/>
      <point x="125" y="212" type="curve" smooth="yes"/>
      <point x="125" y="90"/>
      <point x="168" y="13"/>
      <point x="258" y="-6" type="curve"/>
      <point x="248" y="-24"/>
      <point x="235" y="-44"/>
      <point x="225" y="-62" type="curve"/>
      <point x="257" y="-70"/>
      <point x="271" y="-84"/>
      <point x="271" y="-103" type="curve" smooth="yes"/>
      <point x="271" y="-127"/>
      <point x="254" y="-141"/>
      <point x="224" y="-141" type="curve" smooth="yes"/>
      <point x="209" y="-141"/>
      <point x="189" y="-138"/>
      <point x="175" y="-133" type="curve"/>
      <point x="155" y="-187" type="line"/>
      <point x="176" y="-194"/>
      <point x="198" y="-198"/>
    </contour>
  </outline>
</glyph>
<glyph name="Eth" format="2">
  <advance width="559"/>
  <unicode hex="00D0"/>
  <outline>
    <contour>
      <point x="164" y="-5" type="curve" smooth="yes"/>
      <point x="393" y="-5"/>
      <point x="530" y="230"/>
      <point x="530" y="478" type="curve" smooth="yes"/>
      <point x="530" y="622"/>
      <point x="464" y="699"/>
      <point x="329" y="699" type="curve" smooth="yes"/>
      <point x="280" y="699"/>
      <point x="235" y="695"/>
      <point x="185" y="683" type="curve"/>
      <point x="111" y="375" type="line"/>
      <point x="57" y="375" type="line"/>
      <point x="44" y="320" type="line"/>
      <point x="99" y="320" type="line"/>
      <point x="25" y="12" type="line"/>
      <point x="59" y="2"/>
      <point x="116" y="-5"/>
    </contour>
    <contour>
      <point x="181" y="58" type="curve" smooth="yes"/>
      <point x="164" y="58"/>
      <point x="138" y="61"/>
      <point x="109" y="66" type="curve"/>
      <point x="170" y="320" type="line"/>
      <point x="290" y="320" type="line"/>
      <point x="303" y="375" type="line"/>
      <point x="184" y="375" type="line"/>
      <point x="245" y="630" type="line"/>
      <point x="270" y="634"/>
      <point x="296" y="636"/>
      <point x="319" y="636" type="curve" smooth="yes"/>
      <point x="414" y="636"/>
      <point x="455" y="583"/>
      <point x="455" y="469" type="curve" smooth="yes"/>
      <point x="455" y="253"/>
      <point x="340" y="58"/>
    </contour>
  </outline>
</glyph>
<glyph name="multiply" format="2">
  <advance width="438"/>
  <unicode hex="00D7"/>
  <outline>
    <contour>
      <point x="154" y="153" type="line"/>
      <point x="284" y="258" type="line"/>
      <point x="369" y="147" type="line"/>
      <point x="418" y="185" type="line"/>
      <point x="333" y="297" type="line"/>
      <point x="467" y="405" type="line"/>
      <point x="430" y="451" type="line"/>
      <point x="297" y="344" type="line"/>
      <point x="214" y="454" type="line"/>
      <point x="165" y="415" type="line"/>
      <point x="249" y="305" type="line"/>
      <point x="117" y="199" type="line"/>
    </contour>
  </outline>
</glyph>
<glyph name="Oslash" format="2">
  <advance width="584"/>
  <unicode hex="00D8"/>
  <outline>
    <contour>
      <point x="117" y="-34" type="line"/>
      <point x="178" y="46" type="line"/>
      <point x="206" y="9"/>
      <point x="247" y="-10"/>
      <point x="302" y="-10" type="curve" smooth="yes"/>
      <point x="482" y="-10"/>
      <point x="619" y="230"/>
      <point x="619" y="488" type="curve" smooth="yes"/>
      <point x="619" y="532"/>
      <point x="614" y="569"/>
      <point x="603" y="600" type="curve"/>
      <point x="678" y="698" type="line"/>
      <point x="634" y="725" type="line"/>
      <point x="575" y="647" type="line"/>
      <point x="548" y="685"/>
      <point x="506" y="704"/>
      <point x="450" y="704" type="curve" smooth="yes"/>
      <point x="270" y="704"/>
      <point x="133" y="467"/>
      <point x="133" y="209" type="curve" smooth="yes"/>
      <point x="133" y="164"/>
      <point x="139" y="125"/>
      <point x="150" y="92" type="curve"/>
      <point x="75" y="-6" type="line"/>
    </contour>
    <contour>
      <point x="310" y="52" type="curve" smooth="yes"/>
      <point x="268" y="52"/>
      <point x="239" y="70"/>
      <point x="224" y="105" type="curve"/>
      <point x="539" y="518" type="line"/>
      <point x="542" y="503"/>
      <point x="543" y="487"/>
      <point x="543" y="468" type="curve" smooth="yes"/>
      <point x="538" y="262"/>
      <point x="436" y="52"/>
    </contour>
    <contour>
      <point x="213" y="173" type="line"/>
      <point x="209" y="189"/>
      <point x="208" y="208"/>
      <point x="208" y="229" type="curve" smooth="yes"/>
      <point x="212" y="431"/>
      <point x="314" y="642"/>
      <point x="442" y="642" type="curve" smooth="yes"/>
      <point x="484" y="642"/>
      <point x="512" y="623"/>
      <point x="528" y="587" type="curve"/>
    </contour>
  </outline>
</glyph>
<glyph name="Thorn" format="2">
  <advance width="470"/>
  <unicode hex="00DE"/>
  <outline>
    <contour>
      <point x="77" y="0" type="line"/>
      <point x="165" y="0" type="line"/>
      <point x="199" y="140" type="line"/>
      <point x="242" y="140" type="line" smooth="yes"/>
      <point x="419" y="140"/>
      <point x="538" y="256"/>
      <point x="538" y="419" type="curve" smooth="yes"/>
      <point x="538" y="527"/>
      <point x="474" y="582"/>
      <point x="358" y="582" type="curve" smooth="yes"/>
      <point x="341" y="582"/>
      <point x="323" y="581"/>
      <point x="304" y="578" type="curve"/>
      <point x="331" y="693" type="line"/>
      <point x="243" y="693" type="line"/>
    </contour>
    <contour>
      <point x="217" y="216" type="line"/>
      <point x="285" y="499" type="line"/>
      <point x="303" y="504"/>
      <point x="327" y="505"/>
      <point x="345" y="505" type="curve" smooth="yes"/>
      <point x="411" y="505"/>
      <point x="447" y="476"/>
      <point x="447" y="408" type="curve" smooth="yes"/>
      <point x="447" y="293"/>
      <point x="380" y="216"/>
      <point x="257" y="216" type="curve" smooth="yes"/>
    </contour>
  </outline>
</glyph>
<glyph name="germandbls" format="2">
  <advance width="477"/>
  <unicode hex="00DF"/>
  <outline>
    <contour>
      <point x="59" y="-189" type="line"/>
      <point x="111" y="-132"/>
      <point x="144" y="-52"/>
      <point x="178" y="90" type="curve" smooth="yes"/>
      <point x="294" y="575" type="line" smooth="yes"/>
      <point x="314" y="659"/>
      <point x="346" y="702"/>
      <point x="404" y="702" type="curve" smooth="yes"/>
      <point x="440" y="702"/>
      <point x="461" y="680"/>
      <point x="461" y="641" type="curve" smooth="yes"/>
      <point x="462" y="522"/>
      <point x="318" y="500"/>
      <point x="318" y="368" type="curve" smooth="yes"/>
      <point x="318" y="321"/>
      <point x="344" y="289"/>
      <point x="368" y="256" type="curve" smooth="yes"/>
      <point x="393" y="226"/>
      <point x="416" y="198"/>
      <point x="416" y="159" type="curve"/>
      <point x="416" y="104"/>
      <point x="377" y="60"/>
      <point x="311" y="60" type="curve" smooth="yes"/>
      <point x="289" y="60"/>
      <point x="268" y="64"/>
      <point x="247" y="72" type="curve"/>
      <point x="217" y="3" type="line"/>
      <point x="246" y="-7"/>
      <point x="276" y="-11"/>
      <point x="306" y="-11" type="curve" smooth="yes"/>
      <point x="426" y="-11"/>
      <point x="500" y="75"/>
      <point x="500" y="169" type="curve" smooth="yes"/>
      <point x="500" y="221"/>
      <point x="471" y="257"/>
      <point x="445" y="290" type="curve" smooth="yes"/>
      <point x="424" y="318"/>
      <point x="404" y="344"/>
      <point x="404" y="381" type="curve" smooth="yes"/>
      <point x="404" y="481"/>
      <point x="547" y="518"/>
      <point x="547" y="659" type="curve" smooth="yes"/>
      <point x="547" y="738"/>
      <point x="492" y="776"/>
      <point x="413" y="776" type="curve" smooth="yes"/>
      <point x="319" y="776"/>
      <point x="241" y="714"/>
      <point x="210" y="583" type="curve" smooth="yes"/>
      <point x="85" y="61" type="line" smooth="yes"/>
      <point x="64" y="-25"/>
      <point x="33" y="-111"/>
      <point x="-20" y="-176" type="curve"/>
    </contour>
  </outline>
</glyph>
<glyph name="ae" format="2">
  <advance width="625"/>
  <unicode hex="00E6"/>
  <outline>
    <contour>
      <point x="176" y="-11" type="curve" smooth="yes"/>
      <point x="242" y="-11"/>
      <point x="299" y="32"/>
      <point x="341" y="100" type="curve"/>
      <point x="354" y="24"/>
      <point x="393" y="-11"/>
      <point x="466" y="-11" type="curve" smooth="yes"/>
      <point x="515" y="-11"/>
      <point x="559" y="5"/>
      <point x="592" y="28" type="curve"/>
      <point x="585" y="83" type="line"/>
      <point x="556" y="62"/>
      <point x="519" y="48"/>
      <point x="486" y="48" type="curve" smooth="yes"/>
      <point x="423" y="48"/>
      <point x="398" y="73"/>
      <point x="398" y="162" type="curve" smooth="yes"/>
      <point x="398" y="174"/>
      <point x="399" y="189"/>
      <point x="401" y="208" type="curve"/>
      <point x="572" y="221"/>
      <point x="675" y="291"/>
      <point x="676" y="420" type="curve" smooth="yes"/>
      <point x="678" y="490"/>
      <point x="637" y="535"/>
      <point x="568" y="535" type="curve" smooth="yes"/>
      <point x="503" y="535"/>
      <point x="446" y="492"/>
      <point x="404" y="424" type="curve"/>
      <point x="392" y="500"/>
      <point x="353" y="535"/>
      <point x="279" y="535" type="curve" smooth="yes"/>
      <point x="230" y="535"/>
      <point x="186" y="518"/>
      <point x="153" y="495" type="curve"/>
      <point x="160" y="440" type="line"/>
      <point x="189" y="462"/>
      <point x="227" y="475"/>
      <point x="259" y="475" type="curve" smooth="yes"/>
      <point x="322" y="475"/>
      <point x="347" y="450"/>
      <point x="347" y="362" type="curve" smooth="yes"/>
      <point x="347" y="350"/>
      <point x="346" y="335"/>
      <point x="344" y="315" type="curve"/>
      <point x="173" y="303"/>
      <point x="71" y="232"/>
      <point x="68" y="104" type="curve" smooth="yes"/>
      <point x="67" y="33"/>
      <point x="109" y="-11"/>
    </contour>
    <contour>
      <point x="187" y="47" type="curve" smooth="yes"/>
      <point x="154" y="47"/>
      <point x="133" y="71"/>
      <point x="133" y="108" type="curve" smooth="yes"/>
      <point x="133" y="185"/>
      <point x="195" y="249"/>
      <point x="338" y="261" type="curve"/>
      <point x="312" y="129"/>
      <point x="253" y="47"/>
    </contour>
    <contour>
      <point x="407" y="263" type="curve"/>
      <point x="433" y="395"/>
      <point x="492" y="477"/>
      <point x="557" y="477" type="curve" smooth="yes"/>
      <point x="591" y="477"/>
      <point x="612" y="453"/>
      <point x="612" y="415" type="curve" smooth="yes"/>
      <point x="612" y="338"/>
      <point x="549" y="274"/>
    </contour>
  </outline>
</glyph>
<glyph name="ccedilla" format="2">
  <advance width="348"/>
  <unicode hex="00E7"/>
  <outline>
    <contour>
      <point x="156" y="-198" type="curve" smooth="yes"/>
      <point x="227" y="-198"/>
      <point x="276" y="-159"/>
      <point x="276" y="-102" type="curve" smooth="yes"/>
      <point x="276" y="-78"/>
      <point x="264" y="-56"/>
      <point x="233" y="-39" type="curve"/>
      <point x="241" y="-28"/>
      <point x="247" y="-20"/>
      <point x="251" y="-12" type="curve"/>
      <point x="282" y="-9"/>
      <point x="310" y="-1"/>
      <point x="338" y="15" type="curve"/>
      <point x="332" y="83" type="line"/>
      <point x="310" y="71"/>
      <point x="284" y="63"/>
      <point x="261" y="63" type="curve" smooth="yes"/>
      <point x="206" y="63"/>
      <point x="183" y="94"/>
      <point x="183" y="170" type="curve" smooth="yes"/>
      <point x="183" y="338"/>
      <point x="252" y="463"/>
      <point x="346" y="463" type="curve" smooth="yes"/>
      <point x="368" y="463"/>
      <point x="390" y="459"/>
      <point x="412" y="448" type="curve"/>
      <point x="439" y="520" type="line"/>
      <point x="412" y="533"/>
      <point x="380" y="538"/>
      <point x="348" y="538" type="curve" smooth="yes"/>
      <point x="203" y="538"/>
      <point x="96" y="374"/>
      <point x="96" y="158" type="curve" smooth="yes"/>
      <point x="96" y="62"/>
      <point x="128" y="8"/>
      <point x="194" y="-7" type="curve"/>
      <point x="184" y="-24"/>
      <point x="171" y="-44"/>
      <point x="161" y="-62" type="curve"/>
      <point x="194" y="-70"/>
      <point x="208" y="-84"/>
      <point x="208" y="-103" type="curve" smooth="yes"/>
      <point x="208" y="-127"/>
      <point x="190" y="-141"/>
      <point x="161" y="-141" type="curve" smooth="yes"/>
      <point x="145" y="-141"/>
      <point x="126" y="-138"/>
      <point x="111" y="-133" type="curve"/>
      <point x="92" y="-187" type="line"/>
      <point x="112" y="-194"/>
      <point x="134" y="-198"/>
    </contour>
  </outline>
</glyph>
<glyph name="eth" format="2">
  <advance width="451"/>
  <unicode hex="00F0"/>
  <outline>
    <contour>
      <point x="218" y="-8" type="curve" smooth="yes"/>
      <point x="373" y="-8"/>
      <point x="477" y="203"/>
      <point x="477" y="468" type="curve" smooth="yes"/>
      <point x="477" y="529"/>
      <point x="468" y="585"/>
      <point x="449" y="636" type="curve"/>
      <point x="543" y="677" type="line"/>
      <point x="528" y="722" type="line"/>
      <point x="432" y="680" type="line"/>
      <point x="415" y="714"/>
      <point x="395" y="747"/>
      <point x="371" y="775" type="curve"/>
      <point x="312" y="743" type="line"/>
      <point x="335" y="714"/>
      <point x="354" y="683"/>
      <point x="368" y="652" type="curve"/>
      <point x="268" y="608" type="line"/>
      <point x="283" y="563" type="line"/>
      <point x="384" y="608" type="line"/>
      <point x="399" y="566"/>
      <point x="406" y="523"/>
      <point x="406" y="474" type="curve" smooth="yes"/>
      <point x="406" y="470"/>
      <point x="406" y="465"/>
      <point x="406" y="461" type="curve"/>
      <point x="386" y="476"/>
      <point x="361" y="485"/>
      <point x="334" y="485" type="curve" smooth="yes"/>
      <point x="197" y="485"/>
      <point x="90" y="329"/>
      <point x="90" y="144" type="curve" smooth="yes"/>
      <point x="90" y="48"/>
      <point x="138" y="-8"/>
    </contour>
    <contour>
      <point x="227" y="53" type="curve" smooth="yes"/>
      <point x="185" y="53"/>
      <point x="163" y="84"/>
      <point x="163" y="148" type="curve" smooth="yes"/>
      <point x="163" y="292"/>
      <point x="234" y="429"/>
      <point x="331" y="429" type="curve" smooth="yes"/>
      <point x="358" y="429"/>
      <point x="383" y="419"/>
      <point x="400" y="400" type="curve"/>
      <point x="384" y="201"/>
      <point x="311" y="53"/>
    </contour>
  </outline>
</glyph>
<glyph name="divide" format="2">
  <advance width="429"/>
  <unicode hex="00F7"/>
  <outline>
    <contour>
      <point x="108" y="265" type="line"/>
      <point x="448" y="265" type="line"/>
      <point x="465" y="336" type="line"/>
      <point x="125" y="336" type="line"/>
    </contour>
    <contour>
      <point x="247" y="94" type="curve" smooth="yes"/>
      <point x="279" y="94"/>
      <point x="304" y="119"/>
      <point x="304" y="157" type="curve" smooth="yes"/>
      <point x="304" y="181"/>
      <point x="284" y="201"/>
      <point x="256" y="201" type="curve" smooth="yes"/>
      <point x="221" y="201"/>
      <point x="198" y="173"/>
      <point x="198" y="138" type="curve" smooth="yes"/>
      <point x="198" y="113"/>
      <point x="218" y="94"/>
    </contour>
    <contour>
      <point x="317" y="400" type="curve" smooth="yes"/>
      <point x="350" y="400"/>
      <point x="375" y="426"/>
      <point x="375" y="463" type="curve" smooth="yes"/>
      <point x="375" y="488"/>
      <point x="355" y="507"/>
      <point x="326" y="507" type="curve" smooth="yes"/>
      <point x="292" y="507"/>
      <point x="269" y="479"/>
      <point x="269" y="444" type="curve" smooth="yes"/>
      <point x="269" y="419"/>
      <point x="289" y="400"/>
    </contour>
  </outline>
</glyph>
<glyph name="oslash" format="2">
  <advance width="438"/>
  <unicode hex="00F8"/>
  <outline>
    <contour>
      <point x="91" y="-30" type="line"/>
      <point x="138" y="29" type="line"/>
      <point x="159" y="4"/>
      <point x="190" y="-10"/>
      <point x="230" y="-10" type="curve" smooth="yes"/>
      <point x="371" y="-10"/>
      <point x="469" y="180"/>
      <point x="469" y="375" type="curve" smooth="yes"/>
      <point x="469" y="402"/>
      <point x="466" y="427"/>
      <point x="459" y="447" type="curve"/>
      <point x="519" y="522" type="line"/>
      <point x="476" y="555" type="line"/>
      <point x="428" y="495" type="line"/>
      <point x="407" y="522"/>
      <point x="376" y="536"/>
      <point x="335" y="536" type="curve" smooth="yes"/>
      <point x="193" y="536"/>
      <point x="95" y="348"/>
      <point x="95" y="153" type="curve" smooth="yes"/>
      <point x="95" y="125"/>
      <point x="99" y="100"/>
      <point x="106" y="78" type="curve"/>
      <point x="47" y="5" type="line"/>
    </contour>
    <contour>
      <point x="237" y="58" type="curve" smooth="yes"/>
      <point x="210" y="58"/>
      <point x="193" y="69"/>
      <point x="183" y="93" type="curve"/>
      <point x="388" y="363" type="line"/>
      <point x="389" y="359"/>
      <point x="389" y="354"/>
      <point x="389" y="349" type="curve" smooth="yes"/>
      <point x="382" y="204"/>
      <point x="321" y="58"/>
    </contour>
    <contour>
      <point x="179" y="168" type="line"/>
      <point x="178" y="172"/>
      <point x="178" y="178"/>
      <point x="178" y="184" type="curve" smooth="yes"/>
      <point x="185" y="325"/>
      <point x="246" y="467"/>
      <point x="330" y="467" type="curve" smooth="yes"/>
      <point x="356" y="467"/>
      <point x="372" y="457"/>
      <point x="381" y="434" type="curve"/>
    </contour>
  </outline>
</glyph>
<glyph name="thorn" format="2">
  <advance width="451"/>
  <unicode hex="00FE"/>
  <outline>
    <contour>
      <point x="-29" y="-185" type="line"/>
      <point x="41" y="-185" type="line"/>
      <point x="85" y="0" type="line"/>
      <point x="105" y="-7"/>
      <point x="130" y="-11"/>
      <point x="150" y="-11" type="curve" smooth="yes"/>
      <point x="289" y="-11"/>
      <point x="414" y="162"/>
      <point x="414" y="375" type="curve" smooth="yes"/>
      <point x="414" y="478"/>
      <point x="371" y="533"/>
      <point x="272" y="533" type="curve"/>
      <point x="256" y="533"/>
      <point x="234" y="531"/>
      <point x="210" y="524" type="curve"/>
      <point x="271" y="776" type="line"/>
      <point x="199" y="764" type="line"/>
    </contour>
    <contour>
      <point x="158" y="49" type="curve" smooth="yes"/>
      <point x="137" y="49"/>
      <point x="116" y="52"/>
      <point x="99" y="59" type="curve"/>
      <point x="195" y="461" type="line"/>
      <point x="217" y="470"/>
      <point x="243" y="474"/>
      <point x="267" y="474" type="curve" smooth="yes"/>
      <point x="319" y="474"/>
      <point x="344" y="441"/>
      <point x="344" y="370" type="curve" smooth="yes"/>
      <point x="344" y="200"/>
      <point x="254" y="49"/>
    </contour>
  </outline>
</glyph>
<glyph name="Aogonek" format="2">
  <advance width="477"/>
  <unicode hex="0104"/>
  <outline>
    <contour>
      <point x="375" y="-194" type="curve" smooth="yes"/>
      <point x="394" y="-194"/>
      <point x="414" y="-191"/>
      <point x="433" y="-184" type="curve"/>
      <point x="438" y="-135" type="line"/>
      <point x="421" y="-140"/>
      <point x="411" y="-141"/>
      <point x="399" y="-141" type="curve" smooth="yes"/>
      <point x="380" y="-141"/>
      <point x="370" y="-130"/>
      <point x="370" y="-110" type="curve" smooth="yes"/>
      <point x="370" y="-74"/>
      <point x="398" y="-39"/>
      <point x="456" y="0" type="curve"/>
      <point x="467" y="235"/>
      <point x="457" y="469"/>
      <point x="437" y="693" type="curve"/>
      <point x="361" y="693" type="line"/>
      <point x="244" y="491"/>
      <point x="114" y="234"/>
      <point x="24" y="0" type="curve"/>
      <point x="95" y="0" type="line"/>
      <point x="114" y="54"/>
      <point x="140" y="116"/>
      <point x="169" y="181" type="curve"/>
      <point x="390" y="181" type="line"/>
      <point x="389" y="116"/>
      <point x="386" y="56"/>
      <point x="383" y="0" type="curve"/>
      <point x="393" y="0" type="line"/>
      <point x="334" y="-40"/>
      <point x="307" y="-82"/>
      <point x="307" y="-129" type="curve" smooth="yes"/>
      <point x="307" y="-169"/>
      <point x="333" y="-194"/>
    </contour>
    <contour>
      <point x="196" y="242" type="line"/>
      <point x="249" y="361"/>
      <point x="314" y="490"/>
      <point x="379" y="608" type="curve"/>
      <point x="388" y="477"/>
      <point x="390" y="355"/>
      <point x="391" y="242" type="curve"/>
    </contour>
  </outline>
</glyph>
<glyph name="aogonek" format="2">
  <advance width="450"/>
  <unicode hex="0105"/>
  <outline>
    <contour>
      <point x="260" y="-194" type="curve" smooth="yes"/>
      <point x="279" y="-194"/>
      <point x="299" y="-191"/>
      <point x="318" y="-184" type="curve"/>
      <point x="324" y="-135" type="line"/>
      <point x="307" y="-140"/>
      <point x="296" y="-141"/>
      <point x="285" y="-141" type="curve" smooth="yes"/>
      <point x="266" y="-141"/>
      <point x="256" y="-130"/>
      <point x="256" y="-110" type="curve" smooth="yes"/>
      <point x="256" y="-73"/>
      <point x="285" y="-36"/>
      <point x="350" y="4" type="curve"/>
      <point x="342" y="32"/>
      <point x="335" y="57"/>
      <point x="335" y="91" type="curve" smooth="yes"/>
      <point x="335" y="115"/>
      <point x="339" y="146"/>
      <point x="348" y="184" type="curve" smooth="yes"/>
      <point x="425" y="507" type="line"/>
      <point x="392" y="524"/>
      <point x="341" y="534"/>
      <point x="306" y="534" type="curve" smooth="yes"/>
      <point x="154" y="534"/>
      <point x="35" y="360"/>
      <point x="35" y="147" type="curve" smooth="yes"/>
      <point x="35" y="49"/>
      <point x="70" y="-10"/>
      <point x="152" y="-10" type="curve" smooth="yes"/>
      <point x="195" y="-10"/>
      <point x="238" y="12"/>
      <point x="272" y="40" type="curve"/>
      <point x="275" y="26"/>
      <point x="279" y="14"/>
      <point x="283" y="0" type="curve"/>
      <point x="222" y="-41"/>
      <point x="193" y="-81"/>
      <point x="193" y="-129" type="curve" smooth="yes"/>
      <point x="193" y="-169"/>
      <point x="218" y="-194"/>
    </contour>
    <contour>
      <point x="173" y="50" type="curve" smooth="yes"/>
      <point x="123" y="50"/>
      <point x="105" y="82"/>
      <point x="105" y="152" type="curve" smooth="yes"/>
      <point x="105" y="321"/>
      <point x="192" y="475"/>
      <point x="287" y="475" type="curve" smooth="yes"/>
      <point x="309" y="475"/>
      <point x="329" y="472"/>
      <point x="346" y="464" type="curve"/>
      <point x="283" y="201" type="line" smooth="yes"/>
      <point x="272" y="156"/>
      <point x="266" y="123"/>
      <point x="265" y="98" type="curve"/>
      <point x="236" y="69"/>
      <point x="203" y="50"/>
    </contour>
  </outline>
</glyph>
<glyph name="dcroat" format="2">
  <advance width="455"/>
  <unicode hex="0111"/>
  <outline>
    <contour>
      <point x="210" y="-10" type="curve" smooth="yes"/>
      <point x="256" y="-10"/>
      <point x="301" y="10"/>
      <point x="333" y="37" type="curve"/>
      <point x="337" y="22"/>
      <point x="342" y="9"/>
      <point x="348" y="-8" type="curve"/>
      <point x="425" y="5" type="line"/>
      <point x="410" y="57"/>
      <point x="402" y="107"/>
      <point x="423" y="194" type="curve" smooth="yes"/>
      <point x="525" y="620" type="line"/>
      <point x="592" y="620" type="line"/>
      <point x="607" y="682" type="line"/>
      <point x="540" y="682" type="line"/>
      <point x="562" y="776" type="line"/>
      <point x="473" y="761" type="line"/>
      <point x="454" y="682" type="line"/>
      <point x="345" y="682" type="line"/>
      <point x="330" y="620" type="line"/>
      <point x="440" y="620" type="line"/>
      <point x="416" y="526" type="line"/>
      <point x="400" y="532"/>
      <point x="379" y="536"/>
      <point x="361" y="536" type="curve" smooth="yes"/>
      <point x="218" y="536"/>
      <point x="91" y="361"/>
      <point x="91" y="148" type="curve" smooth="yes"/>
      <point x="91" y="52"/>
      <point x="128" y="-10"/>
    </contour>
    <contour>
      <point x="239" y="64" type="curve" smooth="yes"/>
      <point x="197" y="64"/>
      <point x="178" y="92"/>
      <point x="178" y="154" type="curve" smooth="yes"/>
      <point x="178" y="315"/>
      <point x="263" y="463"/>
      <point x="350" y="463" type="curve" smooth="yes"/>
      <point x="367" y="463"/>
      <point x="383" y="460"/>
      <point x="399" y="455" type="curve"/>
      <point x="339" y="206" type="line" smooth="yes"/>
      <point x="329" y="163"/>
      <point x="324" y="131"/>
      <point x="323" y="106" type="curve"/>
      <point x="299" y="80"/>
      <point x="268" y="64"/>
    </contour>
  </outline>
</glyph>
<glyph name="Eogonek" format="2">
  <advance width="437"/>
  <unicode hex="0118"/>
  <outline>
    <contour>
      <point x="317" y="-197" type="curve" smooth="yes"/>
      <point x="338" y="-197"/>
      <point x="361" y="-194"/>
      <point x="382" y="-186" type="curve"/>
      <point x="390" y="-126" type="line"/>
      <point x="372" y="-132"/>
      <point x="360" y="-133"/>
      <point x="348" y="-133" type="curve" smooth="yes"/>
      <point x="330" y="-133"/>
      <point x="320" y="-123"/>
      <point x="320" y="-103" type="curve" smooth="yes"/>
      <point x="320" y="-69"/>
      <point x="347" y="-35"/>
      <point x="405" y="0" type="curve"/>
      <point x="423" y="76" type="line"/>
      <point x="183" y="76" type="line"/>
      <point x="244" y="327" type="line"/>
      <point x="442" y="327" type="line"/>
      <point x="460" y="402" type="line"/>
      <point x="261" y="402" type="line"/>
      <point x="313" y="617" type="line"/>
      <point x="534" y="617" type="line"/>
      <point x="551" y="693" type="line"/>
      <point x="242" y="693" type="line"/>
      <point x="76" y="0" type="line"/>
      <point x="330" y="0" type="line"/>
      <point x="271" y="-39"/>
      <point x="243" y="-79"/>
      <point x="243" y="-128" type="curve" smooth="yes"/>
      <point x="243" y="-171"/>
      <point x="270" y="-197"/>
    </contour>
  </outline>
</glyph>
<glyph name="eogonek" format="2">
  <advance width="401"/>
  <unicode hex="0119"/>
  <outline>
    <contour>
      <point x="204" y="-194" type="curve" smooth="yes"/>
      <point x="222" y="-194"/>
      <point x="242" y="-191"/>
      <point x="261" y="-184" type="curve"/>
      <point x="267" y="-135" type="line"/>
      <point x="250" y="-140"/>
      <point x="239" y="-141"/>
      <point x="227" y="-141" type="curve" smooth="yes"/>
      <point x="209" y="-141"/>
      <point x="199" y="-129"/>
      <point x="199" y="-107" type="curve" smooth="yes"/>
      <point x="199" y="-64"/>
      <point x="231" y="-18"/>
      <point x="304" y="28" type="curve"/>
      <point x="297" y="83" type="line"/>
      <point x="269" y="62"/>
      <point x="230" y="48"/>
      <point x="196" y="48" type="curve" smooth="yes"/>
      <point x="134" y="48"/>
      <point x="108" y="73"/>
      <point x="108" y="162" type="curve" smooth="yes"/>
      <point x="108" y="178"/>
      <point x="109" y="198"/>
      <point x="111" y="213" type="curve"/>
      <point x="278" y="221"/>
      <point x="387" y="289"/>
      <point x="390" y="420" type="curve" smooth="yes"/>
      <point x="391" y="490"/>
      <point x="349" y="535"/>
      <point x="282" y="535" type="curve" smooth="yes"/>
      <point x="141" y="535"/>
      <point x="39" y="356"/>
      <point x="39" y="156" type="curve" smooth="yes"/>
      <point x="39" y="51"/>
      <point x="74" y="-7"/>
      <point x="165" y="-11" type="curve" smooth="yes"/>
      <point x="176" y="-11"/>
      <point x="188" y="-9"/>
      <point x="197" y="-7" type="curve"/>
      <point x="157" y="-45"/>
      <point x="136" y="-83"/>
      <point x="136" y="-126" type="curve" smooth="yes"/>
      <point x="136" y="-168"/>
      <point x="162" y="-194"/>
    </contour>
    <contour>
      <point x="117" y="266" type="curve"/>
      <point x="139" y="389"/>
      <point x="202" y="477"/>
      <point x="270" y="477" type="curve" smooth="yes"/>
      <point x="304" y="477"/>
      <point x="325" y="453"/>
      <point x="325" y="415" type="curve" smooth="yes"/>
      <point x="325" y="336"/>
      <point x="254" y="273"/>
    </contour>
  </outline>
</glyph>
<glyph name="Hbar" format="2">
  <advance width="559"/>
  <unicode hex="0126"/>
  <outline>
    <contour>
      <point x="81" y="0" type="line"/>
      <point x="170" y="0" type="line"/>
      <point x="248" y="323" type="line"/>
      <point x="466" y="323" type="line"/>
      <point x="389" y="0" type="line"/>
      <point x="478" y="0" type="line"/>
      <point x="603" y="521" type="line"/>
      <point x="668" y="521" type="line"/>
      <point x="684" y="586" type="line"/>
      <point x="618" y="586" type="line"/>
      <point x="644" y="693" type="line"/>
      <point x="555" y="693" type="line"/>
      <point x="530" y="586" type="line"/>
      <point x="311" y="586" type="line"/>
      <point x="336" y="693" type="line"/>
      <point x="247" y="693" type="line"/>
      <point x="221" y="586" type="line"/>
      <point x="157" y="586" type="line"/>
      <point x="142" y="521" type="line"/>
      <point x="206" y="521" type="line"/>
    </contour>
    <contour>
      <point x="266" y="400" type="line"/>
      <point x="295" y="521" type="line"/>
      <point x="514" y="521" type="line"/>
      <point x="485" y="400" type="line"/>
    </contour>
  </outline>
</glyph>
<glyph name="hbar" format="2">
  <advance width="453"/>
  <unicode hex="0127"/>
  <outline>
    <contour>
      <point x="78" y="0" type="line"/>
      <point x="147" y="0" type="line"/>
      <point x="257" y="461" type="line"/>
      <point x="281" y="469"/>
      <point x="309" y="475"/>
      <point x="331" y="475" type="curve" smooth="yes"/>
      <point x="384" y="475"/>
      <point x="409" y="451"/>
      <point x="409" y="393" type="curve" smooth="yes"/>
      <point x="409" y="371"/>
      <point x="405" y="344"/>
      <point x="397" y="310" type="curve" smooth="yes"/>
      <point x="323" y="0" type="line"/>
      <point x="392" y="0" type="line"/>
      <point x="467" y="317" type="line" smooth="yes"/>
      <point x="475" y="349"/>
      <point x="479" y="379"/>
      <point x="479" y="404" type="curve" smooth="yes"/>
      <point x="479" y="491"/>
      <point x="433" y="533"/>
      <point x="351" y="533" type="curve" smooth="yes"/>
      <point x="327" y="533"/>
      <point x="299" y="527"/>
      <point x="271" y="518" type="curve"/>
      <point x="297" y="629" type="line"/>
      <point x="411" y="629" type="line"/>
      <point x="423" y="680" type="line"/>
      <point x="310" y="680" type="line"/>
      <point x="333" y="776" type="line"/>
      <point x="261" y="764" type="line"/>
      <point x="242" y="680" type="line"/>
      <point x="174" y="680" type="line"/>
      <point x="161" y="629" type="line"/>
      <point x="230" y="629" type="line"/>
    </contour>
  </outline>
</glyph>
<glyph name="Iogonek" format="2">
  <advance width="241"/>
  <unicode hex="012E"/>
  <outline>
    <contour>
      <point x="79" y="-197" type="curve" smooth="yes"/>
      <point x="100" y="-197"/>
      <point x="123" y="-194"/>
      <point x="144" y="-186" type="curve"/>
      <point x="151" y="-126" type="line"/>
      <point x="133" y="-132"/>
      <point x="122" y="-133"/>
      <point x="110" y="-133" type="curve" smooth="yes"/>
      <point x="91" y="-133"/>
      <point x="81" y="-123"/>
      <point x="81" y="-103" type="curve" smooth="yes"/>
      <point x="81" y="-69"/>
      <point x="108" y="-35"/>
      <point x="165" y="0" type="curve"/>
      <point x="331" y="693" type="line"/>
      <point x="243" y="693" type="line"/>
      <point x="77" y="1" type="line"/>
      <point x="92" y="1" type="line"/>
      <point x="33" y="-39"/>
      <point x="4" y="-79"/>
      <point x="4" y="-128" type="curve" smooth="yes"/>
      <point x="4" y="-171"/>
      <point x="33" y="-197"/>
    </contour>
  </outline>
</glyph>
<glyph name="iogonek" format="2">
  <advance width="224"/>
  <unicode hex="012F"/>
  <outline>
    <contour>
      <point x="65" y="-194" type="curve" smooth="yes"/>
      <point x="83" y="-194"/>
      <point x="104" y="-191"/>
      <point x="123" y="-184" type="curve"/>
      <point x="128" y="-135" type="line"/>
      <point x="111" y="-140"/>
      <point x="100" y="-141"/>
      <point x="89" y="-141" type="curve" smooth="yes"/>
      <point x="70" y="-141"/>
      <point x="60" y="-130"/>
      <point x="60" y="-110" type="curve" smooth="yes"/>
      <point x="60" y="-74"/>
      <point x="88" y="-39"/>
      <point x="147" y="0" type="curve"/>
      <point x="272" y="522" type="line"/>
      <point x="203" y="522" type="line"/>
      <point x="79" y="2" type="line"/>
      <point x="88" y="2" type="line"/>
      <point x="27" y="-39"/>
      <point x="-3" y="-82"/>
      <point x="-3" y="-129" type="curve" smooth="yes"/>
      <point x="-3" y="-169"/>
      <point x="23" y="-194"/>
    </contour>
    <contour>
      <point x="268" y="622" type="curve" smooth="yes"/>
      <point x="296" y="622"/>
      <point x="322" y="647"/>
      <point x="322" y="680" type="curve" smooth="yes"/>
      <point x="322" y="704"/>
      <point x="303" y="721"/>
      <point x="280" y="721" type="curve" smooth="yes"/>
      <point x="250" y="721"/>
      <point x="226" y="694"/>
      <point x="226" y="663" type="curve" smooth="yes"/>
      <point x="226" y="639"/>
      <point x="243" y="622"/>
    </contour>
  </outline>
</glyph>
<glyph name="dotlessi" format="2">
  <advance width="225"/>
  <unicode hex="0131"/>
  <outline>
    <contour>
      <point x="78" y="0" type="line"/>
      <point x="148" y="0" type="line"/>
      <point x="273" y="522" type="line"/>
      <point x="203" y="522" type="line"/>
    </contour>
  </outline>
</glyph>
<glyph name="kgreenlandic" format="2">
  <advance width="410"/>
  <unicode hex="0138"/>
  <outline>
    <contour>
      <point x="76" y="0" type="line"/>
      <point x="145" y="0" type="line"/>
      <point x="206" y="254" type="line"/>
      <point x="249" y="201"/>
      <point x="296" y="115"/>
      <point x="330" y="0" type="curve"/>
      <point x="401" y="0" type="line"/>
      <point x="381" y="84"/>
      <point x="334" y="194"/>
      <point x="271" y="278" type="curve"/>
      <point x="340" y="343"/>
      <point x="452" y="461"/>
      <point x="490" y="522" type="curve"/>
      <point x="416" y="522" type="line"/>
      <point x="384" y="472"/>
      <point x="288" y="365"/>
      <point x="216" y="299" type="curve"/>
      <point x="271" y="522" type="line"/>
      <point x="202" y="522" type="line"/>
    </contour>
  </outline>
</glyph>
<glyph name="Lslash" format="2">
  <advance width="404"/>
  <unicode hex="0141"/>
  <outline>
    <contour>
      <point x="27" y="0" type="line"/>
      <point x="320" y="0" type="line"/>
      <point x="336" y="62" type="line"/>
      <point x="114" y="62" type="line"/>
      <point x="179" y="336" type="line"/>
      <point x="336" y="421" type="line"/>
      <point x="320" y="467" type="line"/>
      <point x="194" y="398" type="line"/>
      <point x="265" y="693" type="line"/>
      <point x="193" y="693" type="line"/>
      <point x="113" y="358" type="line"/>
      <point x="11" y="303" type="line"/>
      <point x="29" y="256" type="line"/>
      <point x="97" y="294" type="line"/>
    </contour>
  </outline>
</glyph>
<glyph name="lslash" format="2">
  <advance width="262"/>
  <unicode hex="0142"/>
  <outline>
    <contour>
      <point x="228" y="-11" type="curve"/>
      <point x="242" y="47" type="line"/>
      <point x="166" y="59"/>
      <point x="181" y="136"/>
      <point x="195" y="195" type="curve" smooth="yes"/>
      <point x="244" y="394" type="line"/>
      <point x="337" y="441" type="line"/>
      <point x="322" y="491" type="line"/>
      <point x="258" y="457" type="line"/>
      <point x="335" y="776" type="line"/>
      <point x="263" y="764" type="line"/>
      <point x="179" y="418" type="line"/>
      <point x="93" y="373" type="line"/>
      <point x="107" y="325" type="line"/>
      <point x="165" y="354" type="line"/>
      <point x="124" y="185" type="line" smooth="yes"/>
      <point x="102" y="95"/>
      <point x="105" y="5"/>
    </contour>
  </outline>
</glyph>
<glyph name="Eng" format="2">
  <advance width="561"/>
  <unicode hex="014A"/>
  <outline>
    <contour>
      <point x="267" y="-187" type="curve" smooth="yes"/>
      <point x="347" y="-187"/>
      <point x="384" y="-130"/>
      <point x="406" y="-41" type="curve" smooth="yes"/>
      <point x="581" y="693" type="line"/>
      <point x="512" y="693" type="line"/>
      <point x="384" y="161" type="line"/>
      <point x="346" y="356"/>
      <point x="298" y="544"/>
      <point x="250" y="693" type="curve"/>
      <point x="186" y="693" type="line"/>
      <point x="20" y="0" type="line"/>
      <point x="89" y="0" type="line"/>
      <point x="224" y="564" type="line"/>
      <point x="277" y="385"/>
      <point x="320" y="196"/>
      <point x="351" y="17" type="curve"/>
      <point x="336" y="-44" type="line" smooth="yes"/>
      <point x="324" y="-92"/>
      <point x="307" y="-126"/>
      <point x="267" y="-126" type="curve" smooth="yes"/>
      <point x="254" y="-126"/>
      <point x="238" y="-124"/>
      <point x="227" y="-120" type="curve"/>
      <point x="208" y="-177" type="line"/>
      <point x="223" y="-184"/>
      <point x="247" y="-187"/>
    </contour>
  </outline>
</glyph>
<glyph name="eng" format="2">
  <advance width="463"/>
  <unicode hex="014B"/>
  <outline>
    <contour>
      <point x="232" y="-189" type="curve" smooth="yes"/>
      <point x="321" y="-189"/>
      <point x="367" y="-131"/>
      <point x="395" y="-9" type="curve" smooth="yes"/>
      <point x="473" y="316" type="line" smooth="yes"/>
      <point x="509" y="464"/>
      <point x="465" y="535"/>
      <point x="341" y="535" type="curve" smooth="yes"/>
      <point x="294" y="535"/>
      <point x="241" y="524"/>
      <point x="193" y="508" type="curve"/>
      <point x="70" y="0" type="line"/>
      <point x="156" y="0" type="line"/>
      <point x="265" y="452" type="line"/>
      <point x="284" y="458"/>
      <point x="307" y="462"/>
      <point x="326" y="462" type="curve" smooth="yes"/>
      <point x="394" y="462"/>
      <point x="412" y="417"/>
      <point x="385" y="309" type="curve" smooth="yes"/>
      <point x="308" y="-16" type="line" smooth="yes"/>
      <point x="294" y="-75"/>
      <point x="271" y="-119"/>
      <point x="231" y="-119" type="curve" smooth="yes"/>
      <point x="214" y="-119"/>
      <point x="199" y="-114"/>
      <point x="185" y="-106" type="curve"/>
      <point x="161" y="-172" type="line"/>
      <point x="181" y="-182"/>
      <point x="207" y="-189"/>
    </contour>
  </outline>
</glyph>
<glyph name="OE" format="2">
  <advance width="748"/>
  <unicode hex="0152"/>
  <outline>
    <contour>
      <point x="254" y="-8" type="curve" smooth="yes"/>
      <point x="280" y="-8"/>
      <point x="313" y="-5"/>
      <point x="339" y="0" type="curve"/>
      <point x="650" y="0" type="line"/>
      <point x="664" y="61" type="line"/>
      <point x="420" y="61" type="line"/>
      <point x="485" y="334" type="line"/>
      <point x="688" y="334" type="line"/>
      <point x="702" y="395" type="line"/>
      <point x="500" y="395" type="line"/>
      <point x="557" y="632" type="line"/>
      <point x="783" y="632" type="line"/>
      <point x="797" y="693" type="line"/>
      <point x="500" y="693" type="line"/>
      <point x="477" y="698"/>
      <point x="451" y="702"/>
      <point x="420" y="702" type="curve" smooth="yes"/>
      <point x="230" y="702"/>
      <point x="69" y="480"/>
      <point x="69" y="212" type="curve" smooth="yes"/>
      <point x="69" y="69"/>
      <point x="131" y="-8"/>
    </contour>
    <contour>
      <point x="273" y="56" type="curve" smooth="yes"/>
      <point x="187" y="56"/>
      <point x="143" y="103"/>
      <point x="143" y="216" type="curve" smooth="yes"/>
      <point x="143" y="464"/>
      <point x="280" y="638"/>
      <point x="415" y="638" type="curve" smooth="yes"/>
      <point x="441" y="638"/>
      <point x="465" y="635"/>
      <point x="484" y="630" type="curve"/>
      <point x="349" y="63" type="line"/>
      <point x="326" y="58"/>
      <point x="294" y="56"/>
    </contour>
  </outline>
</glyph>
<glyph name="oe" format="2">
  <advance width="669"/>
  <unicode hex="0153"/>
  <outline>
    <contour>
      <point x="228" y="-10" type="curve" smooth="yes"/>
      <point x="288" y="-10"/>
      <point x="343" y="32"/>
      <point x="381" y="98" type="curve"/>
      <point x="394" y="22"/>
      <point x="434" y="-11"/>
      <point x="508" y="-11" type="curve" smooth="yes"/>
      <point x="557" y="-11"/>
      <point x="603" y="5"/>
      <point x="636" y="28" type="curve"/>
      <point x="629" y="83" type="line"/>
      <point x="600" y="62"/>
      <point x="561" y="48"/>
      <point x="527" y="48" type="curve" smooth="yes"/>
      <point x="465" y="48"/>
      <point x="439" y="73"/>
      <point x="439" y="162" type="curve" smooth="yes"/>
      <point x="439" y="178"/>
      <point x="440" y="198"/>
      <point x="443" y="213" type="curve"/>
      <point x="609" y="221"/>
      <point x="718" y="289"/>
      <point x="721" y="420" type="curve" smooth="yes"/>
      <point x="722" y="490"/>
      <point x="680" y="535"/>
      <point x="613" y="535" type="curve" smooth="yes"/>
      <point x="548" y="535"/>
      <point x="491" y="493"/>
      <point x="449" y="426" type="curve"/>
      <point x="437" y="496"/>
      <point x="399" y="534"/>
      <point x="336" y="534" type="curve" smooth="yes"/>
      <point x="200" y="534"/>
      <point x="101" y="349"/>
      <point x="101" y="149" type="curve" smooth="yes"/>
      <point x="101" y="47"/>
      <point x="144" y="-10"/>
    </contour>
    <contour>
      <point x="235" y="49" type="curve" smooth="yes"/>
      <point x="189" y="49"/>
      <point x="172" y="80"/>
      <point x="172" y="148" type="curve" smooth="yes"/>
      <point x="172" y="296"/>
      <point x="239" y="474"/>
      <point x="328" y="474" type="curve" smooth="yes"/>
      <point x="373" y="474"/>
      <point x="391" y="444"/>
      <point x="391" y="379" type="curve" smooth="yes"/>
      <point x="391" y="227"/>
      <point x="324" y="49"/>
    </contour>
    <contour>
      <point x="448" y="266" type="curve"/>
      <point x="471" y="389"/>
      <point x="533" y="477"/>
      <point x="602" y="477" type="curve" smooth="yes"/>
      <point x="635" y="477"/>
      <point x="656" y="453"/>
      <point x="656" y="415" type="curve" smooth="yes"/>
      <point x="656" y="336"/>
      <point x="585" y="273"/>
    </contour>
  </outline>
</glyph>
<glyph name="Scedilla" format="2">
  <advance width="386"/>
  <unicode hex="015E"/>
  <outline>
    <contour>
      <point x="77" y="-194" type="curve" smooth="yes"/>
      <point x="142" y="-194"/>
      <point x="189" y="-156"/>
      <point x="189" y="-102" type="curve" smooth="yes"/>
      <point x="189" y="-78"/>
      <point x="178" y="-56"/>
      <point x="146" y="-39" type="curve"/>
      <point x="154" y="-27"/>
      <point x="161" y="-16"/>
      <point x="167" y="-7" type="curve"/>
      <point x="271" y="13"/>
      <point x="339" y="97"/>
      <point x="339" y="209" type="curve" smooth="yes"/>
      <point x="339" y="286"/>
      <point x="314" y="327"/>
      <point x="254" y="376" type="curve" smooth="yes"/>
      <point x="195" y="425"/>
      <point x="172" y="456"/>
      <point x="172" y="507" type="curve" smooth="yes"/>
      <point x="172" y="590"/>
      <point x="223" y="642"/>
      <point x="299" y="642" type="curve" smooth="yes"/>
      <point x="332" y="642"/>
      <point x="370" y="633"/>
      <point x="398" y="620" type="curve"/>
      <point x="421" y="679" type="line"/>
      <point x="388" y="695"/>
      <point x="353" y="704"/>
      <point x="307" y="704" type="curve" smooth="yes"/>
      <point x="188" y="704"/>
      <point x="99" y="617"/>
      <point x="99" y="496" type="curve" smooth="yes"/>
      <point x="99" y="426"/>
      <point x="127" y="389"/>
      <point x="192" y="334" type="curve" smooth="yes"/>
      <point x="243" y="293"/>
      <point x="266" y="258"/>
      <point x="266" y="200" type="curve" smooth="yes"/>
      <point x="266" y="110"/>
      <point x="212" y="51"/>
      <point x="130" y="51" type="curve" smooth="yes"/>
      <point x="92" y="51"/>
      <point x="44" y="62"/>
      <point x="5" y="83" type="curve"/>
      <point x="-18" y="20" type="line"/>
      <point x="22" y="1"/>
      <point x="70" y="-10"/>
      <point x="113" y="-11" type="curve"/>
      <point x="104" y="-26"/>
      <point x="94" y="-43"/>
      <point x="84" y="-59" type="curve"/>
      <point x="118" y="-69"/>
      <point x="132" y="-84"/>
      <point x="132" y="-104" type="curve" smooth="yes"/>
      <point x="132" y="-131"/>
      <point x="113" y="-146"/>
      <point x="82" y="-146" type="curve" smooth="yes"/>
      <point x="66" y="-146"/>
      <point x="47" y="-143"/>
      <point x="33" y="-138" type="curve"/>
      <point x="16" y="-184" type="line"/>
      <point x="35" y="-190"/>
      <point x="55" y="-194"/>
    </contour>
  </outline>
</glyph>
<glyph name="scedilla" format="2">
  <advance width="334"/>
  <unicode hex="015F"/>
  <outline>
    <contour>
      <point x="118" y="-194" type="curve" smooth="yes"/>
      <point x="183" y="-194"/>
      <point x="230" y="-156"/>
      <point x="230" y="-102" type="curve" smooth="yes"/>
      <point x="230" y="-78"/>
      <point x="218" y="-56"/>
      <point x="186" y="-39" type="curve"/>
      <point x="195" y="-25"/>
      <point x="203" y="-14"/>
      <point x="209" y="-4" type="curve"/>
      <point x="285" y="16"/>
      <point x="336" y="78"/>
      <point x="336" y="160" type="curve" smooth="yes"/>
      <point x="336" y="216"/>
      <point x="319" y="242"/>
      <point x="266" y="286" type="curve" smooth="yes"/>
      <point x="218" y="323"/>
      <point x="202" y="344"/>
      <point x="202" y="380" type="curve" smooth="yes"/>
      <point x="202" y="438"/>
      <point x="240" y="477"/>
      <point x="299" y="477" type="curve" smooth="yes"/>
      <point x="323" y="477"/>
      <point x="349" y="472"/>
      <point x="372" y="461" type="curve"/>
      <point x="395" y="517" type="line"/>
      <point x="375" y="527"/>
      <point x="344" y="535"/>
      <point x="307" y="535" type="curve" smooth="yes"/>
      <point x="205" y="535"/>
      <point x="133" y="463"/>
      <point x="133" y="368" type="curve" smooth="yes"/>
      <point x="133" y="312"/>
      <point x="153" y="286"/>
      <point x="204" y="246" type="curve" smooth="yes"/>
      <point x="251" y="210"/>
      <point x="266" y="189"/>
      <point x="266" y="151" type="curve" smooth="yes"/>
      <point x="266" y="91"/>
      <point x="226" y="47"/>
      <point x="160" y="47" type="curve" smooth="yes"/>
      <point x="132" y="47"/>
      <point x="98" y="55"/>
      <point x="68" y="69" type="curve"/>
      <point x="44" y="13" type="line"/>
      <point x="75" y="-3"/>
      <point x="110" y="-10"/>
      <point x="154" y="-11" type="curve"/>
      <point x="144" y="-26"/>
      <point x="134" y="-43"/>
      <point x="125" y="-59" type="curve"/>
      <point x="159" y="-69"/>
      <point x="173" y="-84"/>
      <point x="173" y="-104" type="curve" smooth="yes"/>
      <point x="173" y="-131"/>
      <point x="154" y="-146"/>
      <point x="123" y="-146" type="curve" smooth="yes"/>
      <point x="107" y="-146"/>
      <point x="87" y="-143"/>
      <point x="73" y="-138" type="curve"/>
      <point x="57" y="-184" type="line"/>
      <point x="76" y="-190"/>
      <point x="96" y="-194"/>
    </contour>
  </outline>
</glyph>
<glyph name="Tcedilla" format="2">
  <advance width="420"/>
  <unicode hex="0162"/>
  <outline>
    <contour>
      <point x="144" y="-194" type="curve" smooth="yes"/>
      <point x="210" y="-194"/>
      <point x="256" y="-156"/>
      <point x="256" y="-102" type="curve" smooth="yes"/>
      <point x="256" y="-78"/>
      <point x="244" y="-56"/>
      <point x="213" y="-39" type="curve"/>
      <point x="224" y="-23"/>
      <point x="231" y="-11"/>
      <point x="239" y="0" type="curve" smooth="yes"/>
      <point x="245" y="0" type="line"/>
      <point x="398" y="631" type="line"/>
      <point x="549" y="631" type="line"/>
      <point x="564" y="693" type="line"/>
      <point x="189" y="693" type="line"/>
      <point x="174" y="631" type="line"/>
      <point x="326" y="631" type="line"/>
      <point x="174" y="0" type="line"/>
      <point x="189" y="0" type="line"/>
      <point x="177" y="-17"/>
      <point x="165" y="-38"/>
      <point x="151" y="-59" type="curve"/>
      <point x="186" y="-69"/>
      <point x="200" y="-84"/>
      <point x="200" y="-104" type="curve" smooth="yes"/>
      <point x="200" y="-131"/>
      <point x="180" y="-146"/>
      <point x="150" y="-146" type="curve" smooth="yes"/>
      <point x="134" y="-146"/>
      <point x="114" y="-143"/>
      <point x="99" y="-138" type="curve"/>
      <point x="84" y="-184" type="line"/>
      <point x="102" y="-190"/>
      <point x="123" y="-194"/>
    </contour>
  </outline>
</glyph>
<glyph name="uni0162" format="2">
  <advance width="421"/>
  <unicode hex="0162"/>
  <outline>
    <contour>
      <point x="141" y="-198" type="curve" smooth="yes"/>
      <point x="212" y="-198"/>
      <point x="261" y="-159"/>
      <point x="261" y="-102" type="curve" smooth="yes"/>
      <point x="261" y="-78"/>
      <point x="250" y="-56"/>
      <point x="219" y="-39" type="curve"/>
      <point x="230" y="-23"/>
      <point x="237" y="-11"/>
      <point x="244" y="0" type="curve" smooth="yes"/>
      <point x="255" y="0" type="line"/>
      <point x="403" y="617" type="line"/>
      <point x="551" y="617" type="line"/>
      <point x="569" y="693" type="line"/>
      <point x="184" y="693" type="line"/>
      <point x="166" y="617" type="line"/>
      <point x="314" y="617" type="line"/>
      <point x="166" y="0" type="line"/>
      <point x="185" y="0" type="line"/>
      <point x="173" y="-18"/>
      <point x="160" y="-41"/>
      <point x="147" y="-62" type="curve"/>
      <point x="180" y="-70"/>
      <point x="194" y="-84"/>
      <point x="194" y="-103" type="curve" smooth="yes"/>
      <point x="194" y="-127"/>
      <point x="176" y="-141"/>
      <point x="146" y="-141" type="curve" smooth="yes"/>
      <point x="131" y="-141"/>
      <point x="111" y="-138"/>
      <point x="97" y="-133" type="curve"/>
      <point x="78" y="-187" type="line"/>
      <point x="98" y="-194"/>
      <point x="120" y="-198"/>
    </contour>
  </outline>
</glyph>
<glyph name="tcedilla" format="2">
  <advance width="313"/>
  <unicode hex="0163"/>
  <outline>
    <contour>
      <point x="141" y="-194" type="curve" smooth="yes"/>
      <point x="206" y="-194"/>
      <point x="252" y="-156"/>
      <point x="252" y="-102" type="curve" smooth="yes"/>
      <point x="252" y="-78"/>
      <point x="241" y="-56"/>
      <point x="210" y="-39" type="curve"/>
      <point x="216" y="-28"/>
      <point x="222" y="-19"/>
      <point x="227" y="-11" type="curve"/>
      <point x="256" y="-10"/>
      <point x="284" y="-4"/>
      <point x="308" y="7" type="curve"/>
      <point x="301" y="64" type="line"/>
      <point x="279" y="54"/>
      <point x="254" y="48"/>
      <point x="232" y="48" type="curve" smooth="yes"/>
      <point x="176" y="48"/>
      <point x="160" y="86"/>
      <point x="180" y="167" type="curve" smooth="yes"/>
      <point x="251" y="464" type="line"/>
      <point x="387" y="464" type="line"/>
      <point x="401" y="522" type="line"/>
      <point x="265" y="522" type="line"/>
      <point x="303" y="681" type="line"/>
      <point x="232" y="669" type="line"/>
      <point x="112" y="169" type="line" smooth="yes"/>
      <point x="87" y="68"/>
      <point x="107" y="5"/>
      <point x="179" y="-8" type="curve"/>
      <point x="168" y="-24"/>
      <point x="157" y="-42"/>
      <point x="147" y="-59" type="curve"/>
      <point x="181" y="-69"/>
      <point x="195" y="-84"/>
      <point x="195" y="-104" type="curve" smooth="yes"/>
      <point x="195" y="-131"/>
      <point x="176" y="-146"/>
      <point x="146" y="-146" type="curve" smooth="yes"/>
      <point x="130" y="-146"/>
      <point x="110" y="-143"/>
      <point x="96" y="-138" type="curve"/>
      <point x="79" y="-184" type="line"/>
      <point x="98" y="-190"/>
      <point x="119" y="-194"/>
    </contour>
  </outline>
</glyph>
<glyph name="uni0163" format="2">
  <advance width="313"/>
  <unicode hex="0163"/>
  <outline>
    <contour>
      <point x="138" y="-198" type="curve" smooth="yes"/>
      <point x="208" y="-198"/>
      <point x="257" y="-159"/>
      <point x="257" y="-102" type="curve" smooth="yes"/>
      <point x="257" y="-78"/>
      <point x="246" y="-56"/>
      <point x="215" y="-39" type="curve"/>
      <point x="222" y="-28"/>
      <point x="228" y="-19"/>
      <point x="233" y="-11" type="curve"/>
      <point x="261" y="-10"/>
      <point x="290" y="-4"/>
      <point x="313" y="7" type="curve"/>
      <point x="307" y="76" type="line"/>
      <point x="285" y="68"/>
      <point x="261" y="63"/>
      <point x="239" y="63" type="curve" smooth="yes"/>
      <point x="186" y="63"/>
      <point x="171" y="97"/>
      <point x="189" y="172" type="curve" smooth="yes"/>
      <point x="257" y="453" type="line"/>
      <point x="389" y="453" type="line"/>
      <point x="406" y="525" type="line"/>
      <point x="274" y="525" type="line"/>
      <point x="311" y="681" type="line"/>
      <point x="222" y="666" type="line"/>
      <point x="105" y="176" type="line" smooth="yes"/>
      <point x="79" y="70"/>
      <point x="98" y="6"/>
      <point x="175" y="-8" type="curve"/>
      <point x="164" y="-25"/>
      <point x="152" y="-45"/>
      <point x="142" y="-62" type="curve"/>
      <point x="175" y="-70"/>
      <point x="189" y="-84"/>
      <point x="189" y="-103" type="curve" smooth="yes"/>
      <point x="189" y="-127"/>
      <point x="171" y="-141"/>
      <point x="142" y="-141" type="curve" smooth="yes"/>
      <point x="126" y="-141"/>
      <point x="107" y="-138"/>
      <point x="93" y="-133" type="curve"/>
      <point x="73" y="-187" type="line"/>
      <point x="93" y="-194"/>
      <point x="115" y="-198"/>
    </contour>
  </outline>
</glyph>
<glyph name="Tbar" format="2">
  <advance width="420"/>
  <unicode hex="0166"/>
  <outline>
    <contour>
      <point x="174" y="0" type="line"/>
      <point x="245" y="0" type="line"/>
      <point x="324" y="322" type="line"/>
      <point x="403" y="322" type="line"/>
      <point x="416" y="377" type="line"/>
      <point x="336" y="377" type="line"/>
      <point x="398" y="631" type="line"/>
      <point x="549" y="631" type="line"/>
      <point x="564" y="693" type="line"/>
      <point x="189" y="693" type="line"/>
      <point x="174" y="631" type="line"/>
      <point x="326" y="631" type="line"/>
      <point x="265" y="377" type="line"/>
      <point x="184" y="377" type="line"/>
      <point x="171" y="322" type="line"/>
      <point x="252" y="322" type="line"/>
    </contour>
  </outline>
</glyph>
<glyph name="Uogonek" format="2">
  <advance width="529"/>
  <unicode hex="0172"/>
  <outline>
    <contour>
      <point x="277" y="-197" type="curve" smooth="yes"/>
      <point x="299" y="-197"/>
      <point x="321" y="-194"/>
      <point x="343" y="-186" type="curve"/>
      <point x="350" y="-126" type="line"/>
      <point x="332" y="-132"/>
      <point x="320" y="-133"/>
      <point x="309" y="-133" type="curve" smooth="yes"/>
      <point x="290" y="-133"/>
      <point x="280" y="-123"/>
      <point x="280" y="-103" type="curve" smooth="yes"/>
      <point x="280" y="-67"/>
      <point x="310" y="-31"/>
      <point x="374" y="8" type="curve"/>
      <point x="444" y="38"/>
      <point x="486" y="109"/>
      <point x="512" y="215" type="curve" smooth="yes"/>
      <point x="626" y="693" type="line"/>
      <point x="537" y="693" type="line"/>
      <point x="422" y="214" type="line" smooth="yes"/>
      <point x="398" y="114"/>
      <point x="361" y="68"/>
      <point x="290" y="68" type="curve" smooth="yes"/>
      <point x="234" y="68"/>
      <point x="202" y="95"/>
      <point x="202" y="155" type="curve" smooth="yes"/>
      <point x="202" y="173"/>
      <point x="205" y="193"/>
      <point x="210" y="216" type="curve" smooth="yes"/>
      <point x="325" y="693" type="line"/>
      <point x="236" y="693" type="line"/>
      <point x="123" y="222" type="line" smooth="yes"/>
      <point x="116" y="193"/>
      <point x="113" y="166"/>
      <point x="113" y="142" type="curve" smooth="yes"/>
      <point x="113" y="42"/>
      <point x="175" y="-8"/>
      <point x="273" y="-9" type="curve"/>
      <point x="226" y="-46"/>
      <point x="203" y="-84"/>
      <point x="203" y="-128" type="curve" smooth="yes"/>
      <point x="203" y="-171"/>
      <point x="231" y="-197"/>
    </contour>
  </outline>
</glyph>
<glyph name="uogonek" format="2">
  <advance width="462"/>
  <unicode hex="0173"/>
  <outline>
    <contour>
      <point x="337" y="-197" type="curve" smooth="yes"/>
      <point x="358" y="-197"/>
      <point x="381" y="-194"/>
      <point x="403" y="-186" type="curve"/>
      <point x="409" y="-126" type="line"/>
      <point x="391" y="-132"/>
      <point x="380" y="-133"/>
      <point x="369" y="-133" type="curve" smooth="yes"/>
      <point x="349" y="-133"/>
      <point x="339" y="-123"/>
      <point x="339" y="-103" type="curve" smooth="yes"/>
      <point x="339" y="-68"/>
      <point x="370" y="-32"/>
      <point x="434" y="5" type="curve"/>
      <point x="426" y="34"/>
      <point x="419" y="63"/>
      <point x="419" y="98" type="curve" smooth="yes"/>
      <point x="419" y="126"/>
      <point x="423" y="158"/>
      <point x="432" y="194" type="curve" smooth="yes"/>
      <point x="511" y="525" type="line"/>
      <point x="425" y="525" type="line"/>
      <point x="348" y="206" type="line" smooth="yes"/>
      <point x="338" y="165"/>
      <point x="333" y="133"/>
      <point x="332" y="107" type="curve"/>
      <point x="307" y="81"/>
      <point x="279" y="63"/>
      <point x="251" y="63" type="curve" smooth="yes"/>
      <point x="188" y="63"/>
      <point x="172" y="110"/>
      <point x="199" y="216" type="curve" smooth="yes"/>
      <point x="273" y="525" type="line"/>
      <point x="187" y="525" type="line"/>
      <point x="111" y="209" type="line" smooth="yes"/>
      <point x="76" y="64"/>
      <point x="124" y="-10"/>
      <point x="222" y="-10" type="curve" smooth="yes"/>
      <point x="267" y="-10"/>
      <point x="310" y="11"/>
      <point x="344" y="38" type="curve"/>
      <point x="346" y="25"/>
      <point x="349" y="13"/>
      <point x="354" y="1" type="curve"/>
      <point x="292" y="-39"/>
      <point x="262" y="-78"/>
      <point x="262" y="-128" type="curve" smooth="yes"/>
      <point x="262" y="-171"/>
      <point x="291" y="-197"/>
    </contour>
  </outline>
</glyph>
<glyph name="longs" format="2">
  <advance width="250"/>
  <unicode hex="017F"/>
  <outline>
    <contour>
      <point x="-6" y="-189" type="line"/>
      <point x="46" y="-125"/>
      <point x="76" y="-55"/>
      <point x="103" y="58" type="curve" smooth="yes"/>
      <point x="230" y="587" type="line" smooth="yes"/>
      <point x="254" y="683"/>
      <point x="290" y="717"/>
      <point x="343" y="717" type="curve" smooth="yes"/>
      <point x="369" y="717"/>
      <point x="386" y="710"/>
      <point x="405" y="703" type="curve"/>
      <point x="429" y="761" type="line"/>
      <point x="408" y="770"/>
      <point x="385" y="776"/>
      <point x="352" y="776" type="curve" smooth="yes"/>
      <point x="267" y="776"/>
      <point x="197" y="733"/>
      <point x="163" y="589" type="curve" smooth="yes"/>
      <point x="27" y="29" type="line" smooth="yes"/>
      <point x="8" y="-51"/>
      <point x="-21" y="-118"/>
      <point x="-68" y="-178" type="curve"/>
    </contour>
  </outline>
</glyph>
<glyph name="bstroke" format="2">
  <advance width="448"/>
  <unicode hex="0180"/>
  <outline>
    <contour>
      <point x="198" y="-10" type="curve" smooth="yes"/>
      <point x="353" y="-10"/>
      <point x="474" y="160"/>
      <point x="474" y="368" type="curve" smooth="yes"/>
      <point x="474" y="468"/>
      <point x="438" y="526"/>
      <point x="355" y="526" type="curve" smooth="yes"/>
      <point x="327" y="526"/>
      <point x="294" y="517"/>
      <point x="262" y="492" type="curve"/>
      <point x="294" y="629" type="line"/>
      <point x="416" y="629" type="line"/>
      <point x="428" y="679" type="line"/>
      <point x="307" y="679" type="line"/>
      <point x="329" y="776" type="line"/>
      <point x="258" y="764" type="line"/>
      <point x="238" y="679" type="line"/>
      <point x="169" y="679" type="line"/>
      <point x="157" y="629" type="line"/>
      <point x="226" y="629" type="line"/>
      <point x="79" y="17" type="line"/>
      <point x="112" y="0"/>
      <point x="163" y="-10"/>
    </contour>
    <contour>
      <point x="218" y="49" type="curve" smooth="yes"/>
      <point x="196" y="49"/>
      <point x="175" y="53"/>
      <point x="158" y="60" type="curve"/>
      <point x="245" y="424" type="line"/>
      <point x="275" y="452"/>
      <point x="309" y="466"/>
      <point x="337" y="466" type="curve" smooth="yes"/>
      <point x="385" y="466"/>
      <point x="404" y="434"/>
      <point x="404" y="363" type="curve" smooth="yes"/>
      <point x="404" y="199"/>
      <point x="315" y="49"/>
    </contour>
  </outline>
</glyph>
<glyph name="uni0180" format="2">
  <advance width="446"/>
  <unicode hex="0180"/>
  <outline>
    <contour>
      <point x="198" y="-10" type="curve" smooth="yes"/>
      <point x="355" y="-10"/>
      <point x="478" y="159"/>
      <point x="478" y="365" type="curve" smooth="yes"/>
      <point x="478" y="463"/>
      <point x="442" y="525"/>
      <point x="356" y="525" type="curve" smooth="yes"/>
      <point x="330" y="525"/>
      <point x="300" y="517"/>
      <point x="272" y="496" type="curve"/>
      <point x="301" y="620" type="line"/>
      <point x="416" y="620" type="line"/>
      <point x="430" y="680" type="line"/>
      <point x="316" y="680" type="line"/>
      <point x="339" y="776" type="line"/>
      <point x="250" y="761" type="line"/>
      <point x="230" y="680" type="line"/>
      <point x="165" y="680" type="line"/>
      <point x="151" y="620" type="line"/>
      <point x="216" y="620" type="line"/>
      <point x="71" y="18" type="line"/>
      <point x="105" y="1"/>
      <point x="161" y="-10"/>
    </contour>
    <contour>
      <point x="222" y="62" type="curve" smooth="yes"/>
      <point x="204" y="62"/>
      <point x="185" y="65"/>
      <point x="170" y="72" type="curve"/>
      <point x="253" y="417" type="line"/>
      <point x="278" y="440"/>
      <point x="307" y="451"/>
      <point x="331" y="451" type="curve" smooth="yes"/>
      <point x="375" y="451"/>
      <point x="391" y="421"/>
      <point x="391" y="359" type="curve" smooth="yes"/>
      <point x="391" y="206"/>
      <point x="309" y="62"/>
    </contour>
  </outline>
</glyph>
<glyph name="Bhook" format="2">
  <advance width="563"/>
  <unicode hex="0181"/>
  <unicode hex="0253"/>
  <outline>
    <contour>
      <point x="219" y="-5" type="curve" smooth="yes"/>
      <point x="405" y="-5"/>
      <point x="496" y="93"/>
      <point x="496" y="224" type="curve" smooth="yes"/>
      <point x="496" y="284"/>
      <point x="467" y="333"/>
      <point x="401" y="359" type="curve"/>
      <point x="520" y="395"/>
      <point x="556" y="486"/>
      <point x="556" y="563" type="curve" smooth="yes"/>
      <point x="556" y="652"/>
      <point x="493" y="699"/>
      <point x="363" y="699" type="curve" smooth="yes"/>
      <point x="134" y="699"/>
      <point x="72" y="601"/>
      <point x="69" y="488" type="curve"/>
      <point x="128" y="494" type="line"/>
      <point x="131" y="563"/>
      <point x="157" y="608"/>
      <point x="226" y="626" type="curve"/>
      <point x="78" y="11" type="line"/>
      <point x="122" y="0"/>
      <point x="173" y="-5"/>
    </contour>
    <contour>
      <point x="234" y="56" type="curve" smooth="yes"/>
      <point x="212" y="56"/>
      <point x="185" y="59"/>
      <point x="162" y="63" type="curve"/>
      <point x="226" y="330" type="line"/>
      <point x="296" y="330" type="line" smooth="yes"/>
      <point x="378" y="330"/>
      <point x="421" y="291"/>
      <point x="421" y="220" type="curve" smooth="yes"/>
      <point x="421" y="116"/>
      <point x="358" y="56"/>
    </contour>
    <contour>
      <point x="241" y="389" type="line"/>
      <point x="300" y="632" type="line"/>
      <point x="319" y="636"/>
      <point x="343" y="639"/>
      <point x="365" y="639" type="curve" smooth="yes"/>
      <point x="444" y="639"/>
      <point x="481" y="613"/>
      <point x="481" y="551" type="curve" smooth="yes"/>
      <point x="481" y="476"/>
      <point x="441" y="389"/>
      <point x="313" y="389" type="curve" smooth="yes"/>
    </contour>
  </outline>
</glyph>
<glyph name="uni0181" format="2">
  <advance width="574"/>
  <unicode hex="0181"/>
  <outline>
    <contour>
      <point x="290" y="-6" type="curve" smooth="yes"/>
      <point x="481" y="-6"/>
      <point x="575" y="94"/>
      <point x="575" y="226" type="curve" smooth="yes"/>
      <point x="575" y="284"/>
      <point x="547" y="332"/>
      <point x="485" y="360" type="curve"/>
      <point x="599" y="398"/>
      <point x="635" y="485"/>
      <point x="635" y="562" type="curve" smooth="yes"/>
      <point x="635" y="652"/>
      <point x="570" y="700"/>
      <point x="434" y="700" type="curve" smooth="yes"/>
      <point x="183" y="700"/>
      <point x="128" y="591"/>
      <point x="126" y="482" type="curve"/>
      <point x="198" y="490" type="line"/>
      <point x="200" y="556"/>
      <point x="224" y="600"/>
      <point x="291" y="615" type="curve"/>
      <point x="145" y="10" type="line"/>
      <point x="192" y="-1"/>
      <point x="244" y="-6"/>
    </contour>
    <contour>
      <point x="312" y="68" type="curve" smooth="yes"/>
      <point x="294" y="68"/>
      <point x="271" y="71"/>
      <point x="250" y="74" type="curve"/>
      <point x="310" y="323" type="line"/>
      <point x="370" y="323" type="line" smooth="yes"/>
      <point x="444" y="323"/>
      <point x="482" y="288"/>
      <point x="482" y="222" type="curve" smooth="yes"/>
      <point x="482" y="123"/>
      <point x="424" y="68"/>
    </contour>
    <contour>
      <point x="328" y="396" type="line"/>
      <point x="382" y="621" type="line"/>
      <point x="400" y="624"/>
      <point x="421" y="626"/>
      <point x="440" y="626" type="curve" smooth="yes"/>
      <point x="509" y="626"/>
      <point x="542" y="602"/>
      <point x="542" y="546" type="curve" smooth="yes"/>
      <point x="542" y="476"/>
      <point x="506" y="396"/>
      <point x="387" y="396" type="curve" smooth="yes"/>
    </contour>
  </outline>
</glyph>
